<svg width="24" height="24" viewBox="0 0 24 24" fill="none" xmlns="http://www.w3.org/2000/svg">
<path d="M5 6C5.55228 6 6 6.44772 6 7V17C6 17.5523 5.55228 18 5 18C4.44772 18 4 17.5523 4 17V7C4 6.44772 4.44772 6 5 6Z" fill="#2F4051"/>
<path d="M14.5371 7.29297C14.8822 6.93263 15.4253 6.90498 15.8008 7.20996L15.8906 7.29297L19.7197 11.293L19.7988 11.3867C20.0665 11.7463 20.0665 12.2537 19.7988 12.6133L19.7197 12.707L15.8906 16.707L15.8008 16.79C15.4565 17.0696 14.9712 17.0696 14.627 16.79L14.5371 16.707L14.457 16.6133C14.1894 16.2537 14.1894 15.7463 14.457 15.3867L14.5371 15.293L16.7295 13.001L8.95703 13C8.42845 12.9999 8 12.5522 8 12C8 11.4872 8.36961 11.0646 8.8457 11.0068L8.95703 11L16.7314 11.001L14.5371 8.70703L14.457 8.61328C14.165 8.22099 14.192 7.65345 14.5371 7.29297Z" fill="#2F4051"/>
</svg>
