<svg width="24" height="24" viewBox="0 0 24 24" fill="none" xmlns="http://www.w3.org/2000/svg">
<path fill-rule="evenodd" clip-rule="evenodd" d="M12 8C14.7614 8 17 10.2386 17 13C17 15.7614 14.7614 18 12 18C9.23858 18 7 15.7614 7 13C7 10.2386 9.23858 8 12 8ZM11.6875 12.4609C11.5012 12.5691 11.375 12.7691 11.375 13C11.375 13.3452 11.6548 13.625 12 13.625C12.0553 13.625 12.1081 13.615 12.1592 13.6016L14.2861 15.7275L14.7275 15.2852L12.6016 13.1592C12.615 13.1081 12.625 13.0553 12.625 13C12.625 12.7691 12.4988 12.5691 12.3125 12.4609V9.25H11.6875V12.4609Z" fill="#2F4051"/>
<path fill-rule="evenodd" clip-rule="evenodd" d="M14.5859 2C14.8509 2 15.105 2.10499 15.293 2.29297L17 4H18C19.104 4 20 4.896 20 6V20C20 21.104 19.104 22 18 22H6C4.896 22 4 21.104 4 20V6C4 4.896 4.896 4 6 4H7L8.70703 2.29297C8.89503 2.10499 9.14908 2 9.41406 2H14.5859ZM6 20H18V6H6V20Z" fill="#2F4051"/>
</svg>
