<svg width="24" height="24" viewBox="0 0 24 24" fill="none" xmlns="http://www.w3.org/2000/svg">
<path d="M11.3866 14.2098C11.7789 13.9048 12.3465 13.9323 12.707 14.2928L16.707 18.2928L16.79 18.3865C17.095 18.7788 17.0674 19.3464 16.707 19.7069L16.6132 19.7899C16.2209 20.0949 15.6534 20.0673 15.2929 19.7069L11.9999 16.4149L8.70696 19.7069L8.61321 19.7899C8.22091 20.0949 7.65338 20.0673 7.29289 19.7069C6.90237 19.3163 6.90237 18.6833 7.29289 18.2928L11.2929 14.2928L11.3866 14.2098Z" fill="#2F4051"/>
<path d="M15.3866 4.20978C15.7789 3.90476 16.3465 3.93231 16.707 4.29279C17.0975 4.68332 17.0975 5.31633 16.707 5.70685L12.707 9.70685L12.6132 9.78986C12.2209 10.0949 11.6534 10.0673 11.2929 9.70685L7.29289 5.70685L7.20989 5.6131C6.90486 5.22081 6.93241 4.65328 7.29289 4.29279L7.38664 4.20978C7.77893 3.90476 8.34647 3.93231 8.70696 4.29279L11.9999 7.58478L15.2929 4.29279L15.3866 4.20978Z" fill="#2F4051"/>
</svg>
