<svg width="24" height="24" viewBox="0 0 24 24" fill="none" xmlns="http://www.w3.org/2000/svg">
<path d="M15.3871 13.7903C15.7794 14.0953 16.3466 14.0676 16.7071 13.7071C17.0976 13.3166 17.0976 12.6834 16.7071 12.2929L12.7071 8.29289L12.6129 8.2097C12.2206 7.90468 11.6534 7.93241 11.2929 8.29289L7.29289 12.2929L7.2097 12.3871C6.90468 12.7794 6.93241 13.3466 7.29289 13.7071L7.3871 13.7903C7.77939 14.0953 8.34662 14.0676 8.70711 13.7071L12 10.415L15.2929 13.7071L15.3871 13.7903Z" fill="#2F4051"/>
<path fill-rule="evenodd" clip-rule="evenodd" d="M12 22C17.522 22 22 17.522 22 12C22 6.477 17.522 2 12 2C6.477 2 2 6.477 2 12C2 17.522 6.477 22 12 22ZM12 20C7.589 20 4 16.411 4 12C4 7.589 7.589 4 12 4C16.411 4 20 7.589 20 12C20 16.411 16.411 20 12 20Z" fill="#2F4051"/>
</svg>
