<svg width="24" height="24" viewBox="0 0 24 24" fill="none" xmlns="http://www.w3.org/2000/svg">
<path d="M18.1902 7.11657C18.1902 7.88724 17.5506 8.51199 16.7616 8.51199C15.9726 8.51199 15.333 7.88724 15.333 7.11657C15.333 6.3459 15.9726 5.72114 16.7616 5.72114C17.5506 5.72114 18.1902 6.3459 18.1902 7.11657Z" fill="#2F4051"/>
<path d="M13.8287 13.7051L12.9998 14.5148V17.4194H10.6188V19.7451H8.71405V22.0708H1.95215V17.8593L10.0215 9.96592C9.80797 9.35002 9.69198 8.68855 9.69198 8C9.69198 4.68629 12.3783 2 15.692 2C19.0057 2 21.692 4.68629 21.692 8C21.692 11.3137 19.0057 14 15.692 14C15.0415 14 14.4153 13.8965 13.8287 13.7051ZM15.692 12C17.9011 12 19.692 10.2091 19.692 8C19.692 5.79086 17.9011 4 15.692 4C13.4828 4 11.692 5.79086 11.692 8C11.692 8.88095 11.9768 9.69539 12.4593 10.3563L11.9758 10.8398L11.7394 11.0832L11.4172 11.3984L11.2196 11.5988C11.2183 11.5972 11.0312 11.7788 11.0299 11.7772L3.95215 18.7007V20.0708H6.71405V17.7451H8.61881V15.4194H10.9998V13.6726L11.9758 12.7146L12.2848 12.402L13.4048 11.282C14.0529 11.7346 14.8415 12 15.692 12Z" fill="#2F4051"/>
</svg>
