<svg width="24" height="24" viewBox="0 0 24 24" fill="none" xmlns="http://www.w3.org/2000/svg">
<path d="M14.5859 2C14.8509 2 15.105 2.10499 15.293 2.29297L17 4H18C19.104 4 20 4.896 20 6V13H18V6H6V20H14V22H6C4.896 22 4 21.104 4 20V6C4 4.896 4.896 4 6 4H7L8.70703 2.29297C8.89503 2.10499 9.14908 2 9.41406 2H14.5859Z" fill="#2F4051"/>
<path d="M19 17H22V19H19V22H17V19H14V17H17V14H19V17Z" fill="#2F4051"/>
<path d="M14 16H8V14H14V16Z" fill="#2F4051"/>
<path d="M16 12H8V10H16V12Z" fill="#2F4051"/>
</svg>
