<svg width="24" height="24" viewBox="0 0 24 24" fill="none" xmlns="http://www.w3.org/2000/svg">
<path d="M15.291 7.29101L15.293 7.29301C15.684 6.90201 16.316 6.90201 16.707 7.29301C17.098 7.68401 17.098 8.31601 16.707 8.70701C16.7056 8.7084 16.7038 8.70936 16.7018 8.71039C16.6996 8.71158 16.6971 8.71286 16.695 8.71501L13.925 11.485C13.969 11.65 14 11.821 14 12C14 13.105 13.105 14 12 14C11.262 14 10.624 13.596 10.277 13H7C6.448 13 6 12.552 6 12C6 11.448 6.448 11 7 11H10.277C10.624 10.405 11.262 10 12 10C12.177 10 12.345 10.03 12.508 10.073L15.291 7.29101Z" fill="#2F4051"/>
<path fill-rule="evenodd" clip-rule="evenodd" d="M20.847 7.34688C21.5798 8.73771 22 10.3192 22 11.9999C22 17.5229 17.522 21.9999 12 21.9999C6.477 21.9999 2 17.5229 2 11.9999C2 10.3189 2.419 8.73688 3.152 7.34688C2.455 6.79788 2 5.95588 2 4.99988C2 3.34288 3.343 1.99988 5 1.99988C5.95583 1.99988 6.7977 2.45572 7.34671 3.15151C8.73754 2.41974 10.3193 1.99988 12 1.99988C13.68 1.99988 15.262 2.41988 16.653 3.15188C17.202 2.45588 18.044 1.99988 19 1.99988C20.657 1.99988 22 3.34288 22 4.99988C22 5.95571 21.5448 6.79787 20.847 7.34688ZM12 19.9999C7.589 19.9999 4 16.4109 4 11.9999C4 7.58888 7.589 3.99988 12 3.99988C16.411 3.99988 20 7.58888 20 11.9999C20 16.4109 16.411 19.9999 12 19.9999Z" fill="#2F4051"/>
</svg>
