<svg width="24" height="24" viewBox="0 0 24 24" fill="none" xmlns="http://www.w3.org/2000/svg">
<path d="M12 7C11.448 7 11 7.448 11 8V13C11 13.553 11.448 14 12 14C12.552 14 13 13.553 13 13V8C13 7.448 12.552 7 12 7Z" fill="#2F4051"/>
<path d="M13 16C13 16.553 12.552 17 12 17C11.448 17 11 16.553 11 16C11 15.447 11.448 15 12 15C12.552 15 13 15.447 13 16Z" fill="#2F4051"/>
<path fill-rule="evenodd" clip-rule="evenodd" d="M12.0002 22C11.7442 22 11.4882 21.902 11.2933 21.707L2.29325 12.707C1.90225 12.316 1.90225 11.684 2.29325 11.293L11.2933 2.29301C11.6842 1.90201 12.3162 1.90201 12.7072 2.29301L21.7073 11.293C22.0983 11.684 22.0983 12.316 21.7073 12.707L12.7072 21.707C12.5122 21.902 12.2562 22 12.0002 22ZM4.41406 12L12.0001 19.586L19.5861 12L12.0001 4.414L4.41406 12Z" fill="#2F4051"/>
</svg>
