<svg width="24" height="24" viewBox="0 0 24 24" fill="none" xmlns="http://www.w3.org/2000/svg">
<path fill-rule="evenodd" clip-rule="evenodd" d="M20.6495 20.0853C20.6951 20.4138 20.4137 20.6948 20.0853 20.6495L9.63201 19.1939C9.22315 19.1369 9.0556 18.6364 9.34751 18.3445L11.2183 16.4737C11.2964 16.3956 11.2964 16.269 11.2183 16.1909L3.3378 8.31035C3.14257 8.11513 3.14265 7.79852 3.3378 7.60325L7.58044 3.36061C7.77571 3.16549 8.09233 3.16539 8.28754 3.36061L16.1681 11.2411C16.2462 11.3192 16.3728 11.3192 16.4509 11.2411L18.3445 9.34754C18.6364 9.05588 19.1367 9.2234 19.1938 9.63204L20.6495 20.0853ZM18.0567 11.8951C18.0339 11.7315 17.834 11.6645 17.7172 11.7813L16.2935 13.205C16.2154 13.2831 16.0887 13.2831 16.0106 13.205L8.10303 5.29742C8.02493 5.21931 7.8983 5.21931 7.82019 5.29742L5.27461 7.843C5.1965 7.92111 5.1965 8.04774 5.27461 8.12584L13.1822 16.0334C13.2603 16.1115 13.2603 16.2382 13.1822 16.3163L11.7806 17.7179C11.6638 17.8347 11.7308 18.0346 11.8944 18.0574L18.7915 19.0179C18.923 19.0362 19.0355 18.9237 19.0171 18.7922L18.0567 11.8951Z" fill="#2F4051"/>
</svg>
