<svg width="24" height="24" viewBox="0 0 24 24" fill="none" xmlns="http://www.w3.org/2000/svg">
<path fill-rule="evenodd" clip-rule="evenodd" d="M6.84766 15.4443L5.26403 19.0729L5.23909 19.0605C5.20168 19.1602 5.10192 19.2226 4.9897 19.2226H2.27134C2.07182 19.2226 1.94713 19.0231 2.02195 18.836L3.58064 15.2573L4.90241 12.2022L6.59827 8.31173L7.85769 5.43127C7.8951 5.33151 7.99485 5.26917 8.10708 5.26917H11.0873C11.1871 5.26917 11.2868 5.33151 11.3367 5.43127L12.5961 8.31173L13.7433 10.9428C13.8306 11.1298 13.6934 11.3294 13.4939 11.3294H10.7756C10.6758 11.3294 10.576 11.267 10.5262 11.1673L9.86528 9.64597C9.76553 9.42152 9.45379 9.42152 9.35403 9.64597L8.40635 11.8281C8.31906 12.0152 8.45623 12.2147 8.65574 12.2147H16.8981C17.6587 12.2147 18.3072 11.7907 18.6314 11.1673C18.6694 11.0911 18.7027 11.0563 18.7309 11.0267C18.8043 10.9499 18.8433 10.909 18.8433 10.2694C18.8433 9.38411 18.2448 8.62347 17.4218 8.39902C17.2597 8.34914 17.0851 8.3242 16.8981 8.3242H13.7308C13.6311 8.3242 13.5313 8.26185 13.4814 8.1621L12.3966 5.66819C12.3093 5.48115 12.4465 5.28164 12.646 5.28164H16.8981C17.5715 5.28164 18.2323 5.4188 18.8433 5.68066C19.4294 5.93005 19.9656 6.29167 20.427 6.75304C20.8884 7.20194 21.25 7.73813 21.4994 8.33667C21.7612 8.96015 21.8984 9.60856 21.8984 10.2819C21.8984 10.9553 21.7612 11.6162 21.4994 12.2272C21.25 12.8132 20.8884 13.3494 20.427 13.8108C20.3272 13.9106 20.2025 14.0228 20.1152 14.0976C20.028 14.1724 19.9905 14.3096 20.0404 14.4218L21.9732 18.8485C22.0605 19.0355 21.9233 19.235 21.7238 19.235H19.0055C18.9057 19.235 18.8059 19.1727 18.7561 19.0729L17.1724 15.4443C17.1226 15.3446 17.0228 15.2822 16.9106 15.2822H7.09705C6.99729 15.2822 6.89753 15.3446 6.84766 15.4443ZM16.0997 16.3422L17.1721 18.7862C17.2594 18.9982 17.1097 19.2351 16.8728 19.2351H14.2542C14.1171 19.2351 14.0048 19.1603 13.9549 19.0481L12.8826 16.6041C12.7953 16.3921 12.9449 16.1552 13.1818 16.1552H15.8004C15.9376 16.1552 16.0498 16.23 16.0997 16.3422Z" fill="#2F4051"/>
</svg>
