<svg width="24" height="24" viewBox="0 0 24 24" fill="none" xmlns="http://www.w3.org/2000/svg">
<path d="M11 3C11 2.44772 11.4477 2 12 2C12.5523 2 13 2.44772 13 3V4C13 4.55228 12.5523 5 12 5C11.4477 5 11 4.55228 11 4V3Z" fill="#2F4051"/>
<path d="M17.6567 4.92891C18.0472 4.53838 18.6804 4.53838 19.0709 4.92891C19.4614 5.31943 19.4614 5.9526 19.0709 6.34312L18.3638 7.05023C17.9732 7.44075 17.3401 7.44075 16.9496 7.05023C16.559 6.6597 16.559 6.02654 16.9496 5.63602L17.6567 4.92891Z" fill="#2F4051"/>
<path d="M7.05022 7.05025C6.65969 7.44077 6.02653 7.44077 5.636 7.05025L4.9289 6.34314C4.53837 5.95262 4.53837 5.31945 4.9289 4.92893C5.31942 4.5384 5.95259 4.5384 6.34311 4.92893L7.05022 5.63603C7.44074 6.02656 7.44074 6.65972 7.05022 7.05025Z" fill="#2F4051"/>
<path fill-rule="evenodd" clip-rule="evenodd" d="M7.7575 7.75736C5.41435 10.1005 5.41435 13.8995 7.7575 16.2426C10.1006 18.5858 13.8996 18.5858 16.2428 16.2426C18.5859 13.8995 18.5859 10.1005 16.2428 7.75736C13.8996 5.41421 10.1006 5.41421 7.7575 7.75736ZM8.9998 8.99999C7.34287 10.6569 7.34287 13.3433 8.9998 15.0003C10.6567 16.6572 13.3431 16.6572 15.0001 15.0003C16.657 13.3433 16.657 10.6569 15.0001 8.99999C13.3431 7.34306 10.6567 7.34306 8.9998 8.99999Z" fill="#2F4051"/>
<path d="M7.05037 16.9498C6.65984 16.5593 6.02668 16.5593 5.63615 16.9498L4.92905 17.6569C4.53852 18.0474 4.53852 18.6806 4.92905 19.0711C5.31957 19.4616 5.95274 19.4616 6.34326 19.0711L7.05037 18.364C7.44089 17.9735 7.44089 17.3403 7.05037 16.9498Z" fill="#2F4051"/>
<path d="M17.657 19.0711C18.0475 19.4616 18.6807 19.4616 19.0712 19.0711C19.4617 18.6806 19.4617 18.0474 19.0712 17.6569L18.3641 16.9498C17.9736 16.5593 17.3404 16.5593 16.9499 16.9498C16.5594 17.3403 16.5594 17.9735 16.9499 18.364L17.657 19.0711Z" fill="#2F4051"/>
<path d="M4 11C4.55228 11 5 11.4477 5 12C5 12.5523 4.55228 13 4 13H3C2.44772 13 2 12.5523 2 12C2 11.4477 2.44772 11 3 11H4Z" fill="#2F4051"/>
<path d="M12 19C11.4477 19 11 19.4477 11 20V21C11 21.5523 11.4477 22 12 22C12.5523 22 13 21.5523 13 21V20C13 19.4477 12.5523 19 12 19Z" fill="#2F4051"/>
<path d="M22 12C22 11.4477 21.5523 11 21 11H20C19.4477 11 19 11.4477 19 12C19 12.5523 19.4477 13 20 13H21C21.5523 13 22 12.5523 22 12Z" fill="#2F4051"/>
</svg>
