<svg width="24" height="24" viewBox="0 0 24 24" fill="none" xmlns="http://www.w3.org/2000/svg">
<path d="M8 11C8 11.552 7.552 12 7 12C6.448 12 6 11.552 6 11C6 10.448 6.448 10 7 10C7.552 10 8 10.448 8 11Z" fill="#2F4051"/>
<path fill-rule="evenodd" clip-rule="evenodd" d="M14 9C11.791 9 10 10.791 10 13C10 15.209 11.791 17 14 17C16.209 17 18 15.209 18 13C18 10.791 16.209 9 14 9ZM14 11C15.103 11 16 11.897 16 13C16 14.103 15.103 15 14 15C12.897 15 12 14.103 12 13C12 11.897 12.897 11 14 11Z" fill="#2F4051"/>
<path fill-rule="evenodd" clip-rule="evenodd" d="M20 6H19L17.594 3.891C17.223 3.334 16.599 3 15.93 3H12.07C11.402 3 10.777 3.334 10.406 3.891L9 6H4C2.896 6 2 6.896 2 8V18C2 19.104 2.896 20 4 20H20C21.104 20 22 19.104 22 18V8C22 6.896 21.104 6 20 6ZM4 8V18H20V8H4Z" fill="#2F4051"/>
</svg>
