<svg width="24" height="24" viewBox="0 0 24 24" fill="none" xmlns="http://www.w3.org/2000/svg">
<path fill-rule="evenodd" clip-rule="evenodd" d="M20.5574 12.9728C17.2774 14.3991 14.8174 16.2806 13.0559 21.2726C12.9952 21.5154 12.4485 21.6064 11.8411 21.6216C11.5912 21.632 11.3341 21.6281 11.1042 21.6247C10.9988 21.6231 10.8992 21.6216 10.8085 21.6216C5.85812 21.3636 1.92516 17.2213 2.00108 12.1837C2.07701 7.22206 6.0859 3.1556 11.0515 3.00387C15.3185 2.88248 18.9781 5.62886 20.2081 9.46772C20.2537 9.61945 20.1626 9.77118 20.0259 9.80153L16.8522 10.545C16.7307 10.5754 16.5941 10.4995 16.5485 10.3781C15.7589 8.26902 13.7241 6.75169 11.3248 6.75169C7.77146 6.75169 4.99257 10.0898 5.94923 13.7921C6.41998 15.5978 7.80183 17.0392 9.5785 17.6006V15.1274C9.5785 14.9453 9.73035 14.7936 9.91257 14.7936H12.737C12.9192 14.7936 13.0711 14.9453 13.0711 15.1274V16.5537C14.9996 14.8391 17.4141 13.4431 20.527 12.8514C20.6181 12.8665 20.6181 12.9272 20.5574 12.9728ZM11.2942 14.0197C12.2754 14.0197 13.0708 13.2249 13.0708 12.2444C13.0708 11.264 12.2754 10.4691 11.2942 10.4691C10.3129 10.4691 9.51749 11.264 9.51749 12.2444C9.51749 13.2249 10.3129 14.0197 11.2942 14.0197ZM21.9997 21.5609V20.3622V20.347H19.312V18.9207H21.7264V17.7372H19.312V16.3868H21.9542V15.1881H18.0516V21.5609H21.9997Z" fill="#2F4051"/>
</svg>
