<svg width="24" height="24" viewBox="0 0 24 24" fill="none" xmlns="http://www.w3.org/2000/svg">
<path fill-rule="evenodd" clip-rule="evenodd" d="M20.2935 12.8309C17.0601 14.237 14.6351 16.0917 12.8987 21.0127C12.8388 21.2521 12.2999 21.3418 11.7011 21.3568C11.4548 21.367 11.2014 21.3632 10.9748 21.3598H10.9748H10.9746C10.8708 21.3582 10.7726 21.3568 10.6832 21.3568C5.80326 21.1025 1.92622 17.0191 2.00107 12.0531C2.07591 7.16202 6.0278 3.15339 10.9227 3.00382C15.1291 2.88415 18.7367 5.59148 19.9492 9.37574C19.9941 9.52532 19.9043 9.67489 19.7696 9.70481L16.641 10.4377C16.5212 10.4676 16.3865 10.3929 16.3416 10.2732C15.5632 8.19409 13.5573 6.69834 11.1922 6.69834C7.68939 6.69834 4.95001 9.989 5.89307 13.6386C6.35712 15.4186 7.71932 16.8396 9.47073 17.393V14.9549C9.47073 14.7754 9.62042 14.6258 9.80005 14.6258H12.5843C12.764 14.6258 12.9137 14.7754 12.9137 14.9549V16.3609C14.8148 14.6707 17.1949 13.2946 20.2636 12.7113C20.3534 12.7262 20.3534 12.7861 20.2935 12.8309ZM11.162 13.863C12.1293 13.863 12.9134 13.0795 12.9134 12.113C12.9134 11.1464 12.1293 10.3629 11.162 10.3629C10.1947 10.3629 9.41058 11.1464 9.41058 12.113C9.41058 13.0795 10.1947 13.863 11.162 13.863ZM17.7485 20.1751H20.2483L20.6525 21.3119H21.9997L19.7843 15.0297H18.2425L16.042 21.3119H17.3742L17.7485 20.1751ZM18.9909 16.4507L19.8591 19.0234H18.1227L18.9909 16.4507Z" fill="#2F4051"/>
</svg>
