<svg width="24" height="24" viewBox="0 0 24 24" fill="none" xmlns="http://www.w3.org/2000/svg">
<path fill-rule="evenodd" clip-rule="evenodd" d="M2 12C2 6.477 6.477 2 12 2C17.522 2 22 6.477 22 12C22 17.522 17.522 22 12 22C6.477 22 2 17.522 2 12ZM12 20C7.589 20 4 16.411 4 12C4 7.589 7.589 4 12 4C12.339 4 12.671 4.028 13 4.069V8H9V16H13V19.931C12.671 19.972 12.339 20 12 20ZM11 14.0001V10.0001H15V4.58911C17.928 5.77911 20 8.65011 20 12.0001C20 15.3501 17.928 18.2221 15 19.4111V14.0001H11Z" fill="#2F4051"/>
</svg>
