<svg width="24" height="24" viewBox="0 0 24 24" fill="none" xmlns="http://www.w3.org/2000/svg">
<path fill-rule="evenodd" clip-rule="evenodd" d="M13.8882 21.6482C15.7823 16.2804 18.4275 14.2572 21.9545 12.7236C22.0198 12.6746 22.0198 12.6093 21.9218 12.593C18.5745 13.2293 15.9783 14.7304 13.9046 16.574V15.0404C13.9046 14.8446 13.7413 14.6814 13.5454 14.6814H10.5083C10.3123 14.6814 10.149 14.8446 10.149 15.0404V17.6998C8.23862 17.0961 6.75273 15.5462 6.24655 13.6046C5.21786 9.62357 8.20596 6.03413 12.0268 6.03413C14.6067 6.03413 16.7947 7.6657 17.6438 9.93357C17.6928 10.0641 17.8397 10.1457 17.9703 10.113L21.383 9.31358C21.5299 9.28095 21.6279 9.11779 21.5789 8.95463C20.2563 4.82677 16.3212 1.87364 11.7329 2.00416C6.3935 2.16732 2.0828 6.53992 2.00116 11.8751C1.91952 17.2919 6.14858 21.7461 11.4716 22.0235C11.5691 22.0235 11.6763 22.0251 11.7896 22.0268C12.0368 22.0305 12.3132 22.0347 12.582 22.0235C13.2351 22.0072 13.8229 21.9093 13.8882 21.6482ZM13.9043 11.9404C13.9043 12.9947 13.049 13.8493 11.9939 13.8493C10.9388 13.8493 10.0834 12.9947 10.0834 11.9404C10.0834 10.8861 10.9388 10.0314 11.9939 10.0314C13.049 10.0314 13.9043 10.8861 13.9043 11.9404Z" fill="#2F4051"/>
</svg>
