<svg width="24" height="24" viewBox="0 0 24 24" fill="none" xmlns="http://www.w3.org/2000/svg">
<path fill-rule="evenodd" clip-rule="evenodd" d="M17.9955 11.9036C17.9977 11.9356 18 11.9675 18 12C18 14.203 16.809 16.124 15.038 17.168L17.006 20.623C14.012 22.386 10.205 22.525 6.994 20.639L8.962 17.168C7.191 16.125 6 14.204 6 12C6 11.9645 6.00237 11.9297 6.00474 11.8948C6.00645 11.8697 6.00816 11.8445 6.009 11.819H2C2 8.045 4.022 4.758 7.019 3L9.127 6.732C9.98 6.266 10.959 6 12 6C13.041 6 14.02 6.266 14.873 6.732L16.981 3C19.978 4.758 22 8.045 22 11.819H17.991C17.9915 11.8475 17.9935 11.8756 17.9955 11.9036ZM13.667 15L15 13.667L13.333 12L15 10.334L13.667 9L12 10.667L10.333 9L9 10.334L10.667 12L9 13.667L10.333 15L12 13.333L13.667 15Z" fill="#2F4051"/>
</svg>
