<svg width="24" height="24" viewBox="0 0 24 24" fill="none" xmlns="http://www.w3.org/2000/svg">
<path d="M16.714 16.714C15.4638 17.9643 13.7681 18.6667 12 18.6667L12 5.33333C13.7681 5.33333 15.4638 6.03571 16.714 7.28595C17.9643 8.5362 18.6667 10.2319 18.6667 12C18.6667 13.7681 17.9643 15.4638 16.714 16.714Z" fill="#2F4051"/>
<path fill-rule="evenodd" clip-rule="evenodd" d="M22 12C22 17.5228 17.5228 22 12 22C6.47715 22 2 17.5228 2 12C2 6.47715 6.47715 2 12 2C17.5228 2 22 6.47715 22 12ZM19.9998 12C19.9998 16.4183 16.4181 20 11.9998 20C7.5815 20 3.99978 16.4183 3.99978 12C3.99978 7.58173 7.5815 4 11.9998 4C16.4181 4 19.9998 7.58173 19.9998 12Z" fill="#2F4051"/>
</svg>
