<svg width="24" height="24" viewBox="0 0 24 24" fill="none" xmlns="http://www.w3.org/2000/svg">
<path fill-rule="evenodd" clip-rule="evenodd" d="M4.928 4.92875C8.834 1.02375 15.166 1.02375 19.071 4.92875C22.976 8.83375 22.976 15.1658 19.071 19.0718C15.166 22.9768 8.834 22.9768 4.928 19.0718C1.024 15.1658 1.024 8.83375 4.928 4.92875ZM17.657 17.6578C20.776 14.5378 20.776 9.46275 17.657 6.34375C14.538 3.22375 9.462 3.22375 6.343 6.34375C3.224 9.46275 3.224 14.5378 6.343 17.6578C9.462 20.7768 14.538 20.7768 17.657 17.6578ZM14.2104 15.688L12 13.4776L9.79056 15.687L9.78361 15.694C9.37558 16.102 8.71404 16.102 8.30602 15.694C7.898 15.286 7.89799 14.6245 8.30601 14.2164L10.5224 12L8.306 9.78363C7.89799 9.3756 7.89802 8.71404 8.30604 8.30602C8.71407 7.89799 9.3756 7.89799 9.78363 8.30602L9.79049 8.31295L12 10.5224L14.2045 8.31789L14.2161 8.30606C14.6242 7.89804 15.2857 7.89804 15.6937 8.30606C16.1017 8.71405 16.1018 9.37552 15.6938 9.78356L13.4776 12L15.6939 14.2164C16.1019 14.6244 16.1019 15.286 15.6939 15.694C15.2859 16.102 14.6243 16.102 14.2163 15.694L14.2104 15.688Z" fill="#2F4051"/>
</svg>
