<svg width="24" height="24" viewBox="0 0 24 24" fill="none" xmlns="http://www.w3.org/2000/svg">
<path d="M11.4088 22C11.3848 22 11.3635 22 11.3475 22H4V2.00146H10.7989V5.71516H7.66709V18.285H11.3994C11.9254 18.3076 16.5805 18.4395 17.205 13.831L21.0865 14.0786C20.6364 17.3969 18.5685 19.8469 15.5752 21.1212C13.6404 21.9454 11.8495 22 11.4074 22H11.4088Z" fill="#2F4051"/>
<path d="M15.3435 7.08662C13.9307 5.71912 12.1917 5.71379 12.1411 5.71379H12.1757L12.1584 2.00276C12.4567 1.98944 15.3275 1.93352 17.8774 4.40088L15.3435 7.08662Z" fill="#2F4051"/>
<path d="M21.0757 12.5687L17.2728 12.3636C17.2781 12.2305 17.2821 12.096 17.2821 11.9575C17.2821 10.361 16.9373 9.05339 16.2568 8.07337L18.888 5.43823C20.0118 7.0574 21.089 9.6233 21.089 12.0001C21.089 12.1932 21.085 12.3836 21.0771 12.5687H21.0757Z" fill="#2F4051"/>
</svg>
