<svg width="24" height="24" viewBox="0 0 24 24" fill="none" xmlns="http://www.w3.org/2000/svg">
<path d="M14.7097 7.36776C15.0235 7.12374 15.4773 7.14593 15.7657 7.43431C16.0781 7.74673 16.0781 8.25327 15.7657 8.56569L12.5657 11.7657L12.4903 11.8322C12.1765 12.0763 11.7227 12.0541 11.4343 11.7657L8.23431 8.56569L8.16776 8.49032C7.92374 8.17649 7.94593 7.7227 8.23431 7.43431L8.30968 7.36776C8.62351 7.12374 9.0773 7.14593 9.36569 7.43431L11 9.06824V4.0007C11 3.44841 11.4477 3 12 3C12.5523 3 13 3.44772 13 4V9.06824L14.6343 7.43431L14.7097 7.36776Z" fill="#2F4051"/>
<path d="M10 16C9.448 16 9 16.447 9 17C9 17.553 9.448 18 10 18C10.552 18 11 17.553 11 17C11 16.447 10.552 16 10 16Z" fill="#2F4051"/>
<path d="M6 17C6 16.447 6.448 16 7 16C7.552 16 8 16.447 8 17C8 17.553 7.552 18 7 18C6.448 18 6 17.553 6 17Z" fill="#2F4051"/>
<path fill-rule="evenodd" clip-rule="evenodd" d="M5 13C3.896 13 3 13.896 3 15V19C3 20.104 3.896 21 5 21H19C20.104 21 21 20.104 21 19V15C21 13.896 20.104 13 19 13H5ZM5 19H19V15H5V19Z" fill="#2F4051"/>
</svg>
