<svg width="24" height="24" viewBox="0 0 24 24" fill="none" xmlns="http://www.w3.org/2000/svg">
<path d="M15.1221 4.59377C14.7277 4.5444 14.4225 4.20784 14.4225 3.8C14.4225 3.35817 14.7807 3 15.2225 3H19.748L19.8483 3.00623C20.2428 3.0556 20.548 3.39216 20.548 3.8V8.32548L20.5417 8.42583C20.4924 8.8203 20.1558 9.12548 19.748 9.12548L19.6476 9.11925C19.2532 9.06988 18.948 8.73332 18.948 8.32548L18.9477 6.01449L10.2979 14.6642L10.2958 14.6621C10.279 14.6818 10.2612 14.701 10.2426 14.7196C9.85208 15.1102 9.21891 15.1102 8.82839 14.7196C8.43787 14.3291 8.43787 13.6959 8.82839 13.3054C8.84702 13.2868 8.86621 13.269 8.88589 13.2522L8.88373 13.25L17.5335 4.60028L15.2225 4.6L15.1221 4.59377Z" fill="#2F4051"/>
<path d="M5 4.40588H12C12.5523 4.40588 13 4.8536 13 5.40588C13 5.95817 12.5523 6.40588 12 6.40588H6C5.44772 6.40588 5 6.8536 5 7.40588V17.4059C5 17.9582 5.44772 18.4059 6 18.4059H17C17.5523 18.4059 18 17.9582 18 17.4059V11.4059C18 10.8536 18.4477 10.4059 19 10.4059C19.5523 10.4059 20 10.8536 20 11.4059V18.4059C20 19.5105 19.1046 20.4059 18 20.4059H5C3.89543 20.4059 3 19.5105 3 18.4059V6.40588C3 5.30131 3.89543 4.40588 5 4.40588Z" fill="#2F4051"/>
</svg>
