<svg width="24" height="24" viewBox="0 0 24 24" fill="none" xmlns="http://www.w3.org/2000/svg">
<path d="M9.29032 6.63224C8.97649 6.87626 8.5227 6.85407 8.23431 6.56569C7.92189 6.25327 7.92189 5.74673 8.23431 5.43431L11.4343 2.23431L11.5097 2.16776C11.8235 1.92374 12.2773 1.94593 12.5657 2.23431L15.7657 5.43431L15.8322 5.50968C16.0763 5.82351 16.0541 6.2773 15.7657 6.56569L15.6903 6.63224C15.3765 6.87626 14.9227 6.85407 14.6343 6.56569L13 4.93176L13 13.9937L13 14C13 14.5523 12.5523 15 12 15C11.4477 15 11 14.5523 11 14L11 4.93176L9.36569 6.56569L9.29032 6.63224Z" fill="#2F4051"/>
<path d="M7 8.00002C5.34315 8.00002 4 9.34316 4 11V18C4 19.6569 5.34315 21 7 21H17C18.6569 21 20 19.6569 20 18V11C20 9.34316 18.6569 8.00002 17 8.00002H15C14.4477 8.00002 14 8.44773 14 9.00002C14 9.5523 14.4477 10 15 10H17C17.5523 10 18 10.4477 18 11V18C18 18.5523 17.5523 19 17 19H7C6.44772 19 6 18.5523 6 18V11C6 10.4477 6.44772 10 7 10H9C9.55228 10 10 9.5523 10 9.00002C10 8.44773 9.55228 8.00002 9 8.00002H7Z" fill="#2F4051"/>
</svg>
