<svg width="24" height="24" viewBox="0 0 24 24" fill="none" xmlns="http://www.w3.org/2000/svg">
<path fill-rule="evenodd" clip-rule="evenodd" d="M12.5549 3H10.2959V6.30523L8.81748 5.45166L3.82027 14.1071C3.82027 14.1071 2.82083 15.8382 4.58378 16.856L11.2861 20.7256C12.9738 21.7 14.0147 19.7663 14.0147 19.7663L18.9138 11.2808L12.5549 7.60949V3ZM10.2959 8.63551V12.0362H12.5549V9.93978L16.2751 12.0876L12.7827 18.1365C12.7827 18.1365 12.2953 19.0083 11.4628 18.5277L6.36502 15.5845C5.4975 15.0836 6.02061 14.2324 6.02061 14.2324L9.51293 8.18347L10.2959 8.63551Z" fill="#2F4051"/>
<path d="M19.2684 12.9536L18.7614 12.0361L18.2508 12.9519C17.4697 14.353 17.0728 15.4683 17.0728 16.3254C17.0728 17.1805 17.8545 17.6931 18.7735 17.6836C19.6826 17.6742 20.4613 17.1582 20.4613 16.3254C20.4613 15.4984 20.0597 14.3855 19.2684 12.9536Z" fill="#2F4051"/>
</svg>
