<svg width="24" height="24" viewBox="0 0 24 24" fill="none" xmlns="http://www.w3.org/2000/svg">
<path fill-rule="evenodd" clip-rule="evenodd" d="M5 3C5.55228 3 6 3.44772 6 4V11.1707C7.16519 11.5825 8 12.6938 8 14C8 15.3062 7.16519 16.4175 6 16.8293V20C6 20.5523 5.55228 21 5 21C4.44772 21 4 20.5523 4 20V16.8293C2.83481 16.4175 2 15.3062 2 14C2 12.6938 2.83481 11.5825 4 11.1707V4C4 3.44772 4.44772 3 5 3ZM6 14C6 14.5523 5.55228 15 5 15C4.44772 15 4 14.5523 4 14C4 13.4477 4.44772 13 5 13C5.55228 13 6 13.4477 6 14Z" fill="#2F4051"/>
<path fill-rule="evenodd" clip-rule="evenodd" d="M13 4C13 3.44772 12.5523 3 12 3C11.4477 3 11 3.44772 11 4V4.17071C9.83481 4.58254 9 5.69378 9 7C9 8.30622 9.83481 9.41746 11 9.82929V20C11 20.5523 11.4477 21 12 21C12.5523 21 13 20.5523 13 20V9.82929C14.1652 9.41746 15 8.30622 15 7C15 5.69378 14.1652 4.58254 13 4.17071V4ZM13 7C13 7.55228 12.5523 8 12 8C11.4477 8 11 7.55228 11 7C11 6.44772 11.4477 6 12 6C12.5523 6 13 6.44772 13 7Z" fill="#2F4051"/>
<path fill-rule="evenodd" clip-rule="evenodd" d="M20 4C20 3.44772 19.5523 3 19 3C18.4477 3 18 3.44772 18 4V13.1707C16.8348 13.5825 16 14.6938 16 16C16 17.3062 16.8348 18.4175 18 18.8293V20C18 20.5523 18.4477 21 19 21C19.5523 21 20 20.5523 20 20V18.8293C21.1652 18.4175 22 17.3062 22 16C22 14.6938 21.1652 13.5825 20 13.1707V4ZM18 16C18 15.4477 18.4477 15 19 15C19.5523 15 20 15.4477 20 16C20 16.5523 19.5523 17 19 17C18.4477 17 18 16.5523 18 16Z" fill="#2F4051"/>
</svg>
