<svg width="24" height="24" viewBox="0 0 24 24" fill="none" xmlns="http://www.w3.org/2000/svg">
<path d="M16 17.7998C16.3311 17.7999 16.5996 18.0686 16.5996 18.4004C16.5994 18.732 16.331 18.9999 16 19C15.6689 19 15.3996 18.732 15.3994 18.4004C15.3994 18.0686 15.6688 17.7998 16 17.7998Z" fill="#2F4051"/>
<path d="M16 13C16.3311 13.0001 16.5996 13.2694 16.5996 13.6006V16.5996C16.5996 16.9314 16.3311 17.2001 16 17.2002C15.6688 17.2002 15.3994 16.9314 15.3994 16.5996V13.6006C15.3994 13.2694 15.6688 13 16 13Z" fill="#2F4051"/>
<path fill-rule="evenodd" clip-rule="evenodd" d="M15.5762 10.1758C15.8107 9.94154 16.1893 9.94154 16.4238 10.1758L21.8242 15.5762C22.0585 15.8107 22.0584 16.1893 21.8242 16.4238L16.4238 21.8242C16.3069 21.9411 16.1535 22 16 22C15.8465 22 15.6931 21.9411 15.5762 21.8242L10.1758 16.4238C9.94157 16.1893 9.94152 15.8107 10.1758 15.5762L15.5762 10.1758ZM11.4482 16L16 20.5518L20.5518 16L16 11.4482L11.4482 16Z" fill="#2F4051"/>
<path d="M12 4H20C21.104 4 22 4.896 22 6V12H20V6H4V18H10V20H4C2.896 20 2 19.104 2 18V2H10L12 4Z" fill="#2F4051"/>
</svg>
