<svg width="24" height="24" viewBox="0 0 24 24" fill="none" xmlns="http://www.w3.org/2000/svg">
<path fill-rule="evenodd" clip-rule="evenodd" d="M18.6117 9.52708C18.648 9.2454 18.6667 8.95822 18.6667 8.66667C18.6667 4.98477 15.6819 2 12 2C8.3181 2 5.33333 4.98477 5.33333 8.66667C5.33333 8.95822 5.35205 9.2454 5.38834 9.52708C3.36538 10.6717 2 12.8431 2 15.3333C2 19.0152 4.98477 22 8.66667 22C9.88096 22 11.0194 21.6754 12 21.1081C12.9806 21.6754 14.119 22 15.3333 22C19.0152 22 22 19.0152 22 15.3333C22 12.8431 20.6346 10.6717 18.6117 9.52708ZM12 15.3333C12.6938 15.3333 13.3628 15.2274 13.9918 15.0307C13.9974 15.1309 14.0002 15.2318 14.0002 15.3333C14.0002 17.0176 13.2195 18.5194 12.0003 19.4968C10.7811 18.5194 10.0004 17.0176 10.0004 15.3333C10.0004 15.2318 10.0032 15.131 10.0088 15.0309C10.6376 15.2274 11.3064 15.3333 12 15.3333ZM10.2528 13.7072C10.8002 13.8969 11.3881 14 12.0001 14C12.6122 14 13.2002 13.8969 13.7477 13.7071C13.4247 12.6971 12.809 11.8181 12.0003 11.1698C11.1916 11.8181 10.5758 12.6972 10.2528 13.7072ZM10.8011 10.4442C10.0185 11.17 9.41044 12.0814 9.04695 13.1085C8.05115 12.4451 7.29111 11.4558 6.91921 10.2929C7.46673 10.1031 8.05477 10 8.66688 10C9.42575 10 10.1476 10.1585 10.8011 10.4442ZM12 9.55855C11.0194 8.99131 9.88096 8.66667 8.66667 8.66667C7.97299 8.66667 7.30405 8.77261 6.67516 8.96921C6.66956 8.86907 6.66672 8.7682 6.66672 8.66666C6.66672 5.72114 9.05454 3.33333 12.0001 3.33333C14.9456 3.33333 17.3334 5.72114 17.3334 8.66666C17.3334 8.76821 17.3305 8.86909 17.3249 8.96924C16.696 8.77263 16.0271 8.66667 15.3333 8.66667C14.119 8.66667 12.9806 8.99131 12 9.55855ZM17.0809 10.2928C16.5335 10.1031 15.9457 10 15.3337 10C14.5747 10 13.8527 10.1586 13.1991 10.4444C13.9816 11.1702 14.5896 12.0815 14.9531 13.1085C15.949 12.4451 16.7091 11.4557 17.0809 10.2928ZM18.2865 10.8913C19.7215 11.8471 20.667 13.4798 20.667 15.3333C20.667 18.2789 18.2792 20.6667 15.3337 20.6667C14.5747 20.6667 13.8527 20.5081 13.1991 20.2223C14.5118 19.0048 15.3333 17.265 15.3333 15.3333C15.3333 15.0418 15.3146 14.7546 15.2783 14.4729C16.6676 13.6868 17.7467 12.4165 18.2865 10.8913ZM10.8011 20.2225C10.1476 20.5082 9.42575 20.6667 8.66688 20.6667C5.72136 20.6667 3.33355 18.2789 3.33355 15.3333C3.33355 13.48 4.27887 11.8475 5.71364 10.8916C6.25344 12.4167 7.33252 13.6869 8.72168 14.4729C8.68538 14.7546 8.66667 15.0418 8.66667 15.3333C8.66667 17.2651 9.48828 19.0049 10.8011 20.2225Z" fill="#2F4051"/>
</svg>
