<svg width="24" height="24" viewBox="0 0 24 24" fill="none" xmlns="http://www.w3.org/2000/svg">
<path d="M11.6942 8.123C11.6942 7.753 11.7932 7.474 11.9902 7.284C12.1882 7.095 12.4762 7 12.8542 7C13.2182 7 13.5002 7.097 13.7002 7.29C13.9002 7.484 14.0002 7.762 14.0002 8.123C14.0002 8.471 13.8992 8.745 13.6972 8.945C13.4952 9.146 13.2142 9.246 12.8542 9.246C12.4852 9.246 12.1992 9.148 11.9972 8.952C11.7952 8.756 11.6942 8.48 11.6942 8.123Z" fill="#2F4051"/>
<path d="M12.434 15.3018C12.099 15.3018 12.099 15.1848 12.099 15.0718C12.099 15.0128 12.117 14.8358 12.24 14.3088L13.179 10.3248H11.09L10.083 14.7088C10.028 14.9358 10 15.1688 10 15.4048C10 15.9058 10.164 16.3018 10.489 16.5808C10.812 16.8588 11.088 16.9998 11.674 16.9998C12.049 16.9998 12.454 16.9478 12.878 16.8468L13.043 16.8068L13.448 15.0508L12.972 15.2198C12.818 15.2748 12.636 15.3018 12.434 15.3018Z" fill="#2F4051"/>
<path fill-rule="evenodd" clip-rule="evenodd" d="M12 2C6.477 2 2 6.477 2 12C2 17.522 6.477 22 12 22C17.522 22 22 17.522 22 12C22 6.477 17.522 2 12 2ZM12 4C16.411 4 20 7.589 20 12C20 16.411 16.411 20 12 20C7.589 20 4 16.411 4 12C4 7.589 7.589 4 12 4Z" fill="#2F4051"/>
</svg>
