<svg width="24" height="24" viewBox="0 0 24 24" fill="none" xmlns="http://www.w3.org/2000/svg">
<path d="M8.60331 13.9505C8.91826 13.9505 9.1478 13.6978 9.1478 13.3681C9.1478 13.033 8.91826 12.7857 8.60331 12.7857H7.94671V13.9505H8.60331Z" fill="#2F4051"/>
<path fill-rule="evenodd" clip-rule="evenodd" d="M16.5855 2.58557C16.2105 2.21057 15.7025 1.99957 15.1715 1.99957H5.99951C4.89551 1.99957 3.99951 2.89557 3.99951 3.99957V9.99957H1.99951V17.9996H3.99951V19.9996C3.99951 21.1046 4.89551 21.9996 5.99951 21.9996H17.9995C19.1045 21.9996 19.9995 21.1046 19.9995 19.9996V6.82857C19.9995 6.29757 19.7885 5.78957 19.4135 5.41357L16.5855 2.58557ZM17.9995 19.9996H5.99951V17.9996H15.9995V9.99957H5.99951V3.99957H13.9995V7.99957H17.9995V19.9996ZM12.1637 16C13.2366 16 14 15.2637 14 14.1538V13.8571H12.1263V14.5275H13.258C13.1299 14.967 12.7562 15.2582 12.169 15.2582C11.3896 15.2582 10.8932 14.7198 10.8932 14.0055C10.8932 13.2747 11.4056 12.7363 12.1156 12.7363C12.5694 12.7363 12.9484 12.9615 13.1192 13.2692L13.7491 12.8956C13.4342 12.3681 12.8309 12 12.121 12C11.0053 12 10.1618 12.8901 10.1618 14.0055C10.1618 15.1044 10.9946 16 12.1637 16ZM5.23312 16C4.66193 16 4.22954 15.7473 4 15.2692L4.63524 14.8956C4.75268 15.1374 4.92351 15.2582 5.23312 15.2582C5.63882 15.2582 5.81498 15.0385 5.81498 14.7253V12.0769H6.54631V14.7253C6.54631 15.5549 5.96979 16 5.23312 16ZM8.60331 12.0769C9.32396 12.0769 9.87913 12.6484 9.87913 13.3681C9.87913 14.0879 9.32396 14.6593 8.60331 14.6593H7.94671V15.9231H7.21004V12.0769H8.60331Z" fill="#2F4051"/>
</svg>
