<svg width="24" height="24" viewBox="0 0 24 24" fill="none" xmlns="http://www.w3.org/2000/svg">
<path d="M18.9312 18.6031H10.0625C9.68745 18.6092 9.35622 18.5476 9.08747 18.4184C8.77497 18.2769 8.49997 18.0738 8.29997 17.8215C8.08745 17.5631 7.93746 17.2492 7.86872 16.9353C7.81871 16.6892 7.82496 16.4184 7.82496 16.1354V3.9569C7.82496 3.59381 8.13121 3.29228 8.49998 3.29228C8.87496 3.29228 9.18121 3.58765 9.18121 3.9569V4.46765L9.18746 16.1908C9.18746 16.2338 9.19372 16.2769 9.19997 16.32C9.27497 16.6892 9.54372 17.0153 9.87499 17.163C10.0375 17.2369 10.2187 17.2677 10.4062 17.2677H18.0875C18.325 17.7661 18.8437 18.1108 19.4437 18.1108C20.275 18.1108 20.95 17.4461 20.95 16.6277C20.95 15.8031 20.275 15.1446 19.4437 15.1446C18.85 15.1446 18.3312 15.4831 18.0875 15.9815H10.5L10.4875 4.46766V3.95692C10.4875 2.87999 9.59374 2 8.49999 2C7.40624 2 6.51875 2.87999 6.51875 3.95692V16.1169C6.51249 16.4615 6.50624 16.8123 6.58749 17.1938C6.69373 17.7108 6.93124 18.2092 7.27498 18.6277C7.60625 19.0338 8.04376 19.3661 8.53749 19.5877C8.98126 19.7969 9.50624 19.8954 10.0688 19.8892H18.9312C19.3062 19.8892 19.6063 20.1908 19.6063 20.5538C19.6063 20.9231 19.3062 21.2246 18.9312 21.2246H10.3C10.1 21.2246 9.93123 21.2246 9.7625 21.2123C9.08123 21.1877 8.41248 21.0215 7.83123 20.7323C7.21249 20.4307 6.66874 20.0061 6.25622 19.5077C5.82497 18.9846 5.50625 18.3692 5.33123 17.7415C5.23747 17.3661 5.18749 17.0338 5.17498 16.7138C5.15621 16.4861 5.16247 16.2031 5.16247 16V4.81844C5.6625 4.57847 6.0125 4.07385 6.0125 3.48307C6.0125 2.6646 5.33749 2.00001 4.50623 2.00001C3.67498 2.00001 3 2.6646 3 3.48307C3 4.07998 3.35 4.5846 3.85625 4.81844V15.9877C3.84999 16.2154 3.84999 16.5231 3.86872 16.7754C3.88124 17.1692 3.94376 17.5877 4.06247 18.0677C4.28751 18.88 4.69999 19.6615 5.24373 20.32C5.76875 20.96 6.46249 21.5015 7.24999 21.8831C7.98749 22.2523 8.84374 22.4677 9.69998 22.4985C9.84997 22.5108 10.0062 22.5107 10.1812 22.5107H18.9312C20.025 22.5107 20.9187 21.6369 20.9187 20.5538C20.9187 19.4769 20.025 18.6031 18.9312 18.6031ZM19.4437 15.9815C19.8062 15.9815 20.1 16.2708 20.1 16.6277C20.1 16.9784 19.8062 17.2677 19.4437 17.2677C19.0812 17.2677 18.7875 16.9784 18.7875 16.6277C18.7875 16.2708 19.0812 15.9815 19.4437 15.9815ZM4.50622 4.12919C4.14371 4.12919 3.84997 3.83998 3.84997 3.48305C3.84997 3.13227 4.14371 2.84306 4.50622 2.84306C4.86873 2.84306 5.16246 3.13227 5.16246 3.48305C5.16246 3.83998 4.86873 4.12919 4.50622 4.12919Z" fill="#2F4051"/>
</svg>
