<svg width="24" height="24" viewBox="0 0 24 24" fill="none" xmlns="http://www.w3.org/2000/svg">
<path d="M15.4102 16.5146C16.2489 15.6762 17.6095 15.6761 18.4482 16.5146C18.5792 16.6457 18.6863 16.7919 18.7764 16.9443L18.0664 17.6543C18.0194 17.4778 17.9284 17.3103 17.79 17.1719C17.3706 16.7528 16.6908 16.7535 16.2715 17.1729L14.1758 19.2686C13.7571 19.6879 13.7569 20.3669 14.1758 20.7861C14.595 21.2052 15.2749 21.2058 15.6943 20.7871L16.9814 19.5C17.3572 19.7218 17.7856 19.8187 18.208 19.792L16.5557 21.4443C15.7169 22.2822 14.3571 22.2825 13.5186 21.4443C12.6801 20.6057 12.6804 19.2451 13.5186 18.4062L15.4102 16.5146Z" fill="#2F4051"/>
<path d="M14.5859 2C14.8509 2 15.105 2.10499 15.293 2.29297L17 4H18C19.104 4 20 4.896 20 6V12H18V6H6V20H12V22H6C4.896 22 4 21.104 4 20V6C4 4.896 4.896 4 6 4H7L8.70703 2.29297C8.89503 2.10499 9.14908 2 9.41406 2H14.5859Z" fill="#2F4051"/>
<path d="M18.4443 13.4805C19.283 12.6426 20.6418 12.6426 21.4805 13.4805C22.3192 14.3192 22.3199 15.6797 21.4814 16.5186L19.5898 18.4102C18.751 19.2486 17.3905 19.2488 16.5518 18.4102C16.4207 18.2791 16.3137 18.133 16.2236 17.9805L16.9326 17.2705C16.9796 17.4472 17.0715 17.6144 17.21 17.7529C17.6293 18.172 18.3092 18.1721 18.7285 17.7529L20.8242 15.6572C21.2433 15.2379 21.2433 14.558 20.8242 14.1387C20.4049 13.7195 19.725 13.7195 19.3057 14.1387L18.0186 15.4258C17.6426 15.2038 17.2146 15.1061 16.792 15.1328L18.4443 13.4805Z" fill="#2F4051"/>
<path d="M12 16H8V14H12V16Z" fill="#2F4051"/>
<path d="M16 12H8V10H16V12Z" fill="#2F4051"/>
</svg>
