<svg width="24" height="24" viewBox="0 0 24 24" fill="none" xmlns="http://www.w3.org/2000/svg">
<path d="M12 2C12.5523 2 13 2.44772 13 3V5C13 5.55228 12.5523 6 12 6C11.4477 6 11 5.55228 11 5V3C11 2.44772 11.4477 2 12 2Z" fill="#2F4051"/>
<path fill-rule="evenodd" clip-rule="evenodd" d="M14.7645 15.9968V17C14.7645 18.1045 13.8691 19 12.7645 19H11.1175C10.0129 19 9.11749 18.1045 9.11749 17V15.9966C7.83747 15.1037 7 13.6202 7 11.9412C7 9.21224 9.21224 7 11.9412 7C14.6701 7 16.8824 9.21224 16.8824 11.9412C16.8824 13.6204 16.0447 15.1039 14.7645 15.9968ZM12.7645 14.9533L13.6204 14.3564C14.3873 13.8215 14.8824 12.939 14.8824 11.9412C14.8824 10.3168 13.5655 9 11.9412 9C10.3168 9 9 10.3168 9 11.9412C9 12.9389 9.49495 13.8213 10.2617 14.3563L11.1175 14.9532V17L12.7645 17V14.9533Z" fill="#2F4051"/>
<path d="M10 21C10 20.4477 10.4477 20 11 20H13C13.5523 20 14 20.4477 14 21C14 21.5523 13.5523 22 13 22H11C10.4477 22 10 21.5523 10 21Z" fill="#2F4051"/>
<path d="M3 11C2.44772 11 2 11.4477 2 12C2 12.5523 2.44772 13 3 13H5C5.55228 13 6 12.5523 6 12C6 11.4477 5.55228 11 5 11H3Z" fill="#2F4051"/>
<path d="M19 11C18.4477 11 18 11.4477 18 12C18 12.5523 18.4477 13 19 13H21C21.5523 13 22 12.5523 22 12C22 11.4477 21.5523 11 21 11H19Z" fill="#2F4051"/>
<path d="M16.586 7.4142C16.1955 7.02367 16.1955 6.39051 16.586 5.99999L18.0002 4.58577C18.3908 4.19525 19.0239 4.19525 19.4144 4.58577C19.805 4.9763 19.805 5.60946 19.4144 5.99998L18.0002 7.4142C17.6097 7.80472 16.9765 7.80472 16.586 7.4142Z" fill="#2F4051"/>
<path d="M5.99959 4.58577C5.60906 4.19524 4.9759 4.19524 4.58537 4.58577C4.19485 4.97629 4.19485 5.60946 4.58537 5.99998L5.99959 7.4142C6.39011 7.80472 7.02328 7.80472 7.4138 7.4142C7.80433 7.02367 7.80433 6.39051 7.4138 5.99998L5.99959 4.58577Z" fill="#2F4051"/>
</svg>
