<svg width="24" height="24" viewBox="0 0 24 24" fill="none" xmlns="http://www.w3.org/2000/svg">
<path d="M7.6304 4.25907L8.40686 7.15684C8.5498 7.69031 9.09814 8.00689 9.6316 7.86395C10.1651 7.72101 10.4817 7.17267 10.3387 6.63921L9.56225 3.74143C9.41931 3.20796 8.87098 2.89138 8.33751 3.03432C7.80404 3.17726 7.48746 3.7256 7.6304 4.25907Z" fill="#2F4051"/>
<path d="M19.6775 4.82843C18.1155 3.26633 15.5828 3.26633 14.0207 4.82843L10.9418 7.90729C11.7278 7.85829 12.5254 8.04021 13.2245 8.45307L15.6234 6.0541C16.4045 5.27305 17.6708 5.27305 18.4519 6.0541C19.2329 6.83515 19.2329 8.10148 18.4519 8.88253L14.5392 12.7952C13.7582 13.5762 12.4918 13.5762 11.7108 12.7952C11.4532 12.5376 11.2806 12.2272 11.1929 11.8989L9.86716 13.2246C10.035 13.5088 10.241 13.7767 10.4852 14.0208C12.0473 15.5829 14.5799 15.5829 16.142 14.0208L19.6775 10.4853C21.2396 8.92318 21.2396 6.39052 19.6775 4.82843Z" fill="#2F4051"/>
<path d="M4.82831 19.6777C6.3904 21.2398 8.92306 21.2398 10.4852 19.6777L13.564 16.5988C12.7781 16.6478 11.9804 16.4659 11.2814 16.053L8.88241 18.452C8.10136 19.233 6.83503 19.233 6.05398 18.452C5.27293 17.6709 5.27293 16.4046 6.05398 15.6236L9.96664 11.7109C10.7477 10.9299 12.014 10.9299 12.7951 11.7109C13.0527 11.9685 13.2253 12.2789 13.313 12.6072L14.6387 11.2815C14.4709 10.9973 14.2649 10.7294 14.0207 10.4853C12.4586 8.92318 9.92594 8.92318 8.36384 10.4853L4.82831 14.0208C3.26621 15.5829 3.26621 18.1156 4.82831 19.6777Z" fill="#2F4051"/>
<path d="M17.4013 14.7017L20.2991 15.4781C20.8326 15.6211 21.1492 16.1694 21.0062 16.7029C20.8633 17.2363 20.3149 17.5529 19.7815 17.41L16.8837 16.6335C16.3502 16.4906 16.0336 15.9422 16.1766 15.4088C16.3195 14.8753 16.8679 14.5587 17.4013 14.7017Z" fill="#2F4051"/>
<path d="M3.74143 9.56235L6.63921 10.3388C7.17267 10.4817 7.72101 10.1652 7.86395 9.6317C8.00689 9.09823 7.69031 8.54989 7.15684 8.40695L4.25907 7.6305C3.7256 7.48755 3.17726 7.80414 3.03432 8.3376C2.89138 8.87107 3.20796 9.41941 3.74143 9.56235Z" fill="#2F4051"/>
<path d="M15.6337 17.8836L16.4101 20.7814C16.5531 21.3149 16.2365 21.8632 15.703 22.0062C15.1696 22.1491 14.6212 21.8325 14.4783 21.2991L13.7018 18.4013C13.5589 17.8678 13.8755 17.3195 14.4089 17.1765C14.9424 17.0336 15.4907 17.3502 15.6337 17.8836Z" fill="#2F4051"/>
</svg>
