<svg width="24" height="24" viewBox="0 0 24 24" fill="none" xmlns="http://www.w3.org/2000/svg">
<path fill-rule="evenodd" clip-rule="evenodd" d="M13.5809 10.0609C13.8369 9.73566 13.9855 9.33286 13.9855 8.90871C13.9855 7.89313 13.1336 7 11.9956 7C10.8576 7 10.0057 7.89313 10.0057 8.90871C10.0057 9.33338 10.1546 9.73664 10.4112 10.0621L10.7684 10.412C11.1015 10.664 11.524 10.8174 11.9956 10.8174C12.4667 10.8174 12.8887 10.6644 13.2216 10.413L13.5809 10.0609ZM9.46568 11.9351L9.44376 11.9136C9.25669 11.761 9.08409 11.5919 8.92829 11.4086L5.8256 8.36907C5.43108 7.98259 4.79144 7.98259 4.39692 8.36907L4.31195 8.45231C3.91743 8.8388 3.91743 9.46542 4.31195 9.85191L7.29372 12.773L7.29557 12.7704L8.92167 14.3634V17L15.2242 17V14.2011L16.7795 12.6775C17.0576 13.021 17.2242 13.4586 17.2242 13.9351V17C17.2242 18.1046 16.3288 19 15.2242 19H8.92167C7.8171 19 6.92167 18.1046 6.92167 17V15.2077L2.88327 11.2515C1.69972 10.092 1.69972 8.21218 2.88327 7.05271L2.96824 6.96948C4.15179 5.81001 6.07072 5.81001 7.25428 6.96948L8.15362 7.85051C8.62464 6.20592 10.1664 5 11.9956 5C13.8248 5 15.3664 6.20582 15.8375 7.8503L16.7366 6.96951C17.9202 5.81005 19.8391 5.81005 21.0226 6.96951L21.1076 7.05275C22.2912 8.21222 22.2912 10.0921 21.1076 11.2515L17.2249 15.0552L17.2242 13.9351C17.2242 13.4623 17.0609 13.0278 16.7866 12.6854L19.6789 9.85195C20.0734 9.46546 20.0734 8.83884 19.6789 8.45235L19.594 8.36911C19.1994 7.98262 18.5598 7.98262 18.1653 8.36911L15.0643 11.407C14.9077 11.5914 14.734 11.7615 14.5458 11.9149L14.5252 11.9351H14.541L12.5979 13.8387C12.5665 13.8694 12.5375 13.9016 12.5108 13.9351H11.4874C11.467 13.9111 11.4453 13.8879 11.4224 13.8654L9.45192 11.9351H9.46568Z" fill="#2F4051"/>
</svg>
