<svg width="24" height="24" viewBox="0 0 24 24" fill="none" xmlns="http://www.w3.org/2000/svg">
<path d="M14.5861 2C14.8511 2.00002 15.1052 2.10499 15.2932 2.29297L16.9997 4H18C19.104 4.00003 19.9998 4.89602 19.9998 6V10H18V6H5.99973V20H13.0002V22H5.99973C4.89585 21.9999 4 21.1039 4 20V6C4 4.89609 4.89585 4.00015 5.99973 4H7.00008L8.70657 2.29297C8.89449 2.10504 9.14879 2.00008 9.41368 2H14.5861Z" fill="#2F4051"/>
<path d="M13.0002 16H8.00043V14H13.0002V16Z" fill="#2F4051"/>
<path d="M13.9996 12H8.00043V10H13.9996V12Z" fill="#2F4051"/>
<path fill-rule="evenodd" clip-rule="evenodd" d="M18.9998 11C20.1044 11 20.9995 11.8954 20.9995 13V15H21.9999V22H14V15H15.0004V13C15.0004 11.8954 15.8955 11 17.0001 11H18.9998ZM17.5003 13C17.2438 13 17.0319 13.3219 17.003 13.7363L17.0001 13.833V15H18.9998V13.833C18.9997 13.4059 18.807 13.0541 18.5585 13.0059L18.4996 13H17.5003Z" fill="#2F4051"/>
</svg>
