<svg width="24" height="24" viewBox="0 0 24 24" fill="none" xmlns="http://www.w3.org/2000/svg">
<path fill-rule="evenodd" clip-rule="evenodd" d="M9 1.99747C9 1.99567 8.99841 1.99428 8.99662 1.99454L2.85858 2.8714C2.36593 2.94178 2 3.3637 2 3.86135V20.841C2 21.4496 2.53899 21.9171 3.14142 21.831L8.99662 20.9945C8.99841 20.9943 9 20.9957 9 20.9975C9 20.9989 9.00105 21.0001 9.00247 21.0004L15 22L21.1423 21.1173C21.6345 21.0466 22 20.6248 22 20.1275V3.14706C22 2.53852 21.461 2.07105 20.8586 2.15711L15.0025 2.9937C15.0011 2.9939 15 2.99512 15 2.99656C15 2.99835 14.9984 2.9997 14.9966 2.99941L9.00247 2.00038C9.00105 2.00015 9 1.99891 9 1.99747ZM8 5.21806C8 4.58759 7.42367 4.11443 6.80527 4.2372L4.80527 4.63426C4.33719 4.72718 4 5.1379 4 5.61511V18.7761C4 19.4066 4.57633 19.8797 5.19473 19.7569L7.19473 19.3599C7.66281 19.267 8 18.8562 8 18.379V5.21806ZM20 5.42847C20 4.82637 19.4718 4.3608 18.8745 4.43637L16.8745 4.6894C16.3747 4.75263 16 5.17774 16 5.68149V18.8656C16 19.4676 16.5282 19.9332 17.1255 19.8576L19.1255 19.6046C19.6253 19.5414 20 19.1163 20 18.6125V5.42847ZM10 18.3803C10 18.857 10.3365 19.2674 10.8039 19.3609L12.8039 19.7608C13.4227 19.8845 14 19.4112 14 18.7802V5.61981C14 5.14311 13.6635 4.73269 13.1961 4.63922L11.1961 4.23931C10.5773 4.11558 10 4.58886 10 5.21989V18.3803Z" fill="#2F4051"/>
</svg>
