<svg width="24" height="24" viewBox="0 0 24 24" fill="none" xmlns="http://www.w3.org/2000/svg">
<path d="M10 8C10 6.896 10.896 6 12 6C13.104 6 14 6.896 14 8C14 9.104 13.104 10 12 10C10.896 10 10 9.104 10 8Z" fill="#2F4051"/>
<path fill-rule="evenodd" clip-rule="evenodd" d="M12 2C8.687 2 6 4.687 6 8C6 8.81 6.163 9.582 6.454 10.286L6.452 10.287C6.97227 11.6352 10.6159 20.293 11.0478 21.3193L11.078 21.391L11.0788 21.3924L11.08 21.396C11.085 21.408 11.09 21.418 11.09 21.418L11.094 21.416C11.252 21.762 11.596 22.004 12 22.004C12.404 22.004 12.748 21.762 12.906 21.416L12.91 21.418C12.91 21.418 12.915 21.408 12.92 21.396L12.9212 21.3924L12.922 21.391L12.9528 21.3178C13.3875 20.2849 17.028 11.6346 17.549 10.287L17.547 10.286C17.837 9.582 18 8.81 18 8C18 4.687 15.313 2 12 2ZM12 4C14.206 4 16 5.794 16 8C16 8.525 15.898 9.037 15.697 9.523L14.936 11.377L14.943 11.38C14.219 13.132 13.098 15.813 12 18.424C10.902 15.81 9.78 13.131 9.057 11.38L9.067 11.376L8.302 9.523C8.102 9.037 8 8.525 8 8C8 5.794 9.794 4 12 4Z" fill="#2F4051"/>
</svg>
