<svg width="24" height="24" viewBox="0 0 24 24" fill="none" xmlns="http://www.w3.org/2000/svg">
<path d="M3 19.5651V3.53855C3 3.09551 3.5059 2.84256 3.85974 3.10867L11.3606 8.73063C11.5521 8.87392 11.8168 8.87392 12.0083 8.72917L19.3995 3.11891C19.7533 2.84987 20.2621 3.10283 20.2621 3.54732V7.62525C20.2621 7.79193 20.1846 7.94985 20.053 8.05073L11.9966 14.259C11.8124 14.4008 11.5565 14.4082 11.3635 14.2766L8.28128 12.1608C7.92451 11.9152 7.43908 12.1711 7.43908 12.6039V16.8075C7.43908 16.9684 7.36744 17.1219 7.24169 17.2228L3.87875 19.9804C3.52784 20.2684 3 20.0184 3 19.5651Z" fill="#2F4051"/>
<path d="M16.0833 13.4592L13.6196 15.2723C13.3374 15.4799 13.3257 15.8981 13.5962 16.1203L19.3819 20.8767C19.7328 21.1647 20.2607 20.9162 20.2607 20.4614V16.5327C20.2607 16.3689 20.1861 16.2139 20.0574 16.1116L16.7354 13.4709C16.5453 13.3203 16.2778 13.3145 16.0818 13.4592H16.0833Z" fill="#2F4051"/>
</svg>
