<svg width="24" height="24" viewBox="0 0 24 24" fill="none" xmlns="http://www.w3.org/2000/svg">
<path fill-rule="evenodd" clip-rule="evenodd" d="M10.7891 2.38286C11.5111 1.89585 12.4694 1.88809 13.1754 2.36355L21.057 7.67128C21.5603 8.01022 21.8348 8.51432 21.885 9.03884C21.9595 9.2483 22 9.47382 22 9.70881V18.0002C22 19.1047 21.1046 20.0002 20 20.0002H4C2.89543 20.0002 2 19.1047 2 18.0002V9.70881C2 9.51075 2.02879 9.31942 2.08241 9.13876C2.12487 8.57916 2.41956 8.02843 2.96604 7.65981L10.7891 2.38286ZM4 11.5166V17.1092C4 17.6614 4.44772 18.1092 5 18.1092H19C19.5523 18.1092 20 17.6614 20 17.1092V11.4772L13.1367 15.8469C12.4354 16.2934 11.5282 16.3002 10.8421 15.8642L4 11.5166ZM11.6605 4.34854C12.0227 4.11581 12.4948 4.11917 12.8412 4.35696L19.99 9.26492L12.5824 14.0036C12.2306 14.2286 11.7745 14.2319 11.4306 14.0118L4.00999 9.26492L11.6605 4.34854Z" fill="#2F4051"/>
</svg>
