<svg width="24" height="24" viewBox="0 0 24 24" fill="none" xmlns="http://www.w3.org/2000/svg">
<path d="M15.9998 11H7.99976C7.44747 11 6.99976 11.4477 6.99976 12C6.99976 12.5523 7.44747 13 7.99976 13H15.9998C16.552 13 16.9998 12.5523 16.9998 12C16.9998 11.4477 16.552 11 15.9998 11Z" fill="#2F4051"/>
<path fill-rule="evenodd" clip-rule="evenodd" d="M19.071 4.92875C15.166 1.02375 8.834 1.02375 4.928 4.92875C1.024 8.83375 1.024 15.1658 4.928 19.0718C8.834 22.9768 15.166 22.9768 19.071 19.0718C22.976 15.1658 22.976 8.83375 19.071 4.92875ZM17.657 6.34375C20.776 9.46275 20.776 14.5378 17.657 17.6578C14.538 20.7768 9.462 20.7768 6.343 17.6578C3.224 14.5378 3.224 9.46275 6.343 6.34375C9.462 3.22375 14.538 3.22375 17.657 6.34375Z" fill="#2F4051"/>
</svg>
