<svg width="24" height="24" viewBox="0 0 24 24" fill="none" xmlns="http://www.w3.org/2000/svg">
<path d="M2 3C2 2.44772 2.44772 2 3 2H5C5.55228 2 6 2.44772 6 3V5C6 5.55228 5.55228 6 5 6H3C2.44772 6 2 5.55228 2 5V3Z" fill="#2F4051"/>
<path d="M8 4.99999H20V2.99899H8V4.99999Z" fill="#2F4051"/>
<path d="M20 12H8V10H20V12Z" fill="#2F4051"/>
<path fill-rule="evenodd" clip-rule="evenodd" d="M3 9C2.44772 9 2 9.44772 2 10V12C2 12.5523 2.44772 13 3 13H5C5.55228 13 6 12.5523 6 12V10C6 9.44772 5.55228 9 5 9H3ZM5 10H3V12H5V10Z" fill="#2F4051"/>
<path d="M13 19H8V17H13V19Z" fill="#2F4051"/>
<path fill-rule="evenodd" clip-rule="evenodd" d="M3 16C2.44772 16 2 16.4477 2 17V19C2 19.5523 2.44772 20 3 20H5C5.55228 20 6 19.5523 6 19V17C6 16.4477 5.55228 16 5 16H3ZM5 17H3V19H5V17Z" fill="#2F4051"/>
<path d="M20 17H23V19H20V22H18V19H15V17H18V14H20V17Z" fill="#2F4051"/>
</svg>
