<svg width="24" height="24" viewBox="0 0 24 24" fill="none" xmlns="http://www.w3.org/2000/svg">
<path d="M2 12C2 6.47715 6.47715 2 12 2V4H14V6H12V8H14V10H12V12H14V14H12V16H14V18H12V20H14V22H12C6.47715 22 2 17.5228 2 12Z" fill="#2F4051"/>
<path d="M16 20H14V18H16V20Z" fill="#2F4051"/>
<path d="M18 20H16V21.1679C16.714 20.856 17.3845 20.4623 18 20Z" fill="#2F4051"/>
<path d="M18 16H20V18.001L18 18V16Z" fill="#2F4051"/>
<path d="M18 12V14H20V12H18Z" fill="#2F4051"/>
<path d="M18 8H20V10H18V8Z" fill="#2F4051"/>
<path fill-rule="evenodd" clip-rule="evenodd" d="M18 18V20C18.7569 19.4314 19.4314 18.7578 20 18.001L20.0007 18C20.463 17.3845 20.8559 16.714 21.1679 16H20V14H21.8C21.9309 13.3552 21.9997 12.6878 22 12.0044V12H20V10H21.8C21.6588 9.30439 21.4454 8.635 21.1679 8H20V6H18V4H16V2.83209C15.365 2.55464 14.6956 2.34124 14 2.20004V4H16V6H14V8H16V10H14V12H16V14H14V16H16V18H18ZM18 14H16V16H18V14ZM18 10V12H16V10H18ZM18 8H16V6H18V8Z" fill="#2F4051"/>
</svg>
