<svg width="24" height="24" viewBox="0 0 24 24" fill="none" xmlns="http://www.w3.org/2000/svg">
<path d="M5 16H7V18H5V16Z" fill="#2F4051"/>
<path d="M14 16H16V18H14V16Z" fill="#2F4051"/>
<path d="M17 16H19V18H17V16Z" fill="#2F4051"/>
<path d="M8 16H10V18H8V16Z" fill="#2F4051"/>
<path d="M5 6H7V8H5V6Z" fill="#2F4051"/>
<path d="M14 6H16V8H14V6Z" fill="#2F4051"/>
<path d="M17 6H19V8H17V6Z" fill="#2F4051"/>
<path d="M8 6H10V8H8V6Z" fill="#2F4051"/>
<path d="M11 6H13V8H11V6Z" fill="#2F4051"/>
<path d="M5 11H7V13H5V11Z" fill="#2F4051"/>
<path d="M14 11H16V13H14V11Z" fill="#2F4051"/>
<path d="M17 11H19V13H17V11Z" fill="#2F4051"/>
<path d="M8 11H10V13H8V11Z" fill="#2F4051"/>
<path d="M11 11H13V13H11V11Z" fill="#2F4051"/>
<path d="M11 16H13V20H11V16Z" fill="#2F4051"/>
<path fill-rule="evenodd" clip-rule="evenodd" d="M4 4V20H20V4H4ZM3 2C2.44772 2 2 2.44772 2 3V21C2 21.5523 2.44772 22 3 22H21C21.5523 22 22 21.5523 22 21V3C22 2.44772 21.5523 2 21 2H3Z" fill="#2F4051"/>
</svg>
