<svg width="24" height="24" viewBox="0 0 24 24" fill="none" xmlns="http://www.w3.org/2000/svg">
<path d="M8 6C8 3.79086 9.79086 2 12 2C14.2091 2 16 3.79086 16 6V18C16 20.2091 14.2091 22 12 22C9.79086 22 8 20.2091 8 18C8 17.4477 8.44772 17 9 17C9.55228 17 10 17.4477 10 18C10 19.1046 10.8954 20 12 20C13.1046 20 14 19.1046 14 18L14 6C14 4.89543 13.1046 4 12 4C10.8954 4 10 4.89543 10 6V14.5C10 14.7761 10.2239 15 10.5 15C10.7761 15 11 14.7761 11 14.5V7C11 6.44772 11.4477 6 12 6C12.5523 6 13 6.44772 13 7V14.5C13 15.8807 11.8807 17 10.5 17C9.11929 17 8 15.8807 8 14.5V6Z" fill="#2F4051"/>
</svg>
