<svg width="24" height="24" viewBox="0 0 24 24" fill="none" xmlns="http://www.w3.org/2000/svg">
<path fill-rule="evenodd" clip-rule="evenodd" d="M19.0715 4.92875C15.1665 1.02375 8.83449 1.02375 4.92849 4.92875C1.02449 8.83375 1.02449 15.1658 4.92849 19.0718C8.83449 22.9768 15.1665 22.9768 19.0715 19.0718C22.9765 15.1658 22.9765 8.83375 19.0715 4.92875ZM17.6575 6.34375C20.7765 9.46275 20.7765 14.5378 17.6575 17.6578C14.5385 20.7768 9.46249 20.7768 6.34349 17.6578C3.22449 14.5378 3.22449 9.46275 6.34349 6.34375C9.46249 3.22375 14.5385 3.22375 17.6575 6.34375ZM13.0002 8V11H16.0002C16.5525 11 17.0002 11.4477 17.0002 12C17.0002 12.5523 16.5525 13 16.0002 13H13.0002V16C13.0002 16.5522 12.5525 17 12.0002 17C11.448 17 11.0002 16.5522 11.0002 16V13H8.00024C7.44796 13 7.00024 12.5523 7.00024 12C7.00024 11.4477 7.44796 11 8.00024 11H11.0002V8C11.0002 7.44775 11.448 7 12.0002 7C12.5525 7 13.0002 7.44775 13.0002 8Z" fill="#2F4051"/>
</svg>
