<svg width="24" height="24" viewBox="0 0 24 24" fill="none" xmlns="http://www.w3.org/2000/svg">
<path d="M5.33867 13.9505C5.64128 13.9505 5.86183 13.6978 5.86183 13.3681C5.86183 13.033 5.64128 12.7857 5.33867 12.7857H4.7078V13.9505H5.33867Z" fill="#2F4051"/>
<path fill-rule="evenodd" clip-rule="evenodd" d="M16.5855 2.58557C16.2105 2.21057 15.7025 1.99957 15.1715 1.99957H5.99951C4.89551 1.99957 3.99951 2.89557 3.99951 3.99957V9.99957H1.99951V17.9996H3.99951V19.9996C3.99951 21.1046 4.89551 21.9996 5.99951 21.9996H17.9995C19.1045 21.9996 19.9995 21.1046 19.9995 19.9996V6.82857C19.9995 6.29757 19.7885 5.78957 19.4135 5.41357L16.5855 2.58557ZM17.9995 19.9996H5.99951V17.9996H15.9995V9.99957H5.99951V3.99957H13.9995V7.99957H17.9995V19.9996ZM12.2356 16C13.2666 16 14 15.2637 14 14.1538V13.8571H12.1997V14.5275H13.2871C13.164 14.967 12.8049 15.2582 12.2408 15.2582C11.4919 15.2582 11.0149 14.7198 11.0149 14.0055C11.0149 13.2747 11.5073 12.7363 12.1895 12.7363C12.6254 12.7363 12.9896 12.9615 13.1537 13.2692L13.7589 12.8956C13.4563 12.3681 12.8767 12 12.1946 12C11.1226 12 10.3122 12.8901 10.3122 14.0055C10.3122 15.1044 11.1124 16 12.2356 16ZM5.33867 12.0769C6.03109 12.0769 6.5645 12.6484 6.5645 13.3681C6.5645 14.0879 6.03109 14.6593 5.33867 14.6593H4.7078V15.9231H4V12.0769H5.33867ZM9.10256 12.0769H9.81036V15.9231H9.27182L7.73312 13.5714V15.9231H7.02531V12.0769H7.56386L9.10256 14.4231V12.0769Z" fill="#2F4051"/>
</svg>
