<svg width="24" height="24" viewBox="0 0 24 24" fill="none" xmlns="http://www.w3.org/2000/svg">
<path d="M5.60123 13.9486C5.9632 13.9486 6.22701 13.6857 6.22701 13.3429C6.22701 12.9943 5.9632 12.7371 5.60123 12.7371H4.84663V13.9486H5.60123Z" fill="#2F4051"/>
<path d="M9.21993 13.9486C9.58189 13.9486 9.8457 13.6857 9.8457 13.3429C9.8457 12.9943 9.58189 12.7371 9.21993 12.7371H8.46532V13.9486H9.21993Z" fill="#2F4051"/>
<path fill-rule="evenodd" clip-rule="evenodd" d="M16.5855 2.58557C16.2105 2.21057 15.7025 1.99957 15.1715 1.99957H5.99951C4.89551 1.99957 3.99951 2.89557 3.99951 3.99957V9.99957H1.99951V17.9996H3.99951V19.9996C3.99951 21.1046 4.89551 21.9996 5.99951 21.9996H17.9995C19.1045 21.9996 19.9995 21.1046 19.9995 19.9996V6.82857C19.9995 6.29757 19.7885 5.78957 19.4135 5.41357L16.5855 2.58557ZM17.9995 19.9996H5.99951V17.9996H15.9995V9.99957H5.99951V3.99957H13.9995V7.99957H17.9995V19.9996ZM5.60123 12C6.42946 12 7.0675 12.5943 7.0675 13.3429C7.0675 14.0914 6.42946 14.6857 5.60123 14.6857H4.84663V16H4V12H5.60123ZM9.21993 12C10.0482 12 10.6862 12.5943 10.6862 13.3429C10.6862 14.0914 10.0482 14.6857 9.21993 14.6857H8.46532V16H7.61869V12H9.21993ZM14 12.7543V12H10.8405V12.7543H11.9939V16H12.8405V12.7543H14Z" fill="#2F4051"/>
</svg>
