<svg width="24" height="24" viewBox="0 0 24 24" fill="none" xmlns="http://www.w3.org/2000/svg">
<path d="M11.5095 8.1748C11.8233 7.92079 12.2774 7.94387 12.5658 8.24414L15.7659 11.5771L15.8326 11.6562C16.0762 11.9831 16.054 12.4556 15.7659 12.7559L15.6904 12.8252C15.3767 13.0791 14.9225 13.0559 14.6342 12.7559L13.0002 11.0547V17L12.9953 17.1025C12.944 17.6065 12.5174 17.9998 11.9999 18C11.4478 17.9998 11.0006 17.5521 11.0005 17V11.0537L9.36562 12.7559L9.29109 12.8252C8.97737 13.0792 8.5232 13.0559 8.23483 12.7559C7.92245 12.4305 7.92251 11.9026 8.23483 11.5771L11.435 8.24414L11.5095 8.1748Z" fill="#2F4051"/>
<path fill-rule="evenodd" clip-rule="evenodd" d="M14.5861 2C14.8511 2.00002 15.1052 2.10499 15.2932 2.29297L16.9997 4H18C19.104 4.00003 19.9998 4.89602 19.9998 6V20C19.9998 21.104 19.104 22 18 22H5.99973C4.89585 21.9999 4 21.1039 4 20V6C4 4.89609 4.89585 4.00015 5.99973 4H7.00008L8.70657 2.29297C8.89449 2.10504 9.14879 2.00008 9.41368 2H14.5861ZM5.99973 20H18V6H5.99973V20Z" fill="#2F4051"/>
</svg>
