<svg width="24" height="24" viewBox="0 0 24 24" fill="none" xmlns="http://www.w3.org/2000/svg">
<path fill-rule="evenodd" clip-rule="evenodd" d="M16.5925 22L10.5465 15.954C10.908 16.0307 11.3461 16.0964 11.7623 16.0964C14.7086 16.0964 17.1511 13.6429 17.1511 10.7076C17.1511 7.77218 14.6977 5.38444 11.7623 5.38444C8.82694 5.38444 6.37349 7.83789 6.37349 10.7733C6.37349 11.2114 6.45016 11.6385 6.51588 11.989L3.20811 8.68127C4.1391 4.79299 7.58926 2 11.7623 2C16.6473 2 20.5356 5.95399 20.5356 10.7733C20.5356 13.5663 19.1774 16.0964 17.0854 17.7503L19.5389 20.2037L16.5925 22ZM12.1347 19.5684H11.7733C6.88828 19.5684 3 15.6145 3 10.7952V10.4337L12.1347 19.5684ZM9.06802 13.8291C9.13374 13.9058 9.22136 13.9386 9.30899 13.9386C9.38566 13.9386 9.46233 13.9167 9.52804 13.862C9.67043 13.7305 9.67043 13.5334 9.539 13.391L9.47328 13.3253L9.44042 13.2924C8.3999 12.1862 8.13703 10.4666 8.7942 9.09746C8.9804 8.7141 9.23232 8.36361 9.52804 8.05693C9.60471 7.98026 9.63757 7.89264 9.63757 7.80501C9.63757 7.71739 9.60472 7.64072 9.539 7.575C9.40756 7.45452 9.21041 7.45452 9.07898 7.58596C8.4218 8.24313 8.01655 9.03174 7.85225 9.92988L7.84344 9.97796C7.82465 10.08 7.80697 10.1761 7.79749 10.2804C7.79201 10.3077 7.78927 10.3351 7.78654 10.3625L7.78653 10.3625C7.7838 10.3899 7.78106 10.4173 7.77558 10.4447V10.9923L7.78653 11.0252C7.79749 11.0252 7.79749 11.0361 7.79749 11.0471C7.8413 11.6385 7.99464 12.219 8.27941 12.7557C8.48752 13.15 8.75039 13.5115 9.06802 13.8291ZM13.9861 13.851C14.0518 13.9058 14.1285 13.9386 14.2051 13.9386C14.3037 13.9386 14.4023 13.8948 14.4899 13.8072C15.3004 12.9638 15.7276 11.9452 15.7495 10.7952C15.7495 9.80941 15.4976 8.98794 15.0047 8.25409C14.8791 8.07615 14.7335 7.90822 14.5965 7.75028L14.5965 7.75027L14.5775 7.72835C14.5556 7.70645 14.5365 7.6818 14.5173 7.65716C14.4981 7.63252 14.479 7.60787 14.457 7.58597C14.3694 7.47644 14.238 7.44358 14.0956 7.49834C13.9751 7.54216 13.8984 7.64073 13.8875 7.78312C13.8765 7.92551 13.9532 8.01313 14.0299 8.0898L14.0408 8.10075C14.9609 9.10842 15.2785 10.2913 14.9718 11.6276C14.8294 12.2629 14.5009 12.8543 14.008 13.3581C13.9313 13.4458 13.8875 13.5334 13.8875 13.632C13.8875 13.7086 13.9204 13.7853 13.9861 13.851ZM11.7513 11.6057H11.7622C12.2442 11.6057 12.6494 11.2114 12.6604 10.7185C12.6604 10.4775 12.5728 10.2585 12.4085 10.0832C12.2332 9.90798 12.0142 9.8094 11.7732 9.8094C11.2803 9.8094 10.8751 10.2037 10.8641 10.6966C10.8641 10.9376 10.9517 11.1566 11.116 11.3319C11.2913 11.5071 11.5103 11.6057 11.7513 11.6057ZM10.0649 12.6572C10.1306 12.7229 10.2182 12.7557 10.3058 12.7557C10.3825 12.7557 10.4592 12.7338 10.5139 12.6681C10.6454 12.5586 10.6563 12.3614 10.5468 12.219C10.5249 12.1862 10.503 12.1643 10.4811 12.1424C10.4701 12.1314 10.4619 12.1205 10.4537 12.1095C10.4455 12.0986 10.4373 12.0876 10.4263 12.0767C9.94437 11.4852 9.80198 10.8061 10.021 10.0723C10.1087 9.77655 10.2839 9.50272 10.5358 9.2289C10.6015 9.15223 10.6344 9.06461 10.6344 8.97699C10.6344 8.88936 10.5906 8.81269 10.5249 8.74697C10.3825 8.62649 10.1853 8.63744 10.0539 8.77983C9.53911 9.31652 9.27625 9.96275 9.26529 10.7514V10.828C9.26529 10.9047 9.27624 10.9923 9.2872 11.0799C9.37482 11.6824 9.62674 12.219 10.0649 12.6572ZM13.0113 12.6681C13.066 12.7229 13.1427 12.7557 13.2194 12.7557C13.307 12.7557 13.3946 12.7229 13.4822 12.6243C13.997 12.0876 14.2599 11.4414 14.2599 10.6966V10.6309V10.4666V10.4666C14.2599 10.4337 14.2599 10.3899 14.2489 10.357V10.3242C14.1723 9.73273 13.9094 9.207 13.4822 8.76888C13.3508 8.62649 13.1536 8.62649 13.0222 8.74697C12.8908 8.86746 12.8798 9.06461 13.0003 9.207C13.0113 9.2289 13.0332 9.25081 13.0551 9.27271C13.066 9.29462 13.0879 9.31652 13.1098 9.33843C13.5918 9.92989 13.7341 10.609 13.5151 11.3428C13.4275 11.6385 13.2522 11.9124 13.0003 12.1862C12.9346 12.2629 12.9017 12.3505 12.9017 12.4381C12.9017 12.5257 12.9455 12.6024 13.0113 12.6681Z" fill="#2F4051"/>
</svg>
