<svg width="24" height="24" viewBox="0 0 24 24" fill="none" xmlns="http://www.w3.org/2000/svg">
<path fill-rule="evenodd" clip-rule="evenodd" d="M16.5926 22L10.5466 15.954C10.908 16.0307 11.3461 16.0964 11.7623 16.0964C14.7087 16.0964 17.1512 13.6429 17.1512 10.7076C17.1512 7.77218 14.6977 5.38445 11.7623 5.38445C8.82695 5.38445 6.37349 7.8379 6.37349 10.7733C6.37349 11.2114 6.45016 11.6386 6.51588 11.989L3.20811 8.68127C4.1391 4.79299 7.58927 2 11.7623 2C16.6473 2 20.5356 5.954 20.5356 10.7733C20.5356 13.5663 19.1774 16.0964 17.0854 17.7503L19.5389 20.2037L16.5926 22ZM12.1347 19.5685H11.7733C6.88828 19.5685 3 15.6145 3 10.7952V10.4337L12.1347 19.5685ZM14.5665 8.63746C14.5665 8.56079 14.5446 8.52793 14.457 8.51698L14.4569 8.51697C14.205 8.47316 13.9531 8.42935 13.7012 8.37459C13.055 8.2322 12.4307 8.01314 11.8392 7.73932C11.8064 7.72837 11.7516 7.71741 11.7187 7.73932C10.8863 8.12267 10.021 8.38554 9.11195 8.51698C9.00242 8.53888 8.98051 8.54983 8.98051 8.67032V10.6747C8.98051 10.8171 8.99146 10.9595 9.00241 11.1018L9.00242 11.1019C9.09004 11.8248 9.40767 12.4162 9.95532 12.8872C10.1306 13.0405 10.3168 13.161 10.5139 13.2705C10.5139 13.2103 10.5167 13.1473 10.5194 13.0843C10.5221 13.0214 10.5249 12.9584 10.5249 12.8981C10.5303 12.6462 10.5386 12.397 10.5468 12.1478C10.555 11.8987 10.5632 11.6495 10.5687 11.3976V11.3757C10.545 11.3689 10.5214 11.3632 10.4981 11.3576L10.498 11.3576L10.498 11.3576C10.4457 11.3449 10.3951 11.3327 10.3496 11.31C10.2291 11.2552 10.1634 11.1457 10.1634 11.0142V10.2804V9.38225C10.1634 9.27273 10.2291 9.22891 10.3277 9.25082C10.3825 9.26177 10.4044 9.29463 10.4153 9.3494V9.43702V10.4118C10.4153 10.5542 10.503 10.6418 10.6454 10.609C10.722 10.598 10.7768 10.5433 10.7877 10.4666V10.3899V9.38225C10.7877 9.27273 10.8535 9.22891 10.952 9.25082C10.9958 9.26177 11.0177 9.29463 11.0287 9.33844V9.41511V10.4118C11.0287 10.5542 11.1273 10.6418 11.2697 10.609C11.3463 10.598 11.4011 10.5323 11.4121 10.4447V10.2147V9.38225C11.4121 9.27273 11.4778 9.21796 11.5763 9.25082C11.6202 9.26177 11.6421 9.29463 11.653 9.33844V9.41511C11.653 9.58265 11.6518 9.75139 11.6506 9.92054V9.92056V9.92063C11.6482 10.2601 11.6457 10.6013 11.653 10.9376C11.653 11.2223 11.4559 11.3757 11.2478 11.3538H11.2259V11.3866C11.2368 11.6768 11.245 11.9669 11.2532 12.2571L11.2532 12.2574C11.2615 12.5476 11.2697 12.8379 11.2806 13.1281C11.2806 13.2048 11.2834 13.2787 11.2861 13.3527L11.2861 13.3528C11.2888 13.4267 11.2916 13.5006 11.2916 13.5772C11.4011 13.6101 11.5216 13.6429 11.6311 13.6648C11.6859 13.6758 11.7516 13.6867 11.8064 13.6867C12.0583 13.6429 12.2992 13.5663 12.5402 13.4786C12.5457 13.3636 12.5484 13.2459 12.5512 13.1281C12.5539 13.0104 12.5566 12.8927 12.5621 12.7777V12.7338C12.4307 12.7229 12.3211 12.6791 12.2445 12.5696C12.2007 12.5038 12.1678 12.4381 12.1788 12.3614L12.1952 12.06L12.2116 11.759C12.2335 11.4195 12.2554 11.08 12.2883 10.7295L12.2883 10.7294C12.3102 10.4227 12.3321 10.1161 12.354 9.82037C12.3869 9.50274 12.6935 9.23987 13.0112 9.25082C13.2083 9.26177 13.3617 9.40416 13.3726 9.60131V9.65608V13.0405C14.1503 12.4819 14.5555 11.7043 14.5665 10.7076V9.83132V8.63746ZM11.5763 14.7601C11.642 14.782 11.7077 14.793 11.7844 14.793C11.8063 14.793 11.8392 14.793 11.872 14.7711C12.5292 14.6506 13.1426 14.4206 13.6902 14.0811C14.9279 13.3034 15.5632 12.1752 15.5741 10.7295V9.96276V8.08982C15.5741 7.88171 15.4646 7.76123 15.2565 7.71742C15.2072 7.70646 15.1579 7.69825 15.1086 7.69003C15.0593 7.68182 15.01 7.6736 14.9608 7.66265C14.8838 7.64727 14.8056 7.63324 14.7269 7.61913C14.5815 7.59306 14.4348 7.56675 14.2926 7.53122C13.4712 7.33407 12.6826 7.0712 11.9487 6.73166C11.8501 6.68784 11.7187 6.68784 11.6201 6.73166C10.5686 7.21358 9.4624 7.54217 8.33425 7.70646C8.08233 7.75028 7.98376 7.8598 7.98376 8.12267V8.75794V10.6966C7.98376 10.8938 7.99471 11.0909 8.01662 11.2662C8.12615 12.241 8.56426 13.0515 9.32001 13.6867C9.94433 14.2125 10.6782 14.563 11.5763 14.7601ZM8.42187 8.75794V8.14458C9.57193 7.96933 10.7001 7.64075 11.7735 7.13691C12.5402 7.48741 13.3507 7.76123 14.1941 7.95838C14.3474 7.99489 14.5007 8.02166 14.6541 8.04844C14.7307 8.06182 14.8074 8.07521 14.8841 8.08982C14.9279 8.09529 14.969 8.10351 15.01 8.11172C15.0511 8.11994 15.0922 8.12815 15.136 8.13363V9.96276V10.7295C15.136 12.0329 14.5884 13.0077 13.4602 13.7087C12.9564 14.0153 12.3978 14.2344 11.7954 14.3439C11.7735 14.3439 11.7077 14.333 11.6639 14.322C10.8425 14.1468 10.1634 13.8182 9.60479 13.3472C8.93666 12.7886 8.55331 12.0657 8.45473 11.2114C8.43283 11.0471 8.42187 10.8828 8.42187 10.6966V8.75794Z" fill="#2F4051"/>
</svg>
