<svg width="24" height="24" viewBox="0 0 24 24" fill="none" xmlns="http://www.w3.org/2000/svg">
<path fill-rule="evenodd" clip-rule="evenodd" d="M20.8946 16.9335H10.7206C8.53019 16.4626 6.86182 14.4463 6.86182 12.0205C6.86182 9.25691 9.02149 7.00512 11.6827 7.00512C14.3439 7.00512 16.5036 9.24667 16.5036 12.0205C16.5036 12.9314 16.2682 13.7707 15.8587 14.5077C15.7257 14.7431 15.869 15.0194 16.1351 15.0194H20.6182C20.7717 15.0194 20.8946 14.9273 20.9355 14.7738C21.1812 13.9038 21.2937 12.9724 21.2937 12.0205C21.2937 6.47288 16.9744 2 11.652 2C6.32958 2 2 6.48311 2 12.0205C2 17.2098 5.81781 21.4882 10.6694 22H20.8843L20.8946 16.9335ZM8.14125 14.2313V12.1228C8.21289 12.0102 8.27431 11.9898 8.39713 12.0716C8.49949 12.1433 8.61207 12.1638 8.74514 12.1638H10.8843H10.9662V12.5629C10.9662 12.6755 11.0276 12.7267 11.13 12.7267H11.9386C12.0409 12.7267 12.0921 12.6755 12.0921 12.5732V12.2354V12.1638H12.174H14.303C14.436 12.1638 14.5588 12.133 14.6714 12.0512C14.7226 12.0102 14.7738 12 14.8352 12.0307C14.8864 12.0614 14.9069 12.1126 14.9069 12.1638V14.1392C14.9069 14.3541 14.8045 14.5179 14.6203 14.6203C14.5179 14.6817 14.4053 14.6919 14.2927 14.6919H8.7349H8.66325C8.42784 14.6817 8.22313 14.5281 8.15148 14.2927C8.16172 14.2825 8.15148 14.2518 8.14125 14.2313ZM8.14125 10.3828V11.4063C8.15148 11.437 8.16171 11.4575 8.17194 11.478L8.17195 11.478C8.2436 11.7032 8.44831 11.8772 8.68372 11.8772H10.9457C10.9457 11.8772 10.956 11.8669 10.9662 11.8669V11.7441C10.9662 11.6417 11.0174 11.5906 11.1198 11.5906H11.9386C12.0512 11.5906 12.1024 11.652 12.1024 11.7543V11.8772H12.174H14.3234C14.6817 11.8772 14.9273 11.6417 14.9273 11.2835V10.4954C14.9171 10.1474 14.6817 9.90172 14.3337 9.90172H13.0338H12.9417V9.7789C12.9417 9.67655 12.9417 9.56396 12.9212 9.47184C12.8598 9.22619 12.6448 9.05219 12.3992 9.05219C12.2043 9.05219 12.0106 9.05104 11.8173 9.0499C11.4317 9.04763 11.0477 9.04537 10.6592 9.05219C10.3521 9.06242 10.1269 9.30807 10.1167 9.62537V9.90172H10.0348H8.76561C8.42784 9.90172 8.23336 10.0553 8.15148 10.3726L8.14125 10.3828ZM12.3787 9.90172H10.6899V9.62537H12.3787V9.90172Z" fill="#2F4051"/>
</svg>
