<svg width="24" height="24" viewBox="0 0 24 24" fill="none" xmlns="http://www.w3.org/2000/svg">
<path fill-rule="evenodd" clip-rule="evenodd" d="M12 9C14.2088 9 16 10.7908 16 13C16 15.2088 14.2088 17 12 17C9.7908 17 8 15.2088 8 13C8 10.7908 9.7908 9 12 9ZM10.041 15.5244C10.583 15.9456 11.2616 16.2002 12 16.2002C13.7644 16.2002 15.2002 14.7644 15.2002 13C15.2002 12.2616 14.9456 11.583 14.5244 11.041L10.041 15.5244ZM12 9.7998C10.2356 9.7998 8.7998 11.2356 8.7998 13C8.7998 13.7384 9.05399 14.4174 9.47559 14.959L13.959 10.4756C13.4174 10.054 12.7384 9.7998 12 9.7998Z" fill="#2F4051"/>
<path fill-rule="evenodd" clip-rule="evenodd" d="M15.3691 2.00977C15.8269 2.0552 16.2577 2.25775 16.5859 2.58594L19.4141 5.41406C19.789 5.78906 20 6.29813 20 6.8291V20C20 21.104 19.104 22 18 22H6C4.896 22 4 21.104 4 20V4C4 2.896 4.896 2 6 2H15.1719L15.3691 2.00977ZM6 20H18V8H14V4H6V20Z" fill="#2F4051"/>
</svg>
