<svg width="24" height="24" viewBox="0 0 24 24" fill="none" xmlns="http://www.w3.org/2000/svg">
<path fill-rule="evenodd" clip-rule="evenodd" d="M11.5045 10.5045C13.4399 8.56918 16.578 8.5691 18.5134 10.5045C20.2786 12.2698 20.4325 15.035 18.9774 16.9762L22.5185 20.5172L22.6089 20.6284C22.7902 20.9032 22.7603 21.2766 22.5185 21.5185C22.2766 21.7603 21.9032 21.7902 21.6284 21.6089L21.5172 21.5185L17.9768 17.9781C16.0357 19.4333 13.2699 19.2787 11.5045 17.5134C9.56906 15.578 9.56906 12.4399 11.5045 10.5045ZM12.5057 11.5057C11.1233 12.8882 11.1233 15.1297 12.5057 16.5121C13.8882 17.8944 16.1297 17.8945 17.5121 16.5121C18.8944 15.1297 18.8944 12.8881 17.5121 11.5057C16.1297 10.1234 13.8882 10.1234 12.5057 11.5057Z" fill="#2F4051"/>
<path d="M15.1719 2C15.7018 2 16.2109 2.21098 16.5859 2.58594L19.4141 5.41406C19.789 5.78906 20 6.29813 20 6.8291V10.6826C19.488 9.91253 18.8027 9.26813 18 8.80371V8H14V4H6V20H18V22H6C4.896 22 4 21.104 4 20V4C4 2.896 4.896 2 6 2H15.1719Z" fill="#2F4051"/>
<path d="M9.08496 15C9.20548 15.7181 9.45312 16.3925 9.80469 17H8V15H9.08496Z" fill="#2F4051"/>
<path d="M9.80469 11C9.45312 11.6075 9.20548 12.2819 9.08496 13H8V11H9.80469Z" fill="#2F4051"/>
</svg>
