<svg width="24" height="24" viewBox="0 0 24 24" fill="none" xmlns="http://www.w3.org/2000/svg">
<path d="M16.7598 7.37659C16.7513 7.38548 16.7427 7.39427 16.734 7.40297L10.293 14.124C9.91088 14.5228 9.27785 14.5362 8.87912 14.1541L7.43516 12.7703C7.03643 12.3881 7.02297 11.7551 7.4051 11.3564L13.8462 4.6354L13.8528 4.64169C13.8611 4.63269 13.8695 4.62374 13.8781 4.61485C14.6407 3.81908 15.904 3.79222 16.6998 4.55486C17.4956 5.31749 17.5224 6.58082 16.7598 7.37659Z" fill="#2F4051"/>
<path d="M6.8035 16.3201L5.35955 14.9363C4.96081 14.5542 4.94736 13.9211 5.32949 13.5224C5.71163 13.1237 6.34465 13.1102 6.74338 13.4923L8.18734 14.8762C8.58608 15.2583 8.59953 15.8913 8.2174 16.2901C7.83526 16.6888 7.20224 16.7023 6.8035 16.3201Z" fill="#2F4051"/>
<path d="M4.8716 19.3945C4.5492 19.6698 4.05203 19.4441 4.04697 19.0203L4.01273 16.1555C4.00767 15.7316 4.49929 15.4941 4.82818 15.7616L6.56415 17.1734C6.8064 17.3704 6.8108 17.7388 6.57333 17.9416L4.8716 19.3945Z" fill="#2F4051"/>
<path fill-rule="evenodd" clip-rule="evenodd" d="M16.0331 12.168C13.8239 12.168 12.0331 13.9588 12.0331 16.168C12.0331 18.3768 13.8239 20.168 16.0331 20.168C18.2419 20.168 20.0331 18.3768 20.0331 16.168C20.0331 13.9588 18.2419 12.168 16.0331 12.168ZM16.0331 19.368C15.2947 19.368 14.6163 19.114 14.0743 18.6928L18.5579 14.2092C18.9791 14.7512 19.2331 15.4296 19.2331 16.168C19.2331 17.8221 17.9714 19.1872 16.3598 19.3514C16.2524 19.3624 16.1434 19.368 16.0331 19.368ZM13.5083 18.1268C13.0867 17.5852 12.8331 16.9064 12.8331 16.168C12.8331 14.4036 14.2687 12.968 16.0331 12.968C16.7715 12.968 17.4503 13.2216 17.9919 13.6432L13.5083 18.1268Z" fill="#2F4051"/>
</svg>
