<svg width="24" height="24" viewBox="0 0 24 24" fill="none" xmlns="http://www.w3.org/2000/svg">
<path fill-rule="evenodd" clip-rule="evenodd" d="M18.7318 9.8028V9.85547L18.7316 9.85547H17.4049L17.3919 9.85547V3.35303L7.776 3.35303V7.97699L7.76301 7.97699L6.33101 7.97699L6.31802 7.97699V7.76681V3.07717C6.31802 2.35468 6.6727 2 7.3952 2H7.40818H17.7071H17.7201C18.4164 2 18.7448 2.32841 18.7448 3.02463V9.61902C18.7345 9.68028 18.7323 9.74154 18.7318 9.8028ZM20.8401 18.4007C20.8336 18.4433 20.827 18.486 20.8204 18.5254L20.8203 18.5249L20.8203 18.5254C20.749 18.0672 20.6765 17.6091 20.6039 17.1507L20.6038 17.15L20.6038 17.1499L20.6038 17.1499L20.6038 17.1499C20.2082 14.6513 19.8115 12.1455 19.6117 9.59274H20.6626H21.1487L21.1488 9.59274H21.162C21.177 9.59349 21.1918 9.59457 21.2066 9.59598C21.2906 9.6033 21.3704 9.62184 21.4447 9.65003C21.816 9.78772 22.0533 10.1527 21.9896 10.578C21.8189 11.733 21.6483 12.9011 21.4777 14.0692L21.4772 14.0722C21.3721 14.775 21.2703 15.4745 21.1685 16.174C21.0667 16.8735 20.9649 17.573 20.8598 18.2758C20.8533 18.3152 20.8467 18.3579 20.8401 18.4007ZM12.5313 4.82429L12.5315 4.82429H12.5315L15.2636 4.82429C15.473 4.82429 15.6429 4.89342 15.7672 5.01957C15.8522 5.10094 15.9171 5.20781 15.96 5.3366C16.052 5.6256 15.96 5.95401 15.7104 6.12478C15.5922 6.20359 15.4346 6.26928 15.2901 6.26928H9.79913C9.59892 6.26928 9.42412 6.1899 9.29813 6.06237C9.15987 5.92968 9.07644 5.74073 9.07644 5.53365C9.07644 5.13956 9.37857 4.82429 9.7858 4.81115C10.2472 4.81115 10.7086 4.81446 11.1684 4.81776H11.1684H11.1684H11.1684H11.1684C11.6249 4.82103 12.0797 4.82429 12.5313 4.82429ZM10.4034 8.88339L10.3912 8.86944C10.0422 8.50141 9.65675 8.21697 9.17952 8.08244C9.16284 8.07777 9.14606 8.07327 9.12918 8.06894C9.19486 7.70113 9.45758 7.47781 9.83854 7.46467H12.006H15.2244C15.4945 7.46467 15.7068 7.56112 15.8447 7.77056C15.8721 7.80907 15.8975 7.85157 15.9208 7.89817C16.0522 8.16089 16.0127 8.42362 15.842 8.66007C15.7106 8.84398 15.5136 8.93593 15.2771 8.93593H10.5612C10.5087 8.93593 10.443 8.93593 10.4167 8.89652L10.4092 8.88852C10.4083 8.88779 10.4074 8.88705 10.4065 8.8863C10.4054 8.88535 10.4044 8.88438 10.4034 8.88339ZM19.5199 22.151H4.36068C3.80896 21.9802 3.49369 21.6255 3.40174 21.0344C3.25346 19.9965 3.09127 18.9631 2.92895 17.929L2.92894 17.9289C2.81803 17.2223 2.70707 16.5153 2.60043 15.8062C2.50193 15.1627 2.40344 14.5225 2.30495 13.8823L2.30486 13.8817L2.30477 13.8811C2.20628 13.2409 2.10779 12.6007 2.0093 11.9573C1.94362 11.4975 2.23261 11.0771 2.66611 10.9852C2.73062 10.9668 2.78866 10.9613 2.85385 10.9551L2.85387 10.9551C2.8816 10.9525 2.91061 10.9497 2.94197 10.9458C2.92576 10.8485 2.91177 10.7557 2.89818 10.6655L2.89818 10.6655C2.87873 10.5364 2.86008 10.4127 2.83688 10.289C2.70552 9.5402 3.21783 8.9228 3.97973 8.9228H8.44605C8.85327 8.9228 9.22109 9.05416 9.51009 9.3563C9.68156 9.54336 9.84841 9.73967 10.0161 9.93699L10.0162 9.93705L10.0162 9.9371C10.1311 10.0723 10.2464 10.208 10.3639 10.3415C10.416 10.4015 10.4655 10.4701 10.5156 10.5394C10.63 10.6975 10.7472 10.8596 10.9025 10.9326C11.0636 11.0085 11.2657 10.9954 11.4694 10.9822C11.5481 10.9772 11.627 10.9721 11.7038 10.9721H17.8385C18.377 10.9721 18.7317 11.2479 18.8105 11.734C18.9094 12.3539 18.9959 12.9677 19.0828 13.5837C19.1229 13.8684 19.1631 14.1535 19.2046 14.44C19.3229 15.261 19.4444 16.0853 19.5659 16.9096C19.6874 17.7339 19.8089 18.5582 19.9271 19.3792L19.9272 19.3795C20.0191 19.9968 20.111 20.6141 20.1898 21.2315C20.2293 21.6518 20.0059 21.9671 19.6119 22.1247C19.5943 22.116 19.5768 22.1247 19.5554 22.1354C19.5447 22.1408 19.533 22.1466 19.5199 22.151ZM17.9697 20.6666C18.2744 20.6666 18.5214 20.3137 18.5214 19.8784C18.5214 19.4431 18.2744 19.0902 17.9697 19.0902C17.665 19.0902 17.418 19.4431 17.418 19.8784C17.418 20.3137 17.665 20.6666 17.9697 20.6666ZM16.6823 19.8784C16.6823 20.3137 16.4353 20.6666 16.1306 20.6666C15.8259 20.6666 15.5789 20.3137 15.5789 19.8784C15.5789 19.4431 15.8259 19.0902 16.1306 19.0902C16.4353 19.0902 16.6823 19.4431 16.6823 19.8784ZM14.2785 20.6666C14.5832 20.6666 14.8302 20.3137 14.8302 19.8784C14.8302 19.4431 14.5832 19.0902 14.2785 19.0902C13.9738 19.0902 13.7268 19.4431 13.7268 19.8784C13.7268 20.3137 13.9738 20.6666 14.2785 20.6666Z" fill="#2F4051"/>
</svg>
