<svg width="24" height="24" viewBox="0 0 24 24" fill="none" xmlns="http://www.w3.org/2000/svg">
<path fill-rule="evenodd" clip-rule="evenodd" d="M21.961 2.5451V3.90785C21.961 4.20635 21.7144 4.45295 21.4159 4.45295H2.5451C2.24659 4.45295 2 4.20635 2 3.90785V2.5451C2 2.24659 2.24659 2 2.5451 2H21.4289C21.7274 2 21.961 2.24659 21.961 2.5451ZM20.118 18.2362H3.82991C3.50545 18.2362 3.2329 17.9636 3.2329 17.6392V5.73784C3.2329 5.41338 3.50545 5.14083 3.82991 5.14083H20.118C20.4425 5.14083 20.715 5.41338 20.715 5.73784V17.6392C20.715 17.9636 20.4554 18.2362 20.118 18.2362ZM7.90518 13.5509C9.99472 13.5509 11.656 11.8767 11.656 9.78715C11.656 7.73654 9.96877 6.04933 7.90518 6.04933C5.82861 6.04933 4.1414 7.74952 4.1414 9.82608C4.15438 11.8767 5.84159 13.5509 7.90518 13.5509ZM18.5476 17.2758C18.885 17.2758 19.1446 17.0032 19.1446 16.6788V9.78715C19.1446 9.46268 18.8721 9.19014 18.5476 9.19014C18.2231 9.19014 17.9506 9.46268 17.9506 9.78715V16.6788C17.9506 17.0162 18.2101 17.2758 18.5476 17.2758ZM16.3542 17.2888C16.6917 17.2888 16.9642 17.0162 16.9642 16.6917V11.669C16.9642 11.3446 16.6917 11.072 16.3672 11.072H16.3542C16.0298 11.072 15.7572 11.3446 15.7572 11.669V16.6917C15.7572 17.0162 16.0298 17.2888 16.3542 17.2888ZM14.7708 16.7047V13.5639C14.7708 13.2394 14.4983 12.9669 14.1738 12.9669H14.1608C13.8364 12.9669 13.5638 13.2394 13.5638 13.5639V16.7047C13.5638 17.0292 13.8364 17.3017 14.1608 17.3017H14.1738C14.5113 17.3017 14.7708 17.0292 14.7708 16.7047ZM11.3834 15.4069V16.6788C11.3834 17.0032 11.656 17.2758 11.9804 17.2758C12.3049 17.2758 12.5775 17.0032 12.5775 16.6788V15.4069C12.5775 15.0824 12.3049 14.8098 11.9804 14.8098C11.643 14.8228 11.3834 15.0824 11.3834 15.4069ZM12.941 20.0012C12.6296 19.6898 12.4089 19.3912 12.5387 18.8981H11.4096C11.5394 19.3912 11.2798 19.6898 10.9813 20.0142C10.553 20.4814 10.6568 21.2472 11.137 21.6755C11.6172 22.1167 12.357 22.1038 12.8242 21.6625C13.2915 21.2212 13.3953 20.4425 12.941 20.0012ZM9.87812 12.1882L9.8779 12.188C9.21607 11.5261 8.56722 10.8773 7.91836 10.2414C7.69773 10.0337 7.5939 9.81311 7.60688 9.50163C7.61985 8.69696 7.61985 7.89229 7.60688 7.08762C7.60688 7.02273 7.60363 6.96109 7.60039 6.89945L7.60039 6.89943L7.60039 6.89941C7.59714 6.83777 7.5939 6.77612 7.5939 6.71124L7.58059 6.71242L7.58059 6.71124C6.23082 6.82805 5.1536 7.80144 4.85509 9.12525C4.55659 10.4491 5.16658 11.8118 6.34763 12.4997C6.83313 12.7843 7.37862 12.9249 7.91807 12.9247C8.63174 12.925 9.33737 12.6771 9.87812 12.1882ZM8.24283 9.48865H9.64451H10.9943L10.9944 9.48862C10.8905 8.02205 9.6446 6.78908 8.24292 6.72419V6.72422L8.24283 6.72422V9.48865ZM8.8009 10.1376C9.05283 10.3895 9.30781 10.6414 9.5703 10.9008C9.84872 11.1759 10.1356 11.4593 10.4362 11.7599C10.4362 11.7599 10.4362 11.7599 10.4362 11.7598C10.7996 11.2796 11.0202 10.7475 11.0981 10.1376C11.0981 10.1376 11.0981 10.1376 11.0981 10.1375H8.80091C8.80092 10.1376 8.80094 10.1376 8.80095 10.1376H8.8009Z" fill="#2F4051"/>
</svg>
