<svg width="24" height="24" viewBox="0 0 24 24" fill="none" xmlns="http://www.w3.org/2000/svg">
<path d="M7.50958 7.16775C7.82338 6.92382 8.27688 6.94589 8.56525 7.23416L8.63165 7.30935C8.8753 7.62313 8.8534 8.07675 8.56525 8.36502L6.93146 9.99978H17.9998C19.1044 9.99979 19.9998 10.8952 19.9998 11.9998V15.9998L19.9949 16.1023C19.9436 16.6065 19.5175 16.9998 18.9998 16.9998C18.4821 16.9998 18.056 16.6065 18.0047 16.1023L17.9998 15.9998V11.9998H6.93146L8.56525 13.6345L8.63165 13.7097C8.87533 14.0236 8.85349 14.4771 8.56525 14.7654C8.25297 15.0776 7.74681 15.0773 7.43439 14.7654L4.23419 11.5652L4.16778 11.49C3.92379 11.1762 3.9459 10.7227 4.23419 10.4344L7.43439 7.23416L7.50958 7.16775Z" fill="#2F4051"/>
</svg>
