<svg width="24" height="24" viewBox="0 0 24 24" fill="none" xmlns="http://www.w3.org/2000/svg">
<path d="M11.0001 2.99877C11.0001 2.44647 10.5524 1.99931 10.0001 2C9.44781 2.00069 9.0001 2.44898 9.0001 3.00127L9.00009 6.67883C9.00009 7.50655 9.6705 8.17699 10.4982 8.17699L13.6851 8.17699C14.2374 8.17699 14.6857 7.72927 14.6864 7.17697C14.6871 6.62467 14.2399 6.17695 13.6876 6.17695L12.2912 6.17695C12.7355 5.66748 13.2875 5.29307 13.8889 5.06977C14.9107 4.69039 16.0672 4.74917 17.0844 5.32159C18.977 6.38657 19.706 8.86312 18.6566 10.8701C18.1299 11.8772 17.2609 12.5614 16.2846 12.8567C15.7642 13.0141 15.4737 13.5769 15.6359 14.1136C15.798 14.6504 16.3514 14.9579 16.8718 14.8004C18.3298 14.3595 19.6217 13.3384 20.3996 11.8509C21.9433 8.89867 20.8991 5.17433 18.0112 3.54927C16.4649 2.67913 14.7136 2.59791 13.1898 3.16367C12.3759 3.46588 11.6245 3.95327 11.0001 4.6047L11.0001 2.99877Z" fill="#2F4051"/>
<path fill-rule="evenodd" clip-rule="evenodd" d="M12.6 11.8974C12.6 11.5788 12.4734 11.2734 12.2484 11.0484L10.5516 9.35159C10.3266 9.12659 10.0212 8.99999 9.7032 8.99999H4.2C3.5376 8.99999 3 9.53759 3 10.2V19.8C3 20.4624 3.5376 21 4.2 21H11.4C12.0624 21 12.6 20.4624 12.6 19.8V11.8974ZM4.2 19.8H11.4V12.6H9V10.2H4.2V19.8Z" fill="#2F4051"/>
</svg>
