<svg width="24" height="24" viewBox="0 0 24 24" fill="none" xmlns="http://www.w3.org/2000/svg">
<path fill-rule="evenodd" clip-rule="evenodd" d="M21.4236 4.03791V5.47442H6.88213C6.57468 5.47442 6.26887 5.47442 5.98923 5.6689C5.37598 6.10198 5.30566 6.93871 5.85023 7.45351C6.30751 7.88471 6.766 8.31607 7.22455 8.74749C8.27796 9.73856 9.3317 10.7299 10.3719 11.7205C10.9852 12.2925 11.5854 12.8923 12.1577 13.4921C12.4922 13.8404 12.6472 14.3048 12.7951 14.7477L12.8135 14.8027C12.995 15.3878 13.1062 16.0023 13.0653 16.6298C12.9116 18.7773 11.8928 20.3674 9.96801 21.3577C9.24192 21.7336 8.46023 21.915 7.63765 21.8872C7.40735 21.8775 7.17633 21.8806 6.9375 21.8839C6.81511 21.8855 6.69068 21.8872 6.56323 21.8872V18.6236C6.56323 18.4847 6.61884 18.4292 6.75784 18.4292C6.90976 18.4292 7.06129 18.4256 7.21459 18.4219C7.37151 18.4182 7.53029 18.4144 7.69325 18.4144C8.53055 18.4144 9.21412 17.8147 9.46596 17.1316C9.75869 16.3095 9.53628 15.4728 8.92139 14.9139C7.52645 13.6588 6.14459 12.4037 4.76273 11.1338C4.6799 11.0575 4.59676 10.9812 4.51352 10.9048L4.51351 10.9048C4.04946 10.4788 3.5819 10.0496 3.14374 9.59928C2.57137 8.99951 2.23613 8.26083 2.0824 7.45187C1.70628 5.41559 2.64006 3.50515 4.42748 2.5295C5.07017 2.1814 5.76682 2 6.506 2H21.4105V3.03121L21.4236 4.03791ZM10.329 10.2301H21.4084V13.6751H14.0117C13.7877 13.6751 13.6487 13.6195 13.5375 13.4234C13.1987 12.8449 12.7007 12.403 12.2072 11.9651L12.207 11.9649C12.1527 11.9167 12.0984 11.8685 12.0444 11.8202C11.786 11.5833 11.5244 11.3496 11.2627 11.1159C11.0011 10.8822 10.7394 10.6485 10.4811 10.4115C10.4537 10.3842 10.427 10.3514 10.3927 10.3093C10.3737 10.286 10.3524 10.2598 10.3273 10.2301H10.329ZM19.7093 15.1329C19.8908 15.1329 20.0658 15.2048 20.195 15.3339H20.1966L21.168 16.3046C21.2972 16.4321 21.3691 16.607 21.3691 16.79V21.3136C21.3691 21.6928 21.0617 22 20.6823 22H16.558C16.1786 22 15.8711 21.6928 15.8711 21.3136V15.8193C15.8711 15.4401 16.1786 15.1329 16.558 15.1329H19.7093ZM16.5563 21.3136H20.6807V17.1937H19.3053V15.8193H16.5563V21.3136ZM19.9938 18.9096H17.2448V18.2232H19.9938V18.9096ZM19.307 20.284H17.2448V19.5976H19.307V20.284Z" fill="#2F4051"/>
</svg>
