<svg width="24" height="24" viewBox="0 0 24 24" fill="none" xmlns="http://www.w3.org/2000/svg">
<path fill-rule="evenodd" clip-rule="evenodd" d="M5.58632 3.19084C6.03325 3.51531 6.13252 4.14064 5.80806 4.58757C5.62802 4.83555 5.20083 5.62489 5.04965 6.31514C5.01424 6.47682 4.99962 6.6091 5.00001 6.71035C5.07379 6.65269 5.16156 6.57921 5.26433 6.48843C5.43839 6.3347 5.62618 6.1578 5.8323 5.96364L5.84541 5.95129C6.05124 5.7574 6.27427 5.54756 6.49342 5.35483C6.71028 5.16412 6.94608 4.96981 7.18147 4.81235C7.39506 4.66948 7.71032 4.48574 8.07334 4.43004C8.27138 4.39965 8.52175 4.40143 8.78169 4.50392C9.05088 4.61005 9.25452 4.79447 9.39382 5.00541C9.64059 5.37908 9.6835 5.82894 9.6835 6.18351C9.6835 6.65024 9.55016 7.18526 9.38858 7.69139C9.21995 8.21959 8.98814 8.81232 8.73032 9.42573C8.43576 10.1265 8.08245 10.9104 7.73392 11.6837C7.48633 12.233 7.24116 12.7769 7.02116 13.282C6.58924 14.2735 6.24819 15.1288 6.06201 15.7715C6.12123 15.7173 6.18453 15.6565 6.25192 15.5885C6.64234 15.1946 7.07949 14.6522 7.54924 13.9989C8.48865 12.6927 9.48042 11.0546 10.407 9.52295L10.4535 9.44615C11.3383 7.98359 12.1928 6.57112 12.8358 5.78078C13.0028 5.5755 13.1873 5.37179 13.382 5.21247C13.5308 5.09074 13.8912 4.81808 14.3765 4.84574C15.0359 4.88332 15.3445 5.39158 15.4524 5.69083C15.5561 5.97826 15.5787 6.30206 15.5787 6.58952C15.5787 7.74285 15.2715 9.22134 14.8909 10.7019C14.6137 11.7802 14.2801 12.9223 13.9627 14.009C13.8398 14.4296 13.7194 14.8418 13.6056 15.2389C13.2251 16.5668 12.9264 17.7001 12.8055 18.5131C12.9588 18.3692 13.1274 18.1996 13.3103 18.0055C13.9351 17.3426 14.6449 16.4838 15.3825 15.5915C15.4092 15.5592 15.436 15.5268 15.4628 15.4944C16.2143 14.5853 16.995 13.6443 17.6865 12.9316C18.0313 12.5761 18.3819 12.248 18.7184 12.0021C19.0113 11.788 19.4707 11.5001 20 11.5001C20.5523 11.5001 21 11.9478 21 12.5001C21 13.0225 20.5994 13.4513 20.0886 13.4962C20.0631 13.5088 20.0014 13.5416 19.8983 13.6169C19.6952 13.7653 19.4354 14.0011 19.1219 14.3242C18.4967 14.9686 17.7692 15.8433 17.0042 16.7687C16.9707 16.8093 16.937 16.85 16.9033 16.8908C16.1839 17.7613 15.4366 18.6654 14.7658 19.3772C14.4145 19.7499 14.0622 20.0938 13.7268 20.3615C13.4216 20.6052 13.0095 20.8867 12.5486 20.9713C12.252 21.0258 11.8865 21.0161 11.5385 20.8205C11.1909 20.6251 10.9977 20.3212 10.895 20.0544C10.711 19.5765 10.7332 19.0023 10.7871 18.5246C10.9017 17.5072 11.2728 16.1193 11.683 14.6879C11.803 14.2693 11.9273 13.8438 12.0523 13.4157C12.3663 12.3406 12.6853 11.2486 12.9539 10.204C13.1024 9.62631 13.2303 9.08139 13.3311 8.57951C12.9671 9.15621 12.5599 9.82825 12.1182 10.5582L12.1057 10.579C11.1932 12.0873 10.1634 13.7894 9.17297 15.1666C8.67555 15.8583 8.16856 16.4958 7.6724 16.9964C7.20199 17.471 6.63342 17.9357 6.00151 18.1098C5.73381 18.1835 5.41276 18.2306 5.08211 18.1627C4.71632 18.0876 4.39585 17.8817 4.18278 17.5602C3.99032 17.2699 3.93082 16.9545 3.91533 16.7067C3.89943 16.4523 3.92532 16.1921 3.96758 15.9477C4.12967 15.01 4.64312 13.7332 5.18757 12.4833C5.43284 11.9202 5.68504 11.3613 5.93316 10.8114C6.26738 10.0707 6.59417 9.34641 6.88656 8.65078C7.11586 8.10521 7.30858 7.61214 7.44873 7.18938C7.37292 7.26008 7.29562 7.33282 7.21675 7.40712L7.19264 7.42982C6.99548 7.61557 6.78697 7.812 6.58833 7.98744C6.38584 8.1663 6.16129 8.35251 5.93941 8.4959C5.82764 8.56813 5.6928 8.64518 5.54264 8.70403C5.39949 8.76013 5.1811 8.82426 4.92325 8.80467C4.54816 8.77617 4.18159 8.67476 3.86115 8.46389C3.53345 8.24826 3.30924 7.95415 3.17378 7.63275C2.92161 7.03445 2.98855 6.37763 3.09596 5.88723C3.31646 4.88051 3.87837 3.84127 4.1896 3.41258C4.51407 2.96565 5.1394 2.86638 5.58632 3.19084ZM14.673 6.74265C14.6729 6.74346 14.6655 6.7494 14.6514 6.75802C14.6661 6.74615 14.6732 6.74184 14.673 6.74265Z" fill="#2F4051"/>
</svg>
