<svg width="24" height="24" viewBox="0 0 24 24" fill="none" xmlns="http://www.w3.org/2000/svg">
<path d="M3 6H6V3H3V6Z" fill="#2F4051"/>
<path d="M8 6H11V3H8V6Z" fill="#2F4051"/>
<path d="M21 16H18V3H21V16Z" fill="#2F4051"/>
<path d="M21.9995 22H17.0005L19.4995 17L21.9995 22Z" fill="#2F4051"/>
<path d="M11 11H8V8H11V11Z" fill="#2F4051"/>
<path d="M8 16H11V13H8V16Z" fill="#2F4051"/>
<path d="M11 21H8V18H11V21Z" fill="#2F4051"/>
<path d="M6 11H3V7.99899H6V11Z" fill="#2F4051"/>
<path d="M3 16H6V13H3V16Z" fill="#2F4051"/>
<path d="M6 21H3V18H6V21Z" fill="#2F4051"/>
<path d="M13 6H16V3H13V6Z" fill="#2F4051"/>
<path d="M16 11H13V8H16V11Z" fill="#2F4051"/>
<path d="M13 16H16V13H13V16Z" fill="#2F4051"/>
<path d="M16 21H13V18H16V21Z" fill="#2F4051"/>
</svg>
