<svg width="24" height="24" viewBox="0 0 24 24" fill="none" xmlns="http://www.w3.org/2000/svg">
<path d="M6 16H3V3H6V16Z" fill="#2F4051"/>
<path d="M4.5 17L7 22H2L4.5 17Z" fill="#2F4051"/>
<path d="M8 6H11V3H8V6Z" fill="#2F4051"/>
<path d="M11 11H8V8H11V11Z" fill="#2F4051"/>
<path d="M8 16H11V13H8V16Z" fill="#2F4051"/>
<path d="M11 21H8V18H11V21Z" fill="#2F4051"/>
<path d="M18 6H21V3H18V6Z" fill="#2F4051"/>
<path d="M21 11H18V7.99899H21V11Z" fill="#2F4051"/>
<path d="M18 16H21V13H18V16Z" fill="#2F4051"/>
<path d="M21 21H18V18H21V21Z" fill="#2F4051"/>
<path d="M13 6H16.001V3H13V6Z" fill="#2F4051"/>
<path d="M16 11H13V8H16V11Z" fill="#2F4051"/>
<path d="M13 16H16V13H13V16Z" fill="#2F4051"/>
<path d="M16.001 21H13V18H16.001V21Z" fill="#2F4051"/>
</svg>
