<svg width="24" height="24" viewBox="0 0 24 24" fill="none" xmlns="http://www.w3.org/2000/svg">
<path d="M13.23 6H16L11.385 12L16 18H13.23L10 13.8L6.769 18H4L8.615 12L4 6H6.769L10 10.2L13.23 6Z" fill="#2F4051"/>
<path d="M17.016 21H21V19.948H18.517V19.892L19.25 19.176C19.738 18.712 20.079 18.354 20.272 18.104C20.467 17.853 20.609 17.607 20.702 17.369C20.794 17.13 20.84 16.875 20.84 16.603C20.84 16.289 20.765 16.012 20.614 15.769C20.464 15.526 20.251 15.337 19.979 15.202C19.706 15.067 19.392 15 19.035 15C18.765 15 18.521 15.027 18.302 15.083C18.084 15.139 17.883 15.217 17.698 15.319C17.513 15.422 17.28 15.598 17 15.846L17.655 16.65C17.881 16.456 18.098 16.307 18.306 16.201C18.514 16.097 18.729 16.044 18.949 16.044C19.16 16.044 19.328 16.102 19.454 16.218C19.58 16.334 19.644 16.511 19.644 16.748C19.644 16.907 19.614 17.061 19.558 17.209C19.5 17.357 19.407 17.519 19.276 17.692C19.146 17.866 18.87 18.179 18.446 18.629L17.016 20.13V21Z" fill="#2F4051"/>
</svg>
