<svg width="24" height="24" viewBox="0 0 24 24" fill="none" xmlns="http://www.w3.org/2000/svg">
<path fill-rule="evenodd" clip-rule="evenodd" d="M13.7961 3.3615C12.6181 2.65471 11.0915 3.0151 10.3539 4.17407L7.5 8.65884V15.95C7.5 17.6069 8.84315 18.95 10.5 18.95H15.5C16.4443 18.95 17.3334 18.5055 17.9 17.75L20.5 14.2834V10.95C20.5 9.29319 19.1569 7.95004 17.5 7.95004H14.118L14.759 6.66816C15.3512 5.48365 14.9317 4.04285 13.7961 3.3615Z" fill="#2F4051"/>
<path d="M4 9.45008V16.4501C4 17.0024 4.44772 17.4501 5 17.4501C5.55228 17.4501 6 17.0024 6 16.4501V9.45008C6 8.89779 5.55228 8.45008 5 8.45008C4.44772 8.45008 4 8.89779 4 9.45008Z" fill="#2F4051"/>
</svg>
