<svg width="24" height="24" viewBox="0 0 24 24" fill="none" xmlns="http://www.w3.org/2000/svg">
<path d="M5 3H9C10.104 3 11 3.896 11 5V9C11 10.104 10.104 11 9 11H5C3.896 11 3 10.104 3 9V5C3 3.896 3.896 3 5 3Z" fill="#2F4051"/>
<path d="M15 3H19C20.104 3 21 3.896 21 5V9C21 10.104 20.104 11 19 11H15C13.896 11 13 10.104 13 9V5C13 3.896 13.896 3 15 3Z" fill="#2F4051"/>
<path d="M9 13H5C3.896 13 3 13.896 3 15V19C3 20.104 3.896 21 5 21H9C10.104 21 11 20.104 11 19V15C11 13.896 10.104 13 9 13Z" fill="#2F4051"/>
<path d="M15 13H19C20.104 13 21 13.896 21 15V19C21 20.104 20.104 21 19 21H15C13.896 21 13 20.104 13 19V15C13 13.896 13.896 13 15 13Z" fill="#2F4051"/>
</svg>
