<svg width="24" height="24" viewBox="0 0 24 24" fill="none" xmlns="http://www.w3.org/2000/svg">
<path d="M10.5535 12.585L15.3905 7.04303L16.9995 8.77203L10.5535 16.043L6.99951 12.236L8.61051 10.507L10.5535 12.585Z" fill="#2F4051"/>
<path fill-rule="evenodd" clip-rule="evenodd" d="M12 2C6.477 2 2 6.477 2 12C2 17.522 6.477 22 12 22C17.522 22 22 17.522 22 12C22 6.477 17.522 2 12 2ZM12 4C16.411 4 20 7.589 20 12C20 16.411 16.411 20 12 20C7.589 20 4 16.411 4 12C4 7.589 7.589 4 12 4Z" fill="#2F4051"/>
</svg>
