<svg width="24" height="24" viewBox="0 0 24 24" fill="none" xmlns="http://www.w3.org/2000/svg">
<path fill-rule="evenodd" clip-rule="evenodd" d="M8.175 16.25C8.50625 16.0068 8.93079 15.6834 9.40191 15.2963C9.14786 14.6601 9 14.0167 9 13.3812C9 10.2484 11.2516 7.6305 14.2569 6.99397C13.7486 4.15639 11.219 2 8.175 2C4.76464 2 2 4.70664 2 8.04545C2 11.3843 6.41071 14.9545 8.175 16.25ZM8.01682 9.25453C9.06616 9.25453 9.91682 8.40388 9.91682 7.35454C9.91682 6.30519 9.06616 5.45454 8.01682 5.45454C6.96748 5.45454 6.11682 6.30519 6.11682 7.35454C6.11682 8.40388 6.96748 9.25453 8.01682 9.25453Z" fill="#2F4051"/>
<path fill-rule="evenodd" clip-rule="evenodd" d="M22.35 14.0455C22.35 17.3843 17.9393 20.9545 16.175 22.25C14.4107 20.9545 10 17.3843 10 14.0455C10 10.7066 12.7646 8 16.175 8C19.5854 8 22.35 10.7066 22.35 14.0455ZM17.9168 13.3545C17.9168 14.4039 17.0662 15.2545 16.0168 15.2545C14.9675 15.2545 14.1168 14.4039 14.1168 13.3545C14.1168 12.3052 14.9675 11.4545 16.0168 11.4545C17.0662 11.4545 17.9168 12.3052 17.9168 13.3545Z" fill="#2F4051"/>
</svg>
