<svg width="24" height="24" viewBox="0 0 24 24" fill="none" xmlns="http://www.w3.org/2000/svg">
<path fill-rule="evenodd" clip-rule="evenodd" d="M13.5559 5.54673C12.1639 6.25834 11.6033 7.49357 11.8739 9.25242V9.40249C9.38601 9.23051 7.13787 8.04782 5.12949 5.85442C4.14906 6.93271 4.64198 9.74704 6.01368 10.391C5.29674 10.2709 4.83632 10.1082 4.63242 9.90284C4.66921 11.7877 5.46819 12.9895 7.02937 13.5083C7.2761 13.6889 5.89553 13.5783 5.76482 13.5783C5.63411 13.5783 6.52363 15.8939 8.75394 15.9981C6.91993 17.6879 4.35448 17.4844 4 17.3797C5.71596 19.2878 17.751 21.5351 18.3311 8.71806C19.1466 8.23942 20 6.9632 20 6.76861C19.6377 6.89836 18.7325 7.28747 18.1879 7.28747C18.8144 6.88282 19.5027 5.88222 19.5636 5.39322C19.0599 5.62823 18.1557 6.23279 17.432 6.23279C16.2399 5.06381 14.9479 4.83512 13.5559 5.54673Z" fill="#2F4051"/>
</svg>
