<svg width="24" height="24" viewBox="0 0 24 24" fill="none" xmlns="http://www.w3.org/2000/svg">
<path d="M11.6064 16C11.9215 16 12.1659 16.0875 12.3389 16.2598C12.5127 16.4321 12.6006 16.6785 12.6006 17C12.6006 17.3098 12.5124 17.5539 12.3379 17.7314C12.1623 17.9099 11.918 18 11.6064 18C11.286 18 11.0379 17.9123 10.8623 17.7383C10.6876 17.5642 10.6006 17.317 10.6006 17C10.6006 16.6705 10.6862 16.4217 10.8574 16.2529C11.0286 16.0852 11.2782 16 11.6064 16Z" fill="#2F4051"/>
<path d="M12.0781 8C12.9719 8.00002 13.683 8.23165 14.209 8.69434C14.7359 9.15712 14.9999 9.77392 15 10.5459C15 11.0607 14.8918 11.505 14.6748 11.8789C14.4578 12.2538 14.0463 12.6746 13.4395 13.1416C13.0226 13.474 12.7585 13.7258 12.6484 13.8984C12.5375 14.071 12.4825 14.2986 12.4824 14.5791V15H10.7568V14.4814C10.7568 14.0324 10.8464 13.6421 11.0244 13.3105C11.2024 12.9781 11.5282 12.6246 12 12.252C12.456 11.9003 12.7563 11.6148 12.9023 11.3945C13.0472 11.1753 13.1191 10.9293 13.1191 10.6582C13.1191 10.3544 13.0156 10.1227 12.8066 9.96387C12.5986 9.80506 12.3075 9.72559 11.9346 9.72559C11.2837 9.72569 10.5428 9.95563 9.70996 10.4131L9 8.87695C9.967 8.2923 10.9941 8 12.0781 8Z" fill="#2F4051"/>
<path fill-rule="evenodd" clip-rule="evenodd" d="M15.1719 2C15.7018 2 16.2109 2.21098 16.5859 2.58594L19.4141 5.41406C19.789 5.78906 20 6.29813 20 6.8291V20C20 21.104 19.104 22 18 22H6C4.896 22 4 21.104 4 20V4C4 2.896 4.896 2 6 2H15.1719ZM6 20H18V8H14V4H6V20Z" fill="#2F4051"/>
</svg>
