<svg width="24" height="24" viewBox="0 0 24 24" fill="none" xmlns="http://www.w3.org/2000/svg">
<path d="M12 5L10 3H2V19L2.00549 19.1492C2.08188 20.1836 2.94618 21 4 21H13.5V19H4V7H20L20.0012 11.1285C20.9072 11.7612 21.5 12.8116 21.5 14C21.5 14.7568 21.2596 15.4576 20.851 16.0302C21.3205 16.3229 21.7155 16.7241 22.0011 17.1986L22 7L21.9945 6.85081C21.9181 5.8164 21.0538 5 20 5H12Z" fill="#2F4051"/>
<path d="M18 12C19.104 12 20 12.896 20 14C20 15.104 19.104 16 18 16C16.896 16 16 15.104 16 14C16 12.896 16.896 12 18 12Z" fill="#2F4051"/>
<path d="M19 17C20.104 17 21 17.896 21 19V21H15V19C15 17.896 15.896 17 17 17H19Z" fill="#2F4051"/>
</svg>
