<svg width="24" height="24" viewBox="0 0 24 24" fill="none" xmlns="http://www.w3.org/2000/svg">
<path d="M19.0206 5.69565L11.9363 2L5.41455 5.69565L7.66919 6.82316C8.61358 5.48366 10.1728 4.6087 11.9363 4.6087C13.756 4.6087 15.3582 5.54033 16.2918 6.95265L17.1537 6.55478V10.6957H18.0232V6.15478L19.0206 5.69565Z" fill="#2F4051"/>
<path fill-rule="evenodd" clip-rule="evenodd" d="M16.284 9.8261C16.284 7.42523 14.3379 5.47827 11.9362 5.47827C9.53534 5.47827 7.58838 7.42523 7.58838 9.8261C7.58838 12.227 9.53534 14.1739 11.9362 14.1739C14.3379 14.1739 16.284 12.227 16.284 9.8261ZM9.32764 9.8261C9.32764 8.38784 10.4981 7.21741 11.9363 7.21741C13.3746 7.21741 14.545 8.38784 14.545 9.8261C14.545 11.2644 13.3746 12.4348 11.9363 12.4348C10.4981 12.4348 9.32764 11.2644 9.32764 9.8261Z" fill="#2F4051"/>
<path fill-rule="evenodd" clip-rule="evenodd" d="M18.8883 18.3481C18.7978 16.5079 17.2769 15.0435 15.4143 15.0435H8.45775L8.28416 15.0477C6.44393 15.1382 4.97949 16.6591 4.97949 18.5217V22H18.8925V18.5217L18.8883 18.3481ZM8.45788 16.7826H15.4144L15.544 16.7874C16.4428 16.8539 17.1535 17.6062 17.1535 18.5217V20.2609H6.71875V18.5217L6.72353 18.3921C6.79003 17.4933 7.54235 16.7826 8.45788 16.7826Z" fill="#2F4051"/>
</svg>
