<svg width="24" height="24" viewBox="0 0 24 24" fill="none" xmlns="http://www.w3.org/2000/svg">
<path fill-rule="evenodd" clip-rule="evenodd" d="M19.814 5.43242C20.675 5.67022 21.353 6.37122 21.582 7.26039C22 8.87331 22 12.2377 22 12.2377C22 12.2377 22 15.6021 21.582 17.2139C21.353 18.1052 20.675 18.8051 19.814 19.0429C18.254 19.4751 12 19.4751 12 19.4751C12 19.4751 5.746 19.4751 4.186 19.0429C3.326 18.8051 2.648 18.1052 2.418 17.2139C2 15.6021 2 12.2377 2 12.2377C2 12.2377 2 8.87331 2.418 7.26039C2.648 6.37122 3.326 5.67022 4.186 5.43242C5.746 5.00024 12 5.00024 12 5.00024C12 5.00024 18.254 5.00024 19.814 5.43242ZM9.77783 9.18239V15.2918L15.0048 12.2376L9.77783 9.18239Z" fill="#2F4051"/>
</svg>
