<svg width="24" height="24" viewBox="0 0 24 24" fill="none" xmlns="http://www.w3.org/2000/svg">
<path d="M12.613 13.3429C12.613 13.6857 12.3224 13.9486 11.9236 13.9486H11.0924V12.7371H11.9236C12.3224 12.7371 12.613 12.9943 12.613 13.3429Z" fill="#2F4051"/>
<path fill-rule="evenodd" clip-rule="evenodd" d="M16.5855 2.58557C16.2105 2.21057 15.7025 1.99957 15.1715 1.99957H5.99951C4.89551 1.99957 3.99951 2.89557 3.99951 3.99957V9.99957H1.99951V17.9996H3.99951V19.9996C3.99951 21.1046 4.89551 21.9996 5.99951 21.9996H17.9995C19.1045 21.9996 19.9995 21.1046 19.9995 19.9996V6.82857C19.9995 6.29757 19.7885 5.78957 19.4135 5.41357L16.5855 2.58557ZM17.9995 19.9996H5.99951V17.9996H15.9995V9.99957H5.99951V3.99957H13.9995V7.99957H17.9995V19.9996ZM5.72826 15.2457H7.73542V16H4.53883V15.3714L6.50544 12.7543H4.58614V12H7.69487V12.6229L5.72826 15.2457ZM8.35146 12H9.28408V16H8.35146V12ZM13.5388 13.3429C13.5388 12.5943 12.836 12 11.9236 12H10.1598V16H11.0924V14.6857H11.9236C12.836 14.6857 13.5388 14.0914 13.5388 13.3429Z" fill="#2F4051"/>
</svg>
