<svg width="24" height="24" viewBox="0 0 24 24" fill="none" xmlns="http://www.w3.org/2000/svg">
<path d="M10.1005 7.10046C10.6528 7.10046 11.1005 7.54818 11.1005 8.10046V9.10046H12.1005C12.6528 9.10046 13.1005 9.54818 13.1005 10.1005C13.1005 10.6527 12.6528 11.1005 12.1005 11.1005H11.1005V12.1005C11.1005 12.6527 10.6528 13.1005 10.1005 13.1005C9.54822 13.1005 9.10051 12.6527 9.10051 12.1005V11.1005H8.10051C7.54822 11.1005 7.10051 10.6527 7.10051 10.1005C7.10051 9.54818 7.54822 9.10046 8.10051 9.10046H9.10051V8.10046C9.10051 7.54818 9.54822 7.10046 10.1005 7.10046Z" fill="#2F4051"/>
<path fill-rule="evenodd" clip-rule="evenodd" d="M15.6067 14.1925C17.6623 11.4507 17.4433 7.54384 14.9497 5.05025C12.2161 2.31658 7.78392 2.31658 5.05025 5.05025C2.31658 7.78392 2.31658 12.2161 5.05025 14.9497C7.54385 17.4433 11.4507 17.6623 14.1925 15.6067L19.1924 20.6066C19.5829 20.9971 20.2161 20.9971 20.6066 20.6066C20.9971 20.2161 20.9971 19.5829 20.6066 19.1924L15.6067 14.1925ZM13.5355 6.46447C15.4882 8.41709 15.4882 11.5829 13.5355 13.5355C11.5829 15.4882 8.41709 15.4882 6.46447 13.5355C4.51184 11.5829 4.51184 8.41709 6.46447 6.46447C8.41709 4.51184 11.5829 4.51184 13.5355 6.46447Z" fill="#2F4051"/>
</svg>
