<svg width="400" height="400" viewBox="0 0 400 400" fill="none" xmlns="http://www.w3.org/2000/svg">
<path fill-rule="evenodd" clip-rule="evenodd" d="M357.611 198.437C356.421 198.437 355.278 198.205 354.404 197.732L339.584 189.721C338.571 189.173 338.014 188.367 338.014 187.451C338.014 186.419 338.751 185.429 340.031 184.736C340.701 184.374 341.468 184.115 342.268 183.961L340.721 183.126C340.018 182.746 338.811 182.45 337.441 182.45C336.158 182.45 334.728 182.711 333.438 183.408C332.516 183.906 332.008 184.482 332.008 185.031C332.008 185.488 332.355 185.961 332.916 186.264L346.741 193.737C347.218 193.996 347.381 194.569 347.108 195.016C346.921 195.317 346.584 195.485 346.238 195.485C346.071 195.485 345.898 195.444 345.741 195.359L331.916 187.886C330.739 187.249 330.008 186.155 330.008 185.031C330.008 184.31 330.323 182.929 332.438 181.786C334.044 180.917 335.811 180.588 337.418 180.588C339.191 180.588 340.768 180.988 341.721 181.504L362.071 192.505C363.084 193.053 363.645 193.859 363.645 194.776C363.645 195.808 362.908 196.797 361.624 197.491C360.464 198.117 359.008 198.437 357.611 198.437ZM342.911 185.758C342.231 185.865 341.571 186.066 341.031 186.358C340.281 186.764 340.014 187.2 340.014 187.451C340.014 187.746 340.374 187.984 340.584 188.099L355.404 196.11C355.964 196.413 356.754 196.561 357.591 196.561C358.648 196.561 359.781 196.324 360.624 195.868C361.378 195.462 361.645 195.026 361.645 194.776C361.645 194.48 361.284 194.242 361.071 194.127L357.851 192.386C357.844 192.532 357.804 192.679 357.721 192.815C357.538 193.115 357.201 193.283 356.854 193.283C356.684 193.283 356.514 193.243 356.354 193.157L343.254 186.076C343.108 185.996 342.994 185.885 342.911 185.758Z" fill="#F4F5F6"/>
<path fill-rule="evenodd" clip-rule="evenodd" d="M49.4747 187.722C51.8767 192.248 55.8184 194.684 61.1327 195.255C64.066 195.571 67.043 195.418 69.9817 195.255C74.4797 195.005 78.9704 194.658 83.469 194.415C87.2484 194.211 87.2733 188.678 83.469 188.883C76.4727 189.261 69.2747 190.295 62.2607 189.823C61.9757 189.804 61.6917 189.778 61.4077 189.753C60.8087 189.7 61.272 189.742 61.1207 189.718C60.6234 189.637 60.1304 189.546 59.6433 189.421C59.3813 189.354 58.3527 189.012 58.5587 189.095C58.7814 189.186 57.8387 188.728 57.621 188.606C57.5473 188.565 56.9414 188.166 57.2824 188.406C57.6217 188.644 57.041 188.21 56.9764 188.153C56.635 187.851 56.3177 187.541 56.0137 187.206C55.908 187.09 56.215 187.5 55.8787 187.032C55.734 186.831 55.5887 186.63 55.4517 186.424C55.1307 185.941 54.8464 185.439 54.576 184.929C52.884 181.741 47.7867 184.54 49.4747 187.722Z" fill="#EFA37E"/>
<path fill-rule="evenodd" clip-rule="evenodd" d="M196.211 329.955C193.655 329.955 191.232 329.477 189.416 328.494L186.121 326.715C187.079 326.871 188.092 326.949 189.125 326.949C192.373 326.952 195.835 326.178 198.537 324.678L356.691 236.922C359.195 235.531 360.545 233.791 360.691 232.125L360.718 229.288L360.701 229.286C360.721 229.087 360.721 228.889 360.705 228.693L365.048 231.04C369.171 233.27 368.601 237.249 363.778 239.927L205.623 327.683C202.922 329.181 199.459 329.955 196.211 329.955Z" fill="#B6BBC1"/>
<path fill-rule="evenodd" clip-rule="evenodd" d="M359.494 229.153C359.084 228.749 358.584 228.37 357.964 228.034L243.198 165.992C239.074 163.762 231.817 164.126 226.991 166.804L68.8375 254.56C68.2952 254.861 67.8145 255.181 67.3802 255.51L64.8125 256.642L64.8642 260.201C65.0645 261.429 65.9495 262.573 67.5668 263.447L182.331 325.488C186.456 327.719 193.712 327.354 198.539 324.677L356.694 236.921C359.197 235.53 360.547 233.79 360.694 232.125L360.72 229.287L359.494 229.153Z" fill="#465564"/>
<path fill-rule="evenodd" clip-rule="evenodd" d="M182.33 322.643L67.5653 260.601C63.4406 258.371 64.0096 254.393 68.8359 251.715L226.989 163.958C231.816 161.28 239.072 160.917 243.197 163.146L357.962 225.188C362.086 227.418 361.519 231.397 356.692 234.075L198.538 321.832C193.711 324.51 186.455 324.873 182.33 322.643Z" fill="#DDE0E3"/>
<path fill-rule="evenodd" clip-rule="evenodd" d="M189.422 313.163L79.0859 253.515L237.64 167.801L347.977 227.449L189.422 313.163Z" fill="#FFFFFE"/>
<path fill-rule="evenodd" clip-rule="evenodd" d="M317.007 203.05L280.469 183.297C282.681 182.126 285.557 181.541 288.434 181.541C291.348 181.541 294.263 182.142 296.487 183.344L316.92 194.39C321.339 196.779 321.368 200.642 317.007 203.05Z" fill="#B6BBC1"/>
<path fill-rule="evenodd" clip-rule="evenodd" d="M321.965 213.388L262.582 181.285C264.634 180.492 267.048 180.096 269.463 180.096C272.497 180.096 275.531 180.721 277.846 181.973L280.381 183.343C280.41 183.327 280.439 183.312 280.469 183.296L317.007 203.049C316.978 203.065 316.949 203.081 316.92 203.097L320.693 205.136C324.85 207.383 325.274 210.884 321.965 213.388Z" fill="#2F4051"/>
<path fill-rule="evenodd" clip-rule="evenodd" d="M312.311 216.076C309.277 216.076 306.243 215.45 303.928 214.199L261.082 191.036C256.452 188.533 256.452 184.476 261.081 181.973C261.554 181.718 262.056 181.488 262.582 181.285L321.965 213.388C321.589 213.672 321.165 213.944 320.693 214.199C318.378 215.45 315.345 216.076 312.311 216.076Z" fill="#B6BBC1"/>
<path fill-rule="evenodd" clip-rule="evenodd" d="M320.693 201.716L316.92 199.676C321.368 197.272 321.368 193.374 316.92 190.969L296.487 179.923C292.04 177.519 284.828 177.519 280.381 179.923L277.846 178.553C273.216 176.05 265.711 176.05 261.081 178.553C256.452 181.055 256.452 185.113 261.082 187.616L303.928 210.779C308.558 213.281 316.063 213.281 320.693 210.779C325.322 208.276 325.322 204.219 320.693 201.716Z" fill="#DDE0E3"/>
<path fill-rule="evenodd" clip-rule="evenodd" d="M308.987 200.913L277.704 183.515C276.596 182.899 276.567 181.406 277.651 180.752C278.204 180.419 278.911 180.408 279.476 180.722L310.759 198.12C311.867 198.737 311.896 200.229 310.812 200.883C310.259 201.216 309.552 201.228 308.987 200.913Z" fill="#FFFFFE"/>
<path fill-rule="evenodd" clip-rule="evenodd" d="M215.751 215.006L216.893 213.153L197.507 202.673C197.4 202.615 197.33 202.565 197.288 202.53C197.257 202.504 197.242 202.487 197.238 202.482L197.237 202.48L197.139 202.545L197.245 202.494L197.237 202.48L197.139 202.545L197.245 202.494L196.881 202.67H197.287C197.289 202.605 197.263 202.523 197.245 202.494L196.881 202.67H197.287H197.023L197.275 202.754C197.276 202.754 197.287 202.719 197.287 202.67H197.023L197.275 202.754C197.275 202.754 197.282 202.738 197.305 202.704C197.369 202.603 197.603 202.355 198.075 202.102L214.357 193.3C214.773 193.074 215.307 192.877 215.888 192.745C216.469 192.612 217.097 192.543 217.691 192.543C218.182 192.543 218.651 192.591 219.048 192.674C219.446 192.757 219.769 192.877 219.981 192.993L239.367 203.473C239.474 203.531 239.544 203.582 239.586 203.616C239.617 203.642 239.632 203.659 239.636 203.665L239.637 203.666L239.735 203.601L239.629 203.652L239.637 203.666L239.735 203.601L239.629 203.652L239.993 203.476H239.587C239.585 203.541 239.61 203.623 239.629 203.652L239.993 203.476H239.587H239.851L239.598 203.392C239.598 203.392 239.587 203.427 239.587 203.476H239.851L239.598 203.392C239.598 203.392 239.592 203.408 239.569 203.442C239.505 203.543 239.271 203.792 238.799 204.044L222.517 212.846C222.101 213.072 221.567 213.269 220.986 213.401C220.405 213.534 219.777 213.603 219.183 213.603C218.692 213.603 218.223 213.555 217.826 213.472C217.428 213.389 217.105 213.269 216.893 213.153L214.609 216.858C215.311 217.236 216.059 217.484 216.827 217.646C217.595 217.807 218.386 217.88 219.183 217.88C220.146 217.88 221.119 217.773 222.068 217.557C223.016 217.339 223.942 217.015 224.801 216.551L241.084 207.749C241.941 207.283 242.672 206.715 243.228 206.006C243.505 205.651 243.736 205.26 243.899 204.834C244.063 204.408 244.155 203.947 244.155 203.476C244.155 203.088 244.092 202.695 243.966 202.322C243.779 201.762 243.457 201.253 243.056 200.828C242.654 200.401 242.177 200.053 241.651 199.769L222.265 189.288C221.563 188.91 220.815 188.662 220.047 188.5C219.279 188.34 218.488 188.266 217.691 188.266C216.728 188.266 215.755 188.374 214.806 188.59C213.858 188.807 212.932 189.132 212.073 189.596L195.79 198.398C194.933 198.863 194.202 199.431 193.646 200.14C193.369 200.495 193.138 200.886 192.975 201.312C192.811 201.738 192.719 202.199 192.719 202.67C192.719 203.058 192.782 203.451 192.908 203.824C193.095 204.385 193.417 204.893 193.818 205.318C194.22 205.745 194.697 206.093 195.223 206.377L214.609 216.858L215.751 215.006Z" fill="#C8CDD1"/>
<path fill-rule="evenodd" clip-rule="evenodd" d="M178.743 236.954L179.885 235.102L160.499 224.622C160.393 224.564 160.322 224.514 160.281 224.479C160.25 224.453 160.235 224.436 160.23 224.431L160.229 224.429L160.132 224.494L160.238 224.443L160.229 224.429L160.132 224.494L160.238 224.443L159.873 224.619H160.28C160.281 224.554 160.256 224.472 160.238 224.443L159.873 224.619H160.28H160.015L160.268 224.704C160.269 224.703 160.28 224.668 160.28 224.619H160.015L160.268 224.704C160.268 224.704 160.274 224.687 160.297 224.653C160.362 224.552 160.596 224.304 161.067 224.051L177.349 215.249C177.765 215.023 178.299 214.827 178.881 214.695C179.462 214.561 180.089 214.492 180.683 214.492C181.175 214.492 181.643 214.54 182.041 214.623C182.438 214.706 182.762 214.826 182.974 214.942L202.36 225.422C202.466 225.48 202.537 225.53 202.578 225.565C202.609 225.591 202.624 225.608 202.628 225.613L202.63 225.615L202.727 225.55L202.621 225.601L202.63 225.615L202.727 225.55L202.621 225.601L202.986 225.426H202.579C202.577 225.49 202.603 225.572 202.621 225.601L202.986 225.426H202.579H202.844L202.591 225.341C202.59 225.341 202.579 225.376 202.579 225.426H202.844L202.591 225.341C202.591 225.341 202.585 225.357 202.562 225.391C202.497 225.492 202.263 225.74 201.792 225.993L185.51 234.795C185.094 235.021 184.56 235.218 183.978 235.35C183.397 235.483 182.77 235.552 182.176 235.552C181.684 235.552 181.216 235.504 180.818 235.421C180.421 235.338 180.097 235.218 179.885 235.102L177.601 238.807C178.303 239.185 179.052 239.433 179.819 239.595C180.588 239.756 181.378 239.829 182.176 239.829C183.139 239.829 184.111 239.722 185.06 239.506C186.008 239.288 186.934 238.964 187.794 238.5L204.076 229.697C204.934 229.232 205.665 228.664 206.221 227.955C206.498 227.6 206.729 227.209 206.892 226.783C207.055 226.357 207.148 225.896 207.148 225.426C207.148 225.037 207.084 224.644 206.959 224.271C206.772 223.71 206.449 223.202 206.048 222.777C205.646 222.35 205.169 222.002 204.644 221.718L185.258 211.238C184.556 210.859 183.807 210.611 183.04 210.449C182.271 210.288 181.48 210.215 180.683 210.215C179.72 210.215 178.747 210.323 177.799 210.539C176.85 210.756 175.925 211.081 175.065 211.544L158.783 220.347C157.925 220.812 157.194 221.38 156.638 222.089C156.361 222.444 156.13 222.835 155.967 223.261C155.804 223.687 155.711 224.148 155.711 224.619C155.711 225.008 155.775 225.4 155.9 225.773C156.087 226.334 156.41 226.843 156.811 227.268C157.212 227.694 157.69 228.042 158.215 228.327L177.601 238.807L178.743 236.954Z" fill="#C8CDD1"/>
<path fill-rule="evenodd" clip-rule="evenodd" d="M139.837 259.607L140.979 257.754L121.593 247.274C121.486 247.217 121.416 247.166 121.374 247.132C121.343 247.105 121.328 247.088 121.324 247.083L121.322 247.081L121.225 247.147L121.331 247.095L121.322 247.081L121.225 247.147L121.331 247.095L120.967 247.271H121.373C121.375 247.206 121.349 247.125 121.331 247.095L120.967 247.271H121.373H121.109L121.361 247.356C121.362 247.355 121.373 247.32 121.373 247.271H121.109L121.361 247.356C121.361 247.356 121.368 247.339 121.391 247.306C121.455 247.204 121.689 246.956 122.16 246.704L138.443 237.901C138.859 237.676 139.393 237.479 139.974 237.347C140.555 237.214 141.183 237.144 141.777 237.145C142.268 237.144 142.737 237.192 143.134 237.276C143.532 237.358 143.855 237.479 144.067 237.594L163.453 248.074C163.56 248.132 163.63 248.183 163.672 248.217C163.703 248.243 163.718 248.26 163.722 248.266L163.723 248.268L163.821 248.202L163.715 248.253L163.723 248.268L163.821 248.202L163.715 248.253L164.079 248.078H163.673C163.671 248.142 163.696 248.224 163.715 248.253L164.079 248.078H163.673H163.937L163.684 247.993C163.684 247.994 163.673 248.028 163.673 248.078H163.937L163.684 247.993C163.684 247.993 163.678 248.009 163.655 248.043C163.591 248.145 163.357 248.393 162.885 248.645L146.603 257.448C146.187 257.673 145.653 257.87 145.072 258.002C144.491 258.135 143.863 258.205 143.269 258.204C142.778 258.205 142.309 258.157 141.912 258.073C141.514 257.99 141.191 257.87 140.979 257.754L138.695 261.459C139.397 261.838 140.145 262.085 140.913 262.247C141.681 262.408 142.472 262.481 143.269 262.482C144.232 262.481 145.205 262.374 146.154 262.158C147.102 261.941 148.027 261.616 148.887 261.152L165.17 252.35C166.027 251.885 166.758 251.316 167.314 250.607C167.591 250.253 167.822 249.861 167.985 249.435C168.149 249.01 168.241 248.548 168.241 248.078C168.241 247.689 168.178 247.296 168.052 246.924C167.865 246.363 167.543 245.854 167.142 245.429C166.74 245.002 166.263 244.654 165.737 244.37L146.351 233.89C145.649 233.511 144.901 233.264 144.133 233.102C143.365 232.941 142.574 232.867 141.777 232.867C140.814 232.867 139.841 232.975 138.892 233.191C137.944 233.408 137.018 233.733 136.159 234.197L119.876 242.999C119.019 243.464 118.288 244.032 117.732 244.742C117.455 245.096 117.224 245.487 117.061 245.914C116.897 246.339 116.805 246.801 116.805 247.271C116.805 247.66 116.868 248.053 116.994 248.425C117.181 248.986 117.503 249.495 117.904 249.92C118.306 250.347 118.783 250.695 119.309 250.979L138.695 261.459L139.837 259.607Z" fill="#C8CDD1"/>
<path fill-rule="evenodd" clip-rule="evenodd" d="M296.245 239.516L245.428 212.044C244.359 211.466 244.539 210.376 245.827 209.62C247.116 208.865 249.045 208.719 250.114 209.297L300.93 236.769C301.999 237.347 301.819 238.437 300.531 239.193C299.242 239.948 297.314 240.093 296.245 239.516Z" fill="#C8CDD1"/>
<path fill-rule="evenodd" clip-rule="evenodd" d="M252.362 227.89L238.511 220.402C237.354 219.777 237.439 218.189 238.657 217.675L239.439 217.345C240.53 216.884 241.792 216.943 242.829 217.504L256.514 224.902C257.86 225.63 257.761 227.479 256.344 228.077C255.062 228.619 253.58 228.549 252.362 227.89Z" fill="#C8CDD1"/>
<path fill-rule="evenodd" clip-rule="evenodd" d="M214.839 247.566L200.987 240.078C199.831 239.453 199.916 237.865 201.133 237.351L201.915 237.021C203.007 236.56 204.268 236.619 205.305 237.18L218.991 244.578C220.337 245.306 220.238 247.155 218.821 247.753C217.539 248.294 216.057 248.225 214.839 247.566Z" fill="#C8CDD1"/>
<path fill-rule="evenodd" clip-rule="evenodd" d="M175.284 269.898L161.433 262.41C160.276 261.785 160.361 260.197 161.578 259.683L162.36 259.353C163.452 258.892 164.713 258.951 165.75 259.512L179.436 266.91C180.782 267.638 180.683 269.487 179.266 270.085C177.984 270.626 176.502 270.557 175.284 269.898Z" fill="#C8CDD1"/>
<path fill-rule="evenodd" clip-rule="evenodd" d="M258.823 260.93L208.006 233.458C206.937 232.88 207.117 231.79 208.406 231.034C209.694 230.279 211.623 230.134 212.692 230.711L263.509 258.183C264.577 258.761 264.398 259.851 263.109 260.607C261.821 261.362 259.892 261.508 258.823 260.93Z" fill="#C8CDD1"/>
<path fill-rule="evenodd" clip-rule="evenodd" d="M219.089 283.209L168.272 255.737C167.203 255.16 167.383 254.069 168.671 253.313C169.96 252.558 171.889 252.413 172.957 252.99L223.774 280.462C224.843 281.04 224.663 282.131 223.375 282.886C222.086 283.642 220.157 283.787 219.089 283.209Z" fill="#C8CDD1"/>
<path fill-rule="evenodd" clip-rule="evenodd" d="M213.306 205.896C210.753 205.647 209.027 204.315 209.472 202.936L213.859 189.345C214.304 187.966 216.758 187.041 219.312 187.291C221.866 187.54 223.591 188.872 223.146 190.251L218.759 203.842C218.314 205.221 215.86 206.146 213.306 205.896Z" fill="#22A3AF"/>
<path fill-rule="evenodd" clip-rule="evenodd" d="M181.528 233.495C178.936 233.494 176.803 232.347 176.788 230.946L176.645 217.134C176.63 215.733 178.739 214.587 181.331 214.588C183.924 214.589 186.056 215.736 186.071 217.137L186.215 230.949C186.229 232.35 184.12 233.496 181.528 233.495Z" fill="#E30072"/>
<path fill-rule="evenodd" clip-rule="evenodd" d="M163.941 224.035C163.927 222.633 166.036 221.487 168.628 221.488L194.176 221.497C196.768 221.498 198.901 222.645 198.916 224.047C198.93 225.448 196.821 226.594 194.229 226.593L168.681 226.584C166.089 226.583 163.956 225.436 163.941 224.035Z" fill="#E30072"/>
<path fill-rule="evenodd" clip-rule="evenodd" d="M209.432 203.998C208.806 202.636 210.352 201.252 212.867 200.922L243.038 196.962C245.553 196.632 248.124 197.476 248.75 198.838C249.377 200.2 247.831 201.585 245.316 201.915L215.145 205.874C212.629 206.204 210.059 205.36 209.432 203.998Z" fill="#22A3AF"/>
<path fill-rule="evenodd" clip-rule="evenodd" d="M138.15 251.215C135.596 250.966 133.871 249.633 134.316 248.254L138.703 234.663C139.148 233.284 141.602 232.36 144.156 232.609C146.709 232.858 148.434 234.19 147.989 235.569L143.602 249.161C143.157 250.54 140.704 251.464 138.15 251.215Z" fill="#22A3AF"/>
<path fill-rule="evenodd" clip-rule="evenodd" d="M134.276 249.318C133.65 247.956 135.195 246.572 137.711 246.242L167.881 242.283C170.397 241.952 172.968 242.797 173.594 244.159C174.22 245.521 172.675 246.905 170.159 247.235L139.988 251.194C137.473 251.525 134.902 250.68 134.276 249.318Z" fill="#22A3AF"/>
<path fill-rule="evenodd" clip-rule="evenodd" d="M65.3539 308.597C58.9929 308.597 52.6186 307.28 47.7503 304.648C38.0533 299.406 38.0043 290.933 47.6406 285.724C52.4389 283.13 58.7346 281.834 65.0429 281.834C71.4039 281.834 77.7783 283.151 82.6469 285.783C92.3436 291.025 92.3929 299.498 82.7563 304.707C77.9583 307.301 71.6626 308.597 65.3539 308.597Z" fill="#F4F5F6"/>
<path fill-rule="evenodd" clip-rule="evenodd" d="M102.671 205.206L100.966 203.936C99.6551 202.959 99.4364 201.156 100.48 199.928V199.928C101.523 198.701 103.449 198.496 104.76 199.473L106.465 200.744C107.775 201.72 107.994 203.524 106.951 204.751H106.951C105.907 205.979 103.981 206.183 102.671 205.206Z" fill="#EFA37E"/>
<path fill-rule="evenodd" clip-rule="evenodd" d="M59.5872 291.075C59.4072 291.222 56.7249 292.483 56.5562 292.62C56.2975 292.831 55.5269 293.412 55.0619 293.726C54.0829 294.388 52.0122 296.903 48.6355 295.132C43.6942 292.541 55.4869 285.166 55.4869 285.166L60.7039 282.619C61.3389 282.309 62.1049 282.309 62.7672 282.619C63.9902 283.191 64.4782 284.608 63.8145 285.683C62.6762 287.528 62.6119 288.604 59.5872 291.075Z" fill="#161E2C"/>
<path fill-rule="evenodd" clip-rule="evenodd" d="M59.0328 289.692C58.8525 289.839 56.1705 291.1 56.0015 291.238C55.7432 291.449 54.9725 292.029 54.5075 292.344C53.5285 293.005 51.4578 295.52 48.0808 293.749C43.1395 291.158 54.9325 283.783 54.9325 283.783L60.1492 281.236C60.7845 280.926 61.5505 280.926 62.2128 281.236C63.4355 281.808 63.9238 283.225 63.2602 284.3C62.1215 286.145 62.0575 287.221 59.0328 289.692Z" fill="#593100"/>
<path fill-rule="evenodd" clip-rule="evenodd" d="M77.9894 301.619C77.7814 301.729 74.8838 302.461 74.6891 302.565C74.3904 302.723 73.5114 303.147 72.9888 303.368C71.8878 303.833 69.3211 305.909 66.3914 303.54C62.1044 300.075 75.2358 295.061 75.2358 295.061L80.8918 293.544C81.5801 293.359 82.3308 293.503 82.9134 293.931C83.9891 294.72 84.1644 296.2 83.2844 297.129C81.7741 298.723 81.4811 299.765 77.9894 301.619Z" fill="#161E2C"/>
<path fill-rule="evenodd" clip-rule="evenodd" d="M77.7393 300.158C77.5313 300.268 74.6337 301 74.439 301.104C74.1407 301.262 73.2613 301.686 72.7387 301.907C71.6377 302.372 69.0713 304.447 66.1413 302.079C61.8547 298.614 74.9857 293.6 74.9857 293.6L80.6417 292.083C81.3303 291.898 82.081 292.042 82.6637 292.47C83.739 293.259 83.9143 294.739 83.0343 295.668C81.5243 297.262 81.2313 298.304 77.7393 300.158Z" fill="#593100"/>
<path fill-rule="evenodd" clip-rule="evenodd" d="M63.1121 236.195C68.9208 252.027 67.2928 269.61 65.9938 286.478C65.7705 289.379 65.4791 292.305 65.5638 295.215C65.6315 297.537 67.6255 299.514 70.1548 299.514C72.5901 299.514 74.8138 297.547 74.7458 295.215C74.5645 289.007 75.5195 282.729 75.8975 276.536C76.4445 267.573 76.6118 258.534 75.4998 249.6C74.8368 244.275 73.8301 238.991 71.9658 233.91C71.1605 231.715 68.8158 230.265 66.3185 230.907C64.0378 231.494 62.3028 233.99 63.1121 236.195Z" fill="#2F4051"/>
<path fill-rule="evenodd" clip-rule="evenodd" d="M44.6443 226.507C46.238 231.884 47.146 237.403 47.8046 242.788C48.164 245.725 48.4633 248.669 48.7466 251.613C48.9206 253.422 49.264 255.289 49.2203 257.106C49.161 259.585 48.7103 262.095 48.416 264.556C47.9576 268.387 47.491 272.217 47.077 276.052C46.7053 279.494 46.248 282.984 46.2826 286.45C46.3063 288.772 48.376 290.748 50.8736 290.748C53.3446 290.748 55.488 288.781 55.4646 286.45C55.395 279.551 56.64 272.546 57.46 265.705C57.7883 262.966 58.196 260.217 58.3793 257.465C58.4746 256.032 58.2106 254.585 58.0756 253.159C57.791 250.153 57.4976 247.146 57.1483 244.146C56.3696 237.454 55.424 230.72 53.4983 224.222C52.8353 221.985 50.2446 220.603 47.851 221.219C45.4556 221.836 43.979 224.262 44.6443 226.507Z" fill="#2F4051"/>
<path fill-rule="evenodd" clip-rule="evenodd" d="M73.6613 294.632C71.7143 296.223 67.68 296.003 66.1647 293.986C66.1403 295.097 66.1357 296.208 66.164 297.316C66.2803 301.834 73.7917 301.851 73.675 297.316C73.652 296.422 73.6497 295.527 73.6613 294.632Z" fill="#B6BBC1"/>
<path fill-rule="evenodd" clip-rule="evenodd" d="M52.1694 237.874C53.0174 238.764 49.3744 234.436 50.4644 235.053C52.735 236.337 65.482 244.447 68.1347 244.488C71.339 244.538 69.471 241.637 71.856 239.633C74.119 237.732 74.6517 234.643 74.8727 231.804C74.9337 231.019 74.9757 230.199 74.6407 229.478C74.279 228.698 73.531 228.145 72.807 227.632C67.145 223.619 56.006 213.686 48.0947 216.863C38.9534 220.533 48.112 233.615 52.1694 237.874Z" fill="#2F4051"/>
<path fill-rule="evenodd" clip-rule="evenodd" d="M45.5233 174.353C43.8469 176.377 44.0456 177.628 44.1259 180.391C44.2046 183.093 46.1599 185.431 48.9389 186.161L77.3233 193.614C77.3233 193.614 78.9543 183.39 73.3556 180.312C70.3396 178.654 65.6609 176.001 61.9863 173.907C56.5883 170.83 49.3959 169.677 45.5233 174.353Z" fill="#FFC7E3"/>
<path fill-rule="evenodd" clip-rule="evenodd" d="M58.4674 174.007L60.8687 163.988L67.3951 168.101L65.4297 177.222C65.2381 178.704 57.9957 177.41 58.4674 174.007Z" fill="#EFA37E"/>
<path fill-rule="evenodd" clip-rule="evenodd" d="M65.6341 149.414C65.6341 149.414 59.9321 144.196 58.0444 154.414C56.7311 161.522 60.2458 168.41 65.9838 172.161C69.5568 174.498 74.6977 173.026 75.5424 169.516C77.3894 164.494 78.2651 159.665 77.1967 155.223C78.2154 150.992 74.8057 152.021 69.4304 150.896L65.6341 149.414Z" fill="#EFA37E"/>
<path fill-rule="evenodd" clip-rule="evenodd" d="M58.4021 168.687C58.4021 168.687 51.4011 164.924 53.8655 155.203C56.5318 144.683 66.8191 147.234 72.7215 147.622C75.3348 147.793 77.1851 147.726 79.4268 150.338C81.4655 152.713 78.4215 156.858 74.9348 156.61C73.5518 156.512 72.6001 160.064 72.1148 161.199C71.2515 163.219 69.3551 163.628 68.4765 165.579C67.6451 167.426 65.3601 170.347 63.3538 170.252C59.7801 170.083 58.4021 168.687 58.4021 168.687Z" fill="#593100"/>
<path fill-rule="evenodd" clip-rule="evenodd" d="M44.0266 222.394C42.2189 221.74 42.6513 192.66 44.2756 176.6L76.2263 190.834C76.0653 204.506 74.2213 215.295 75.97 231.955L44.0266 222.394Z" fill="#FFC7E3"/>
<path fill-rule="evenodd" clip-rule="evenodd" d="M65.3105 234.928C57.4172 232.232 49.8978 229.28 45.4795 224.207C43.3095 223.034 43.5842 220.966 46.0898 219.611C48.5952 218.257 52.4205 218.109 54.5902 219.281L74.4215 230.002C76.5912 231.175 76.3165 233.243 73.8112 234.598C71.3055 235.952 67.4805 236.101 65.3105 234.928Z" fill="#FFC7E3"/>
<path fill-rule="evenodd" clip-rule="evenodd" d="M76.2256 190.834L70.9602 188.488C70.7446 201.815 69.0006 212.521 70.7179 228.882L70.6306 228.856C70.6676 229.781 69.9646 230.766 68.5586 231.526C66.0529 232.88 62.2279 233.029 60.0579 231.856C56.2682 230.562 52.5692 229.206 49.2539 227.587C53.6126 230.714 59.3536 232.895 65.3092 234.929C67.4792 236.102 71.3042 235.954 73.8099 234.599C75.2159 233.839 75.9189 232.854 75.8819 231.929L75.9692 231.955C74.2206 215.295 76.0646 204.506 76.2256 190.834Z" fill="#FFAAD5"/>
<path fill-rule="evenodd" clip-rule="evenodd" d="M64.1955 293.281L64.2782 296.395C64.2819 296.529 64.3265 296.656 64.4115 296.764C64.9112 297.399 66.8832 299.529 70.4789 298.936C73.6319 298.415 75.3249 297.486 75.9765 297.052C76.1789 296.917 76.2849 296.694 76.2622 296.462L75.9519 293.292C75.9059 292.818 75.3519 292.542 74.9145 292.784C73.3065 293.672 69.7402 294.991 65.2335 292.699C64.7589 292.458 64.1822 292.776 64.1955 293.281Z" fill="#E0E9EE"/>
<path fill-rule="evenodd" clip-rule="evenodd" d="M54.6262 285.411C52.6792 287.003 48.6448 286.782 47.1295 284.766C47.1052 285.877 47.1005 286.987 47.1288 288.096C47.2452 292.614 54.7562 292.631 54.6398 288.096C54.6168 287.202 54.6145 286.307 54.6262 285.411Z" fill="#B6BBC1"/>
<path fill-rule="evenodd" clip-rule="evenodd" d="M45.1565 284.061L45.2391 287.175C45.2428 287.308 45.2875 287.435 45.3725 287.543C45.8721 288.178 47.8441 290.309 51.4398 289.715C54.5928 289.195 56.2858 288.265 56.9375 287.831C57.1398 287.696 57.2458 287.473 57.2232 287.241L56.9128 284.071C56.8668 283.597 56.3128 283.321 55.8755 283.563C54.2675 284.451 50.7011 285.77 46.1945 283.479C45.7198 283.238 45.1431 283.555 45.1565 284.061Z" fill="#E0E9EE"/>
<path fill-rule="evenodd" clip-rule="evenodd" d="M69.6602 178.245C62.3302 177.213 57.3796 181.528 55.6289 171.642C56.6986 171.022 58.0779 171.322 58.7942 172.291C60.0519 173.993 62.7279 175.069 65.6836 174.729C66.5686 174.628 67.4376 175.009 67.9199 175.711L69.6602 178.245Z" fill="#FFE4F1"/>
<path fill-rule="evenodd" clip-rule="evenodd" d="M70.4662 163.358C70.5302 164.909 69.6196 166.202 68.4326 166.245C68.3026 166.249 68.1749 166.239 68.0502 166.215C67.0349 166.016 66.2242 164.895 66.1672 163.513C66.1032 161.962 67.0136 160.669 68.2009 160.626C69.3879 160.583 70.4022 161.806 70.4662 163.358Z" fill="#EFA37E"/>
<path fill-rule="evenodd" clip-rule="evenodd" d="M123.867 243.32L139.11 250.58L135.041 235.975L123.867 243.32Z" fill="#E0E9EE"/>
<path fill-rule="evenodd" clip-rule="evenodd" d="M132.305 247.341L139.108 250.582L137.22 243.803C137.409 246.691 135.022 247.631 132.305 247.341Z" fill="#306D5E"/>
<path fill-rule="evenodd" clip-rule="evenodd" d="M133.936 241.883C131.579 244.884 127.071 245.528 123.866 243.321C120.661 241.114 119.973 236.893 122.33 233.892C124.687 230.891 129.195 230.247 132.4 232.454C135.605 234.661 136.293 238.882 133.936 241.883Z" fill="#2F4051"/>
<path fill-rule="evenodd" clip-rule="evenodd" d="M131.947 232.164L83.2908 183.062L74.4102 193.66L115.605 234.962L131.947 232.164Z" fill="#2F4051"/>
<path fill-rule="evenodd" clip-rule="evenodd" d="M128.775 239.069C128.282 238.73 127.856 238.339 127.485 237.916L127.463 237.937L86.2681 196.635L81.3828 200.721L122.578 242.023L122.599 242.002C122.971 242.424 123.397 242.816 123.89 243.155C126.634 245.045 130.335 244.844 132.822 242.863L128.775 239.069Z" fill="#465564"/>
<path fill-rule="evenodd" clip-rule="evenodd" d="M93.0459 195.424L92.2443 197.882C91.7336 199.448 92.8579 201.324 94.7426 202.052C96.6273 202.779 98.5869 202.093 99.0976 200.527L99.8989 198.069C100.41 196.503 99.2856 194.627 97.4009 193.9C95.5163 193.173 93.5563 193.859 93.0459 195.424Z" fill="#EFA37E"/>
<path fill-rule="evenodd" clip-rule="evenodd" d="M70.8698 187.19C71.1971 191.195 71.6131 195.277 73.0124 199.098C74.3904 202.861 76.4264 206.436 78.3268 209.984C79.6524 212.458 81.6008 215.07 84.5978 215.869C87.5691 216.661 90.4591 215.179 92.3731 213.117C95.8471 209.374 97.6894 204.391 99.2564 199.739C100.402 196.336 94.7008 194.879 93.5594 198.268C92.2621 202.12 90.6351 206.96 87.6861 209.723C87.5951 209.808 86.7431 210.46 87.2681 210.11C87.0111 210.281 86.7428 210.431 86.4604 210.563C87.1471 210.242 86.3761 210.6 86.1664 210.601C87.3084 210.596 85.4248 210.77 86.5564 210.617C86.4154 210.636 86.1098 210.545 85.9754 210.478C86.7411 210.86 85.8541 210.397 85.7301 210.309C85.4668 210.135 85.4798 210.147 85.7688 210.344C85.6421 210.243 85.5194 210.137 85.4011 210.027C85.3364 209.959 84.6534 209.24 84.9641 209.608C83.6748 208.079 82.8864 206.156 81.9724 204.423C81.0434 202.661 80.0194 200.793 79.2698 199.041C77.6424 195.241 77.1091 191.246 76.7778 187.19C76.4894 183.662 70.5791 183.633 70.8698 187.19Z" fill="#EFA37E"/>
<path fill-rule="evenodd" clip-rule="evenodd" d="M67.8994 187.12C69.6864 201.266 74.4498 210.264 81.0488 214.84C84.5194 216.639 87.7654 211.511 86.4391 208.415C79.8678 202.944 77.5604 194.411 76.9354 184.671C76.0764 182.695 73.6348 181.626 71.2881 182.199C68.8424 182.797 67.3481 184.967 67.8994 187.12Z" fill="#FFC7E3"/>
<path fill-rule="evenodd" clip-rule="evenodd" d="M85.653 185.364L85.6537 185.358L82.742 182.49L81.2003 184.361C79.5847 184.715 77.93 185.679 76.641 187.167C75.2447 188.778 74.575 190.658 74.6503 192.308L73.9727 193.13L75.4207 194.795L75.4797 194.77C75.6967 195.063 75.953 195.329 76.2553 195.559C78.5487 197.3 82.439 196.367 84.9453 193.475C87.3257 190.727 87.5963 187.204 85.653 185.364Z" fill="#E0E9EE"/>
<path fill-rule="evenodd" clip-rule="evenodd" d="M83.2082 182.874C83.1535 182.833 83.0938 182.8 83.0375 182.762L83.0428 182.755L79.9088 179.963L77.5312 182.678C76.4428 183.18 75.3952 183.946 74.5182 184.958C73.6642 185.944 73.0878 187.03 72.7812 188.103L70.7852 190.382L73.7078 192.973C73.8388 193.106 73.9792 193.233 74.1325 193.35C76.4255 195.092 80.3162 194.159 82.8225 191.266C85.3285 188.373 85.5012 184.616 83.2082 182.874Z" fill="#DE4371"/>
<path fill-rule="evenodd" clip-rule="evenodd" d="M79.6896 188.474C77.1833 191.367 73.2929 192.3 70.9996 190.558C68.7066 188.816 68.8793 185.059 71.3853 182.166C73.8916 179.273 77.7819 178.34 80.0753 180.082C82.3683 181.824 82.1956 185.581 79.6896 188.474Z" fill="#E0577F"/>
<path fill-rule="evenodd" clip-rule="evenodd" d="M78.6121 165.654C78.6021 165.847 78.4258 165.991 78.2561 166.1C77.7751 166.409 77.2298 166.63 76.6601 166.745C76.3878 166.8 76.0774 166.825 75.8551 166.667C75.6191 166.5 75.5681 166.19 75.5748 165.913C75.5924 165.18 75.9444 163.922 76.8724 163.779C77.2538 163.72 77.0801 161.271 77.1318 161.618C77.3398 163.009 78.1454 164.805 78.6121 165.654Z" fill="#EFA37E"/>
<path fill-rule="evenodd" clip-rule="evenodd" d="M87.686 208.555C87.548 210.789 86.7527 215.597 82.4913 216.223C81.8583 216.316 81.2133 216.128 80.7283 215.736L79.7427 214.939C78.748 214.134 78.7113 212.704 79.6657 211.857C80.8913 210.77 82.4553 209.193 83.4943 207.455C84.1587 206.343 85.6963 206.008 86.785 206.773L86.8003 206.784C87.3926 207.199 87.7287 207.863 87.686 208.555Z" fill="#FFE4F1"/>
<path fill-rule="evenodd" clip-rule="evenodd" d="M81.6636 297.222C82.0246 296.799 82.616 295.981 83.078 295.494C83.945 294.579 83.6886 293.215 82.629 292.437C82.055 292.016 81.3156 291.874 80.6373 292.056L77.918 292.786C79.2653 293.549 80.692 295.065 81.6636 297.222Z" fill="#7D4600"/>
<path fill-rule="evenodd" clip-rule="evenodd" d="M62.3392 286.024C62.6019 285.543 63.0059 284.632 63.3536 284.068C64.0066 283.011 63.4646 281.725 62.2616 281.162C61.6099 280.857 60.8562 280.857 60.2316 281.162L57.7266 282.385C59.2079 282.88 60.9279 284.096 62.3392 286.024Z" fill="#7D4600"/>
<path fill-rule="evenodd" clip-rule="evenodd" d="M200.766 121.991C199.479 125.484 195.835 127.561 192.626 126.63C189.418 125.698 187.86 122.11 189.147 118.616C190.434 115.122 194.078 113.045 197.286 113.977C200.495 114.909 202.052 118.496 200.766 121.991Z" fill="#FFFFFE"/>
<path fill-rule="evenodd" clip-rule="evenodd" d="M257.537 351.157C256.685 351.157 255.729 350.939 254.704 350.483C250.669 348.682 247.111 343.844 246.759 339.671C246.571 337.459 247.331 335.885 248.683 335.161L285.418 314.617L285.42 314.619C286.036 314.181 286.807 313.948 287.691 313.948C288.541 313.948 289.495 314.163 290.519 314.62C291.478 315.048 292.408 315.652 293.277 316.373L299.931 312.776C298.504 311.349 297.33 309.821 296.472 308.197C294.997 305.408 294.556 302.592 295.022 299.868C293.207 289.204 305.594 279.012 325.337 275.962C329.196 275.366 333.083 275.082 336.906 275.082C355.196 275.082 372.026 281.587 377.303 291.568C378.776 294.356 379.216 297.172 378.753 299.897C380.566 310.56 368.18 320.752 348.436 323.802C344.58 324.398 340.696 324.682 336.876 324.681C325.936 324.681 315.516 322.351 307.78 318.343L298.105 323.573C298.285 324.199 298.412 324.822 298.463 325.43C298.666 327.827 297.765 329.475 296.2 330.108H296.201L259.728 350.542C259.593 350.63 259.45 350.708 259.302 350.78L259.254 350.805H259.254C258.75 351.036 258.173 351.157 257.537 351.157ZM358.746 309.833C355.09 311.772 350.516 313.259 345.246 314.074C343.136 314.399 341.02 314.601 338.916 314.689C341.02 314.601 343.136 314.399 345.246 314.074C350.516 313.259 355.09 311.772 358.746 309.833ZM362.673 307.304C362.1 307.757 361.483 308.195 360.826 308.617C361.483 308.195 362.1 307.757 362.673 307.304ZM367.526 301.288C367.193 302.099 366.75 302.893 366.206 303.664C365.846 304.178 365.436 304.682 364.986 305.174C365.436 304.682 365.846 304.178 366.206 303.664C366.75 302.893 367.193 302.099 367.526 301.288Z" fill="#F4F5F6"/>
<path fill-rule="evenodd" clip-rule="evenodd" d="M298.559 302.128C293.74 293.012 303.503 283.511 320.366 280.906C337.229 278.301 354.806 283.579 359.622 292.695C364.442 301.811 354.679 311.312 337.816 313.917C320.954 316.522 303.378 311.244 298.559 302.128ZM369.872 291.411C363.492 279.345 340.229 272.358 317.908 275.806C295.587 279.254 282.664 291.831 289.043 303.898C295.422 315.965 318.687 322.951 341.009 319.504C363.329 316.055 376.252 303.478 369.872 291.411Z" fill="#6E7881"/>
<path fill-rule="evenodd" clip-rule="evenodd" d="M276.705 326.828L267.633 321.922L298.812 305.066L307.884 309.971L276.705 326.828Z" fill="#9EA6AD"/>
<path fill-rule="evenodd" clip-rule="evenodd" d="M298.559 297.986C293.74 288.87 303.503 279.368 320.366 276.763C337.229 274.158 354.806 279.436 359.622 288.552C364.442 297.668 354.679 307.17 337.816 309.775C320.954 312.38 303.378 307.102 298.559 297.986ZM369.872 287.269C363.492 275.202 340.229 268.216 317.908 271.664C295.587 275.112 282.664 287.689 289.043 299.756C295.422 311.822 318.687 318.809 341.009 315.361C363.329 311.913 376.252 299.336 369.872 287.269Z" fill="#C8CDD1"/>
<path fill-rule="evenodd" clip-rule="evenodd" d="M291.555 321.926C291.907 326.097 288.922 328.02 284.887 326.219C280.852 324.419 277.295 319.579 276.942 315.408C276.589 311.237 279.575 309.315 283.61 311.115C287.645 312.914 291.202 317.755 291.555 321.926Z" fill="#465564"/>
<path fill-rule="evenodd" clip-rule="evenodd" d="M241.773 331.655L278.509 311.111L289.291 326.602L252.345 347.302L241.773 331.655Z" fill="#465564"/>
<path fill-rule="evenodd" clip-rule="evenodd" d="M254.465 342.684C254.818 346.857 251.833 348.779 247.798 346.978C243.763 345.177 240.206 340.34 239.853 336.167C239.5 331.997 242.485 330.074 246.52 331.875C250.555 333.673 254.112 338.514 254.465 342.684Z" fill="#C8CDD1"/>
<path fill-rule="evenodd" clip-rule="evenodd" d="M335.494 288.915L311.819 291.087C310.603 291.198 309.521 290.366 309.401 289.227C309.282 288.089 310.171 287.075 311.388 286.963L335.064 284.791C336.281 284.68 337.364 285.512 337.481 286.651C337.601 287.79 336.711 288.803 335.494 288.915Z" fill="#FFFFFE"/>
<path fill-rule="evenodd" clip-rule="evenodd" d="M335.692 295.221L312.014 297.394C310.798 297.505 309.716 296.672 309.597 295.534C309.478 294.395 310.367 293.382 311.583 293.27L335.258 291.098C336.475 290.986 337.558 291.819 337.678 292.957C337.795 294.096 336.908 295.11 335.692 295.221Z" fill="#FFFFFE"/>
<path fill-rule="evenodd" clip-rule="evenodd" d="M307.314 172.957C299.16 172.957 290.988 171.268 284.747 167.894C272.316 161.175 272.254 150.313 284.607 143.635C290.758 140.31 298.828 138.648 306.915 138.648C315.07 138.648 323.241 140.337 329.482 143.711C341.913 150.431 341.976 161.292 329.623 167.971C323.472 171.296 315.401 172.957 307.314 172.957Z" fill="#F4F5F6"/>
<path fill-rule="evenodd" clip-rule="evenodd" d="M306.545 163.742C297.534 168.613 282.879 168.589 273.811 163.686C264.744 158.785 264.698 150.862 273.709 145.991C282.719 141.119 297.375 141.144 306.442 146.046C315.51 150.948 315.556 158.871 306.545 163.742Z" fill="#C8CDD1"/>
<path fill-rule="evenodd" clip-rule="evenodd" d="M256.164 124.479L267.056 155.743L313.107 156.452L323.62 126.319L256.164 124.479Z" fill="#C8CDD1"/>
<path fill-rule="evenodd" clip-rule="evenodd" d="M310.537 125.674L300.024 155.637H300.018C299.422 160.319 297.242 161.304 293.463 163.346C290.731 164.823 287.477 166.123 284.02 166.678C291.797 167.902 300.459 166.49 306.547 163.198C310.325 161.156 312.505 160.319 313.101 155.637H313.107L323.62 125.674H310.537Z" fill="#B6BBC1"/>
<path fill-rule="evenodd" clip-rule="evenodd" d="M314.381 135.603C301.07 142.799 279.42 142.762 266.025 135.521C252.629 128.28 252.562 116.575 265.873 109.379C279.185 102.183 300.835 102.22 314.23 109.461C327.625 116.703 327.693 128.407 314.381 135.603Z" fill="#FFFFFE"/>
<path fill-rule="evenodd" clip-rule="evenodd" d="M310.709 133.149C299.283 139.326 280.699 139.295 269.201 133.079C257.703 126.863 257.645 116.816 269.071 110.64C280.497 104.463 299.081 104.494 310.579 110.71C322.077 116.926 322.135 126.972 310.709 133.149Z" fill="#465564"/>
<path fill-rule="evenodd" clip-rule="evenodd" d="M267.487 115.558C265.747 113.418 264.24 110.948 264.574 108.152C264.722 106.91 265.301 105.719 266.299 104.891C268.969 102.676 272.605 104.106 274.855 106.212C276.781 108.014 278.151 110.31 280.23 111.957C277.568 104.07 274.906 96.182 272.244 88.2945C271.224 85.2697 270.189 82.0384 271.898 78.9918C272.836 77.3192 274.776 76.2692 276.768 76.5729C281.857 77.3495 281.111 85.4114 285.635 87.7224C282.339 81.8567 280.081 75.4821 278.978 68.9354C278.178 64.1887 278.048 59.0223 281.671 55.1605C283.675 53.024 286.783 51.9772 289.692 52.7959C294.908 54.2644 295.898 60.3485 296.075 65.3011C296.296 71.4676 296.516 77.6341 296.737 83.8009C297.923 79.2621 299.59 74.2105 302.949 71.0553C304.709 69.402 307.721 70.4423 307.919 72.7695C308.525 79.9232 307.014 87.2348 303.544 93.637C304.17 92.6079 305.015 91.704 306.004 90.9674C308.634 89.0073 312.51 90.788 312.445 93.9353C312.298 100.981 309.211 107.982 303.856 112.952L306.464 110.234C307.67 108.978 309.905 109.789 309.88 111.477C309.81 116.203 307.617 120.916 303.817 124.046C292.223 133.596 275.355 125.229 267.487 115.558Z" fill="#00B86E"/>
<path fill-rule="evenodd" clip-rule="evenodd" d="M343.065 182.831C342.008 182.831 340.875 183.068 340.028 183.524C339.278 183.93 339.012 184.366 339.012 184.617C339.012 184.912 339.372 185.15 339.582 185.265L354.402 193.276C355.672 193.964 358.112 193.851 359.622 193.034C360.375 192.628 360.642 192.192 360.642 191.942C360.642 191.646 360.282 191.408 360.068 191.293L345.252 183.282C344.692 182.979 343.902 182.831 343.065 182.831ZM356.608 195.603C355.418 195.603 354.275 195.37 353.402 194.898L338.582 186.887C337.568 186.339 337.012 185.533 337.012 184.617C337.012 183.585 337.748 182.595 339.028 181.902C341.182 180.739 344.352 180.634 346.252 181.661L361.068 189.671C362.082 190.219 362.642 191.025 362.642 191.942C362.642 192.974 361.905 193.963 360.622 194.656C359.462 195.284 358.005 195.603 356.608 195.603Z" fill="#E30072"/>
<path fill-rule="evenodd" clip-rule="evenodd" d="M345.238 192.651C345.071 192.651 344.898 192.611 344.741 192.526L330.916 185.052C329.739 184.415 329.008 183.321 329.008 182.197C329.008 181.476 329.323 180.095 331.438 178.952C334.818 177.124 338.901 177.686 340.721 178.67L354.544 186.143C355.024 186.402 355.188 186.975 354.911 187.422C354.634 187.87 354.024 188.024 353.544 187.765L339.721 180.292C338.358 179.554 335.101 179.134 332.438 180.574C331.515 181.072 331.008 181.649 331.008 182.197C331.008 182.654 331.355 183.127 331.916 183.43L345.741 190.903C346.218 191.162 346.381 191.735 346.108 192.182C345.921 192.483 345.584 192.651 345.238 192.651Z" fill="#E30072"/>
<path fill-rule="evenodd" clip-rule="evenodd" d="M355.852 190.449C355.682 190.449 355.512 190.408 355.352 190.323L342.252 183.241C341.775 182.983 341.612 182.41 341.889 181.962C342.165 181.515 342.775 181.361 343.252 181.62L356.352 188.701C356.832 188.96 356.995 189.532 356.719 189.98C356.535 190.281 356.199 190.449 355.852 190.449Z" fill="#AD3C68"/>
</svg>
