<svg width="503" height="124" viewBox="0 0 503 124" fill="none" xmlns="http://www.w3.org/2000/svg">
<path fill-rule="evenodd" clip-rule="evenodd" d="M489.885 70.1286C492.858 71.8426 494.849 75.7811 494.342 78.9286L471.22 221.728C470.712 224.878 467.897 226.039 464.924 224.325L246.101 98.0565C243.13 96.3425 241.133 92.404 241.646 89.2565L264.761 -53.545C265.269 -56.6934 268.086 -57.8551 271.058 -56.1418L489.885 70.1286Z" fill="#F4F5F6"/>
<path fill-rule="evenodd" clip-rule="evenodd" d="M497.469 49.3362L280.581 -75.8151L280.569 -75.8236L280.246 -76.0095L280.241 -76.0111C279.999 -76.152 279.704 -76.3203 279.669 -76.3388C279.595 -76.3792 279.519 -76.4173 279.444 -76.4541C279.37 -76.4916 279.294 -76.5274 279.219 -76.5614C279.145 -76.5955 279.069 -76.6272 278.994 -76.6572C278.913 -76.6889 278.833 -76.7183 278.757 -76.746C278.677 -76.7738 278.596 -76.7997 278.521 -76.8233C278.434 -76.8487 278.354 -76.8717 278.267 -76.8925L278.256 -76.896L278.249 -76.8966L278.227 -76.9012C278.158 -76.919 278.082 -76.9353 278.013 -76.9491L277.903 -76.9676L277.81 -76.9819L277.741 -76.9935C277.655 -77.0057 277.569 -77.0142 277.476 -77.0206L277.458 -77.0229H277.453C277.349 -77.0304 277.246 -77.0338 277.146 -77.0333L277.106 -77.0316L276.968 -77.0253C276.916 -77.0224 276.859 -77.0224 276.807 -77.0171L276.76 -77.0108C276.685 -77.0033 276.611 -76.9912 276.535 -76.9791L276.42 -76.9618L276.391 -76.9549C276.246 -76.9243 276.103 -76.8851 275.964 -76.8372L275.936 -76.8291L275.889 -76.8089C275.71 -76.742 275.537 -76.6648 275.37 -76.5689L269.003 -72.8703C269.165 -72.9637 269.332 -73.0393 269.511 -73.105C269.58 -73.1304 269.649 -73.1512 269.72 -73.1719C269.8 -73.1973 269.887 -73.2221 269.974 -73.2412C270.072 -73.2637 270.175 -73.2821 270.279 -73.296L270.4 -73.3133C270.545 -73.3277 270.694 -73.334 270.845 -73.3324L270.931 -73.3295C271.082 -73.3242 271.238 -73.3133 271.398 -73.2914L271.434 -73.2856C271.601 -73.2608 271.768 -73.2274 271.935 -73.1835L271.982 -73.1719C272.143 -73.1275 272.316 -73.0738 272.484 -73.0105L272.535 -72.9915C272.715 -72.9228 272.899 -72.8449 273.078 -72.7549C273.153 -72.718 273.228 -72.6799 273.304 -72.6395C273.361 -72.6084 273.419 -72.5766 273.476 -72.5432L491.9 53.4948C492.149 53.6394 492.454 53.6381 492.702 53.4935L497.469 50.7245C498.006 50.4152 498.006 49.6443 497.469 49.3362Z" fill="#3BB7C2"/>
<path fill-rule="evenodd" clip-rule="evenodd" d="M503.137 57.5359C503.132 57.4554 503.132 57.3737 503.126 57.292L503.121 57.258V57.2241C503.115 57.1675 503.108 57.1109 503.108 57.0543C503.097 56.9751 503.092 56.8946 503.081 56.8154L503.063 56.7009L503.057 56.6519L503.045 56.5752C503.034 56.496 503.016 56.4155 503.005 56.335C502.988 56.2596 502.976 56.1841 502.959 56.1087V56.0999L502.954 56.0936C502.936 56.0131 502.918 55.9326 502.896 55.8521C502.878 55.7729 502.855 55.6924 502.838 55.6132L502.814 55.5503L502.803 55.5038L502.769 55.3768C502.745 55.3001 502.716 55.2246 502.693 55.1479C502.676 55.0913 502.653 55.0335 502.635 54.9769L502.624 54.9518L502.618 54.9266C502.589 54.8537 502.56 54.7833 502.537 54.7103C502.508 54.6424 502.479 54.5733 502.451 54.5054L502.417 54.4186L502.399 54.3809L502.364 54.3004C502.335 54.2287 502.301 54.1583 502.266 54.0879C502.232 54.0174 502.203 53.947 502.168 53.8766L502.156 53.8577L502.139 53.8263C502.105 53.7521 502.065 53.6779 502.024 53.605C501.989 53.5371 501.949 53.4704 501.909 53.4025L501.833 53.268L501.799 53.2038C501.735 53.0944 501.666 52.9888 501.597 52.8819L501.528 52.7763L501.516 52.7599C501.429 52.6266 501.336 52.4946 501.238 52.3663L501.198 52.311L501.164 52.262L501.06 52.1299C501.002 52.057 500.944 51.9853 500.886 51.9149L500.817 51.8357L500.783 51.7942L500.719 51.7187C500.661 51.6533 500.605 51.5892 500.547 51.5251L500.408 51.3817L500.385 51.3566L500.362 51.3327C500.298 51.2685 500.235 51.2044 500.166 51.1415C500.102 51.0774 500.032 51.0145 499.963 50.9517L499.958 50.9479L499.952 50.9429C499.888 50.8838 499.819 50.8259 499.749 50.7681C499.68 50.7077 499.611 50.6486 499.536 50.592L499.508 50.5719L499.479 50.548C499.426 50.5078 499.375 50.4663 499.317 50.426C499.248 50.3732 499.172 50.3217 499.098 50.2714L499.04 50.2299L499.016 50.2148L499.011 50.2122L498.878 50.1255C498.809 50.079 498.735 50.0337 498.659 49.9897L493.361 46.9314L486.856 50.8586C486.856 50.8586 492.437 53.7785 492.513 53.825C492.587 53.8716 492.657 53.9194 492.731 53.9697C492.807 54.02 492.876 54.0715 492.951 54.1256C493.026 54.1797 493.095 54.2337 493.164 54.2903L493.257 54.3645C493.373 54.4563 493.482 54.5519 493.591 54.6512H493.598C493.707 54.7518 493.817 54.8562 493.921 54.9631L493.961 55.0033C494.064 55.1052 494.162 55.2108 494.262 55.3177L494.307 55.368C494.4 55.4736 494.492 55.5818 494.585 55.6924L494.63 55.7528C494.717 55.8634 494.804 55.9766 494.89 56.0911C494.936 56.1502 494.977 56.2105 495.018 56.2721C495.069 56.3438 495.121 56.4168 495.167 56.4909C495.225 56.5777 495.283 56.6657 495.334 56.7538C495.37 56.8104 495.41 56.8669 495.444 56.926L495.531 57.0795C495.583 57.17 495.635 57.2605 495.681 57.3523L495.722 57.4265C495.785 57.5535 495.849 57.6818 495.912 57.8113L495.923 57.844C495.987 57.9798 496.05 58.1169 496.103 58.2552L496.119 58.298C496.177 58.4325 496.23 58.5696 496.275 58.7054L496.293 58.7582C496.339 58.8915 496.386 59.0273 496.426 59.1619L496.442 59.2235C496.477 59.358 496.518 59.4926 496.547 59.6271L496.564 59.69C496.593 59.8258 496.622 59.9604 496.645 60.0962L496.656 60.1553C496.68 60.2924 496.703 60.4282 496.714 60.564L496.72 60.6181C496.737 60.7564 496.749 60.8934 496.76 61.0293C496.76 61.0984 496.765 61.1663 496.765 61.2342C496.772 61.316 496.772 61.3965 496.772 61.4769C496.772 61.5612 496.765 61.6454 496.765 61.7284C496.76 61.8127 496.754 61.8969 496.749 61.9799C496.743 62.0705 496.731 62.161 496.72 62.2515C496.714 62.3207 496.703 62.3899 496.691 62.459C496.691 62.459 496.667 62.5961 496.633 62.8338L496.056 66.3699C495.738 66.185 495.029 65.7763 495.011 65.7675L488.421 69.3351C488.421 69.3351 489.996 70.248 490.07 70.2945C490.14 70.3423 490.215 70.3901 490.291 70.4391C490.365 70.4894 490.435 70.5423 490.509 70.5951C490.579 70.6491 490.654 70.7045 490.723 70.761L490.815 70.8327C490.931 70.927 491.04 71.0214 491.151 71.1207C491.265 71.2226 491.376 71.3257 491.479 71.4326L491.519 71.4728C491.623 71.5759 491.722 71.6803 491.82 71.7884L491.86 71.8375C491.958 71.9431 492.051 72.0525 492.143 72.1632L492.189 72.2223C492.276 72.3329 492.363 72.4461 492.448 72.5605C492.489 72.6196 492.53 72.6813 492.575 72.7416C492.628 72.8146 492.68 72.8875 492.726 72.9617C492.784 73.0472 492.841 73.1365 492.894 73.2232C492.928 73.2811 492.963 73.3377 492.997 73.3955L493.083 73.5489C493.136 73.6395 493.188 73.7313 493.239 73.8231L493.28 73.8973C493.344 74.0243 493.407 74.1513 493.471 74.2821L493.482 74.3135C493.545 74.4506 493.603 74.5876 493.661 74.7259L493.678 74.7674C493.736 74.9033 493.783 75.0391 493.834 75.1749L493.852 75.2277C493.897 75.3622 493.944 75.4968 493.979 75.6313L494.001 75.6942C494.037 75.8275 494.071 75.9633 494.106 76.0979L494.117 76.1595C494.151 76.2953 494.18 76.4311 494.204 76.5669L494.215 76.6248C494.238 76.7618 494.255 76.8989 494.273 77.0347L494.278 77.0888C494.284 77.1466 494.289 77.2032 494.296 77.2598L473.847 203.583C473.738 204.252 471.14 208.535 471.729 208.194L473.576 206.629L471.4 220.054C471.296 220.723 468.699 225.005 469.282 224.664L475.515 219.385C476.837 218.268 477.714 216.717 477.986 215.011L500.344 76.9039C500.454 76.2362 500.616 75.2302 500.616 75.2302C500.627 75.161 500.639 75.0919 500.645 75.0227C500.656 74.9636 500.661 74.9045 500.667 74.8442V74.8102L500.674 74.7511C500.685 74.6681 500.685 74.5839 500.69 74.4996C500.696 74.4342 500.696 74.3663 500.696 74.2997V74.2481C500.696 74.1676 500.696 74.0871 500.696 74.0054C500.69 73.9249 500.685 73.8432 500.685 73.7627L500.679 73.7287V73.6948L500.667 73.5489L502.791 60.4345C502.896 59.7655 503.063 58.7595 503.063 58.7595C503.068 58.6916 503.081 58.6212 503.092 58.552C503.097 58.4929 503.103 58.4338 503.108 58.3747V58.3646L503.115 58.3407V58.2816C503.126 58.1986 503.132 58.1144 503.132 58.0301C503.137 57.9635 503.137 57.8968 503.137 57.8302V57.7774C503.137 57.6969 503.137 57.6164 503.137 57.5359Z" fill="#22A3AF"/>
<path fill-rule="evenodd" clip-rule="evenodd" d="M492.304 53.4898C495.271 55.2038 497.268 59.141 496.754 62.2898L473.638 205.089C473.13 208.239 470.309 209.4 467.342 207.686L248.515 81.4164C245.548 79.7036 243.551 75.7652 244.064 72.6164L267.173 -70.1846C267.688 -73.333 270.504 -74.4947 273.476 -72.7815L492.304 53.4898Z" fill="#E4EAFF"/>
<path fill-rule="evenodd" clip-rule="evenodd" d="M484.489 62.6784C487.306 64.2729 489.216 67.7046 488.755 70.3466L467.844 190.146C467.382 192.789 464.728 193.636 461.911 192.04L254.355 74.5266C251.539 72.9308 249.629 69.4991 250.09 66.8584L270.995 -52.9435C271.456 -55.5848 274.111 -56.4322 276.928 -54.8378L484.489 62.6784Z" fill="white"/>
<path fill-rule="evenodd" clip-rule="evenodd" d="M467.567 234.515L467.516 227.874L458.969 231.181L457.133 226.961L243.066 103.437C240.487 101.949 235.49 102.138 232.512 103.856L139.897 157.036V155.555L125.687 162.396L123.645 161.596L123.881 168.094C124.098 169.511 124.627 170.094 125.5 170.599L348.258 299.479C350.839 300.967 355.381 300.949 358.359 299.231L465.103 237.721C466.731 236.783 467.556 235.619 467.562 234.473L467.567 234.515Z" fill="#22A3AF"/>
<path fill-rule="evenodd" clip-rule="evenodd" d="M348.131 290.835L125.37 162.294C122.792 160.806 123.118 158.184 126.096 156.466L232.839 94.8716C235.816 93.1526 240.36 92.9652 242.939 94.4528L465.704 222.993C468.278 224.481 467.955 227.104 464.976 228.822L358.232 290.417C355.254 292.134 350.712 292.323 348.131 290.835Z" fill="#FFFFFE"/>
<path fill-rule="evenodd" clip-rule="evenodd" d="M348.131 286.054L125.37 157.514C122.792 156.026 123.118 153.403 126.096 151.685L232.839 90.0902C235.816 88.3724 240.36 88.1851 242.939 89.6727L465.704 218.212C468.278 219.701 467.955 222.324 464.976 224.042L358.232 285.635C355.254 287.354 350.712 287.542 348.131 286.054Z" fill="#E4EAFF"/>
<path fill-rule="evenodd" clip-rule="evenodd" d="M251.198 120.774C250.875 120.961 250.217 120.885 249.732 120.603L236.206 112.804C235.718 112.522 235.585 112.141 235.908 111.954L244.867 106.782C245.19 106.594 245.849 106.672 246.339 106.953L259.861 114.753C260.353 115.035 260.485 115.414 260.162 115.602L251.198 120.774Z" fill="#056D78"/>
<path fill-rule="evenodd" clip-rule="evenodd" d="M248.272 133.324C247.944 133.514 247.285 133.436 246.795 133.155L223.864 119.929C223.377 119.648 223.243 119.267 223.57 119.079L232.532 113.904C232.85 113.721 233.512 113.797 233.999 114.078L256.93 127.303C257.414 127.585 257.547 127.966 257.229 128.15L248.272 133.324Z" fill="#056D78"/>
<path fill-rule="evenodd" clip-rule="evenodd" d="M240.331 142.991C240.007 143.179 239.355 143.102 238.864 142.818L211.529 127.051C211.041 126.77 210.903 126.392 211.228 126.205L220.192 121.029C220.509 120.846 221.17 120.922 221.658 121.203L248.994 136.971C249.484 137.255 249.611 137.632 249.294 137.816L240.331 142.991Z" fill="#056D78"/>
<path fill-rule="evenodd" clip-rule="evenodd" d="M269.818 131.513C269.495 131.699 268.836 131.625 268.345 131.339L254.829 123.544C254.344 123.263 254.211 122.882 254.534 122.695L263.491 117.523C263.815 117.336 264.479 117.414 264.964 117.694L278.481 125.489C278.971 125.773 279.103 126.152 278.775 126.339L269.818 131.513Z" fill="#056D78"/>
<path fill-rule="evenodd" clip-rule="evenodd" d="M475.706 70.1526L405.432 30.1503C401.588 27.9597 397.588 30.8042 396.543 36.4717L391.291 65.0648L391.274 65.1553L381.935 115.951C380.955 121.315 382.934 126.095 387.141 128.489L451.69 165.232C457.583 168.586 466.673 163.385 468.053 155.871L473.31 127.238L473.322 127.188L481.321 83.6745C482.383 77.8888 480.242 72.7343 475.706 70.1526Z" fill="white"/>
<path fill-rule="evenodd" clip-rule="evenodd" d="M354.329 71.3261L290.128 35.1655C286.941 33.371 284.904 28.5095 285.608 24.3633L286.981 16.1971C287.681 12.0514 290.861 10.1281 294.046 11.9232L358.249 48.0838C361.434 49.8782 363.471 54.7397 362.767 58.8857L361.394 67.0519C360.696 71.1979 357.516 73.1218 354.329 71.3261Z" fill="#5CC7D0"/>
<path fill-rule="evenodd" clip-rule="evenodd" d="M361.452 39.5177L297.255 3.35727C294.064 1.56206 292.032 -3.29893 292.731 -7.44516L294.104 -15.6109C294.802 -19.7571 297.982 -21.6803 301.174 -19.8852L365.37 16.2748C368.557 18.0705 370.594 22.9315 369.896 27.0772L368.516 35.2434C367.817 39.3894 364.638 41.3134 361.452 39.5177Z" fill="#5CC7D0"/>
<path fill-rule="evenodd" clip-rule="evenodd" d="M304.106 31.4676L302.294 30.493L303.817 29.8127L302.784 27.7655L301.26 28.447L301.601 26.5095L299.8 25.5405L299.455 27.478L298.415 25.4187L296.897 26.0954L297.942 28.154L296.123 27.1792L295.784 29.1047L297.601 30.0805L296.072 30.7608L297.111 32.8068L298.635 32.1252L298.289 34.0643L300.095 35.0338L300.435 33.0948L301.474 35.1546L302.992 34.478L301.953 32.4182L303.765 33.394L304.106 31.4676Z" fill="#FFFFFE"/>
<path fill-rule="evenodd" clip-rule="evenodd" d="M315.989 37.8543L314.177 36.8797L315.701 36.1994L314.668 34.1522L313.144 34.8325L313.484 32.8947L311.684 31.9265L311.338 33.8643L310.299 31.8045L308.781 32.4823L309.825 34.5408L308.008 33.5662L307.667 35.4915L309.486 36.466L307.955 37.1463L308.994 39.1935L310.518 38.512L310.177 40.451L311.978 41.4193L312.319 39.4815L313.364 41.54L314.875 40.8648L313.837 38.805L315.649 39.7795L315.989 37.8543Z" fill="#FFFFFE"/>
<path fill-rule="evenodd" clip-rule="evenodd" d="M327.873 44.2398L326.061 43.2652L327.585 42.5849L326.551 40.5377L325.028 41.2192L325.368 39.2814L323.567 38.3132L323.221 40.2497L322.183 38.1912L320.67 38.8677L321.71 40.9262L319.891 39.9517L319.551 41.8769L321.369 42.8527L319.845 43.5331L320.878 45.579L322.401 44.8974L322.061 46.8365L323.861 47.806L324.202 45.867L325.247 47.9268L326.76 47.2502L325.72 45.1904L327.533 46.165L327.873 44.2398Z" fill="#FFFFFE"/>
<path fill-rule="evenodd" clip-rule="evenodd" d="M339.756 50.6268L337.944 49.651L339.468 48.9706L338.435 46.9247L336.912 47.605L337.251 45.6684L335.451 44.6989L335.105 46.6367L334.066 44.5769L332.553 45.2535L333.592 47.312L331.775 46.3374L331.434 48.2639L333.253 49.2385L331.722 49.9188L332.762 51.9647L334.285 51.2844L333.944 53.2222L335.745 54.1918L336.086 52.254L337.131 54.3125L338.642 53.6372L337.604 51.5774L339.416 52.552L339.756 50.6268Z" fill="#FFFFFE"/>
<path fill-rule="evenodd" clip-rule="evenodd" d="M351.641 57.012L349.828 56.0375L351.352 55.3571L350.318 53.3099L348.795 53.9902L349.136 52.0537L347.335 51.0842L346.994 53.0232L345.949 50.9634L344.438 51.64L345.477 53.6985L343.665 52.7239L343.324 54.6492L345.136 55.6237L343.612 56.3053L344.645 58.3513L346.168 57.6697L345.829 59.6088L347.629 60.577L347.969 58.6392L349.014 60.699L350.527 60.0225L349.488 57.9627L351.3 58.9373L351.641 57.012Z" fill="#FFFFFE"/>
<path fill-rule="evenodd" clip-rule="evenodd" d="M353.683 27.1822L303.933 -1.28806C302.397 -2.16542 301.267 -4.29159 301.416 -6.01399C301.567 -7.73589 302.94 -8.42638 304.476 -7.54903L354.226 20.9206C355.762 21.798 356.892 23.9248 356.743 25.6467C356.593 27.3686 355.213 28.0593 353.683 27.1822Z" fill="#FFFFFE"/>
<path fill-rule="evenodd" clip-rule="evenodd" d="M345.343 105.886L281.147 69.7266C277.955 67.9309 275.918 63.0694 276.622 58.9234L277.995 50.7572C278.693 46.6112 281.873 44.6885 285.06 46.4842L349.263 82.6436C352.448 84.4394 354.485 89.3008 353.781 93.4456L352.408 101.613C351.71 105.758 348.53 107.682 345.343 105.886Z" fill="#C05793"/>
<path fill-rule="evenodd" clip-rule="evenodd" d="M337.576 93.5508L287.824 65.081C286.29 64.2032 285.158 62.0768 285.308 60.354C285.459 58.6325 286.832 57.9422 288.367 58.8186L338.118 87.2884C339.653 88.1662 340.785 90.2926 340.634 92.0141C340.485 93.7369 339.105 94.4273 337.576 93.5508Z" fill="#FFFFFE"/>
<path fill-rule="evenodd" clip-rule="evenodd" d="M462.483 114.914C465.836 97.3532 456.66 74.4604 441.988 63.7818C435.235 58.8687 428.5 57.405 422.867 58.9567V58.9504L422.803 58.9731C422.047 59.1856 421.302 59.4534 420.587 59.7754L407.197 65.1612L413.783 65.4052C411.722 68.2283 410.181 71.8612 409.344 76.2411C405.991 93.802 415.167 116.695 429.845 127.374C432.846 129.562 435.847 131.054 438.75 131.916L439.922 135.755L449.254 132.124C449.762 131.973 450.264 131.789 450.754 131.586L450.922 131.527L450.917 131.518C456.573 129.129 460.855 123.438 462.483 114.914Z" fill="#FFAAD5"/>
<path fill-rule="evenodd" clip-rule="evenodd" d="M450.264 119.722C446.91 137.285 432.297 142.863 417.621 132.183C402.949 121.503 393.772 98.6101 397.126 81.0492C400.478 63.4894 415.093 57.9112 429.764 68.5899C444.441 79.2698 453.618 102.163 450.264 119.722Z" fill="#CB6E9F"/>
<path fill-rule="evenodd" clip-rule="evenodd" d="M402.227 81.5488C405.84 93.8031 409.453 106.059 413.067 118.316C414.209 122.204 419.334 124.96 423.016 122.362C428.766 118.312 434.507 114.261 440.25 110.211C443.235 108.105 444.643 104.293 442.68 100.943C440.955 97.9919 436.413 96.3936 433.411 98.5137C427.663 102.564 427.945 102.365 422.202 106.417C418.883 105.068 425.52 107.766 422.202 106.417C418.589 94.1603 418.907 90.2029 415.294 77.9473C412.836 69.6026 399.751 73.1537 402.227 81.5488Z" fill="#FFFFFE"/>
<path fill-rule="evenodd" clip-rule="evenodd" d="M167.049 30.7273C170.091 36.9695 175.015 49.376 181.617 51.803C190.751 55.1618 200.452 44.2479 207.861 38.7942C211.18 36.3521 208.016 30.6871 204.652 33.1631C198.655 37.5782 191.081 41.4248 183.58 38.5288C178.566 36.5935 174.979 32.2313 172.682 27.5199C170.854 23.7704 165.224 26.9846 167.049 30.7273Z" fill="#98E5EC"/>
<path fill-rule="evenodd" clip-rule="evenodd" d="M240.371 14.8615C240.371 14.8615 228.226 16.3404 224.596 3.11303C219.332 7.34704 213.833 3.40955 210.575 0.0517719L207.64 -3.50607C205.121 -2.89128 203.653 -2.50245 201.121 -1.29111L202.181 0.967861L202.505 1.59888C193.774 14.9139 203.776 38.4781 205.737 42.1613C207.983 46.384 211.798 53.0299 211.798 53.0299C211.798 53.0299 219.756 52.9896 223.21 51.966C226.665 50.9437 248.947 40.275 240.371 14.8615Z" fill="#A2AFCE"/>
<path fill-rule="evenodd" clip-rule="evenodd" d="M233.851 17.0762C233.851 17.0762 221.707 18.5547 218.077 5.32728C209.882 11.9187 201.121 -1.29132 201.121 -1.29132C184.142 9.78449 196.97 40.1527 199.217 44.3754C200.755 47.2664 203.028 51.2942 204.31 53.5464C204.911 54.6039 206.046 55.2402 207.262 55.2025C209.852 55.1208 214.326 54.8818 216.691 54.1814C220.145 53.1578 242.426 42.4904 233.851 17.0762Z" fill="#FFFFFE"/>
<path fill-rule="evenodd" clip-rule="evenodd" d="M228.526 19.9099C228.526 19.9099 218.893 21.0832 216.015 10.5924C209.515 15.8202 202.567 5.34256 202.567 5.34256C189.102 14.1272 199.276 38.2127 201.057 41.5615C202.019 43.3685 203.328 45.9149 204.332 47.8791C205.242 49.6598 207.178 50.6708 209.161 50.4017C211.129 50.1338 213.503 49.7566 214.916 49.3378C217.656 48.5267 235.325 40.0663 228.526 19.9099Z" fill="#5CC7D0"/>
<path fill-rule="evenodd" clip-rule="evenodd" d="M228.525 19.9096C228.525 19.9096 218.898 21.0817 216.016 10.5983L207.418 50.3108C207.978 50.4466 208.566 50.4831 209.161 50.4014C211.129 50.1335 213.503 49.7563 214.915 49.3375C217.656 48.5264 235.325 40.066 228.525 19.9096Z" fill="#3BB7C2"/>
<path fill-rule="evenodd" clip-rule="evenodd" d="M203.343 21.5315L207.413 37.3314C207.558 37.896 207.976 38.3424 208.53 38.5272C209.083 38.7108 209.685 38.6027 210.141 38.238L225.317 26.0596C226.053 25.469 226.171 24.3926 225.579 23.6565C224.989 22.9205 223.912 22.8028 223.175 23.3935L210.065 33.9135L206.656 20.6795C206.421 19.7646 205.488 19.2143 204.572 19.4497C203.658 19.685 203.107 20.6172 203.343 21.5315Z" fill="#FFFFFE"/>
<path fill-rule="evenodd" clip-rule="evenodd" d="M220.704 49.4466C220.401 47.8646 221.449 46.3242 223.031 46.0236L229.826 44.7284C231.408 44.4266 232.949 45.4729 233.251 47.0548C233.553 48.6367 232.505 50.1759 230.923 50.4777L224.128 51.7729C222.546 52.0747 221.004 51.0272 220.704 49.4466Z" fill="#F3BCA9"/>
<path fill-rule="evenodd" clip-rule="evenodd" d="M183.346 45.1173C183.346 45.1173 184.365 69.001 205 64.5294C211.477 63.126 226.472 51.6023 226.472 51.6023L225.046 44.6797C225.046 44.6797 209.621 53.7501 203.32 52.0763C197.019 50.4039 192.449 38.8977 189.269 36.3953C186.873 34.5091 183.346 45.1173 183.346 45.1173Z" fill="#98E5EC"/>
<path fill-rule="evenodd" clip-rule="evenodd" d="M189.901 154.748C189.336 157.841 183.015 157.616 181.658 155.616C180.332 128.913 175.216 101.183 166.515 72.9412H188.406C190.286 100.328 190.984 127.614 189.901 154.748Z" fill="#1B838B"/>
<path fill-rule="evenodd" clip-rule="evenodd" d="M168.909 147.869C166.601 150.364 161.786 149.3 160.785 147.498L160.635 74.358L175.982 76.6164L168.909 147.869Z" fill="#1B838B"/>
<path fill-rule="evenodd" clip-rule="evenodd" d="M180.891 20.1883C179.387 25.4237 175.493 26.8969 172.192 23.4797C168.891 20.0614 167.432 13.0471 168.936 7.81111C170.439 2.57576 174.334 1.10196 177.635 4.52035C180.935 7.93748 182.394 14.9523 180.891 20.1883Z" fill="#F3BCA9"/>
<path fill-rule="evenodd" clip-rule="evenodd" d="M186.412 18.5262C184.909 23.7616 179.293 25.656 175.992 22.2383C172.69 18.8205 171.232 11.8055 172.735 6.57019C174.238 1.33434 178.134 -0.139451 181.433 3.27881C184.735 6.69594 187.914 13.2904 186.412 18.5262Z" fill="#F3BCA9"/>
<path fill-rule="evenodd" clip-rule="evenodd" d="M173.707 33.6351L173.145 33.5093C171.249 33.0868 170.043 31.1905 170.467 29.2942L172.852 18.6071C173.275 16.7115 175.173 15.5071 177.069 15.93L177.631 16.0551C179.527 16.4779 180.733 18.3746 180.309 20.27L179.528 30.8761C179.104 32.7712 175.604 34.0576 173.707 33.6351Z" fill="#F3BCA9"/>
<path fill-rule="evenodd" clip-rule="evenodd" d="M167.333 19.3147C167.333 19.3147 167.901 24.2466 174.913 23.2591C179.943 22.5507 178.478 14.3717 183.507 13.5521C189.038 12.6499 190.041 5.81956 187.861 3.19906C185.681 0.577298 179.588 -0.793249 175.176 1.15185C170.763 3.09695 163.959 2.98152 167.333 19.3147Z" fill="#056D78"/>
<path fill-rule="evenodd" clip-rule="evenodd" d="M183.527 16.3914C183.162 17.6645 181.833 18.4005 180.559 18.0348C179.285 17.6698 178.55 16.3418 178.914 15.0687C179.28 13.7956 180.61 13.0601 181.883 13.4253C183.156 13.7905 183.893 15.1183 183.527 16.3914Z" fill="#F3BCA9"/>
<path fill-rule="evenodd" clip-rule="evenodd" d="M159.335 73.4911C161.126 63.6814 159.201 55.9289 159.357 45.4992C159.357 26.7486 158.456 22.1725 168.374 25.0249L171.17 25.7669C172.511 26.1227 173.814 26.6286 175.049 27.2637C188.124 33.9968 191.614 36.0742 191.041 43.8845C191.1 56.7475 189.202 71.1761 188.932 77.5051C186.237 86.4006 162.326 79.8566 159.335 73.4911Z" fill="#98E5EC"/>
<path fill-rule="evenodd" clip-rule="evenodd" d="M180.039 23.9592L179.469 22.6463C179.469 22.6463 180.481 23.6592 182.409 23.4117C182.409 23.4117 181.272 24.0625 180.039 23.9592Z" fill="#E7947B"/>
<path fill-rule="evenodd" clip-rule="evenodd" d="M468.844 -4.61805C472.704 -2.29343 475.29 2.3651 475.624 6.9429L481.153 3.8868C479.671 -2.26162 475.862 -8.0294 470.62 -11.183C465.385 -14.3365 459.954 -14.1295 456.025 -11.2378L458.575 -3.3178C460.953 -6.26488 464.982 -6.94266 468.844 -4.61805Z" fill="#22A3AF"/>
<path fill-rule="evenodd" clip-rule="evenodd" d="M451.581 -25.0205L453.993 -17.5349C459.078 -20.5604 465.691 -20.5125 472.104 -16.6541C478.516 -12.7951 483.301 -5.97922 485.546 1.45738L490.77 -1.43147C490.451 -2.35435 490.094 -3.26516 489.718 -4.16742C486.417 -12.0342 480.899 -18.9943 473.881 -23.219C466.061 -27.9278 457.993 -28.2722 451.581 -25.0205Z" fill="#5CC7D0"/>
<path fill-rule="evenodd" clip-rule="evenodd" d="M71.9854 117.269C71.9299 113.417 73.7456 109.945 76.748 108.161L123.261 80.526C125.808 79.0132 127.937 80.8618 127.991 84.6355L128.475 118.453C128.526 122.026 126.843 125.245 124.059 126.899L81.3358 152.283C77.4365 154.599 72.4724 151.242 72.4003 146.239L71.9854 117.269Z" fill="#D9E7F0"/>
<path fill-rule="evenodd" clip-rule="evenodd" d="M78.529 129.609C78.6438 136.873 83.2986 139.915 88.9259 136.402C94.5531 132.89 99.0215 124.152 98.9072 116.887C98.7924 109.622 94.1376 106.58 88.5103 110.094C82.8831 113.606 78.4142 122.343 78.529 129.609Z" fill="#FFFFFE"/>
<path fill-rule="evenodd" clip-rule="evenodd" d="M93.2227 127.365C93.8559 126.945 94.2085 126.153 94.1369 125.318C93.9846 123.538 93.0554 122.826 92.3714 122.798C92.0979 122.787 91.8157 122.857 91.5352 122.857C91.3799 122.857 91.2218 122.858 91.066 122.87L91.0515 122.871C90.9274 122.879 90.8044 122.892 90.6862 122.919L90.6423 122.928L90.6406 122.934L90.4587 122.962L90.457 122.965C90.3923 122.929 90.3277 122.892 90.2631 122.855L90.1702 122.808L90.1759 122.681C90.184 122.315 90.1927 121.949 90.2013 121.583L90.1979 121.571C90.3491 121.288 90.4761 120.98 90.569 120.63C90.6325 120.391 90.6718 120.154 90.6994 119.918C91.1184 119.623 91.2414 118.831 91.2985 118.303C91.3447 117.88 91.4215 116.846 90.9787 117.136C90.988 117.073 90.9967 117.011 91.0059 116.956C91.0665 116.596 91.1191 116.237 91.1242 115.902C91.13 115.568 91.0861 115.256 90.9649 115.048C90.9252 114.979 90.8645 114.922 90.7877 114.963C90.8189 114.866 90.8363 114.764 90.8339 114.66C90.8137 113.851 90.2729 113.777 89.8666 113.831C89.3132 113.906 88.721 114.143 88.1536 114.697C87.5862 115.251 87.0467 116.157 86.7857 117.175C86.7529 117.304 86.7246 117.45 86.7321 117.562C86.6854 117.629 86.6473 117.719 86.619 117.803C86.496 118.166 86.4505 118.533 86.4539 118.862C86.4574 119.192 86.5076 119.486 86.5664 119.77C86.5757 119.815 86.5844 119.867 86.5929 119.921C86.2352 120.239 86.2842 121.103 86.3188 121.446C86.3679 121.928 86.4804 122.61 86.9433 122.304C87.0045 122.807 87.1817 123.19 87.4668 123.365C87.4587 123.721 87.4507 124.078 87.442 124.434C87.4414 124.484 87.4467 124.546 87.4409 124.601L87.3693 124.703C87.2671 124.85 87.1655 124.996 87.0634 125.143L86.3783 125.962C86.2657 126.089 86.1514 126.22 86.0384 126.349C85.699 126.738 85.3486 127.138 85.0797 127.421C84.8189 127.695 84.5227 128.005 84.2832 128.404C84.0159 128.849 83.713 129.869 83.4844 130.956C83.249 132.072 84.36 133.005 85.2477 132.441L93.2227 127.365Z" fill="#C05793"/>
<path fill-rule="evenodd" clip-rule="evenodd" d="M104.009 108.69L118.307 99.7632L118.392 105.186L104.095 114.113L104.009 108.69Z" fill="#FFFFFE"/>
<path fill-rule="evenodd" clip-rule="evenodd" d="M126.044 105.984L126.13 111.406L104.435 124.95L104.35 119.527L126.044 105.984Z" fill="#FFFFFE"/>
<path fill-rule="evenodd" clip-rule="evenodd" d="M75.4286 131.422L75.1596 131.426C75.2145 134.863 76.0548 137.62 77.4845 139.533C78.9118 141.447 80.945 142.501 83.2958 142.497C85.01 142.497 86.8875 141.945 88.84 140.798C92.4466 138.678 95.6568 134.922 97.9757 130.538C100.294 126.154 101.719 121.141 101.72 116.488C101.72 116.37 101.719 116.252 101.717 116.133C101.663 112.697 100.823 109.939 99.3927 108.025C97.9654 106.112 95.932 105.059 93.5813 105.062C91.8672 105.062 89.9897 105.614 88.0377 106.761C84.4311 108.88 81.2204 112.637 78.9013 117.021C76.5835 121.405 75.158 126.418 75.1567 131.071C75.1567 131.189 75.158 131.308 75.1596 131.426L75.4286 131.422L75.6976 131.417C75.6953 131.303 75.6947 131.187 75.6947 131.071C75.6936 126.529 77.0943 121.586 79.3769 117.271C81.6573 112.957 84.8213 109.271 88.3102 107.224C90.1979 106.115 91.9837 105.599 93.5813 105.599C95.7711 105.602 97.618 106.555 98.9621 108.347C100.304 110.14 101.128 112.786 101.18 116.142C101.182 116.257 101.182 116.372 101.182 116.488C101.184 121.031 99.7829 125.973 97.5008 130.288C95.2198 134.602 92.0559 138.288 88.5676 140.335C86.6791 141.444 84.8934 141.96 83.2958 141.96C81.1061 141.957 79.2592 141.003 77.9151 139.211C76.5732 137.419 75.7502 134.773 75.6976 131.417L75.4286 131.422Z" fill="#FFFFFE"/>
<path fill-rule="evenodd" clip-rule="evenodd" d="M277.372 167.755L222.391 136.029C219.808 134.538 220.135 131.91 223.118 130.189L241.565 119.544C244.549 117.822 254.355 115.374 262.165 119.632L308.614 146.434C313.687 149.054 312.481 155.558 308.383 157.969L291.512 167.705C288.528 169.426 281.637 170.026 277.372 167.755Z" fill="#FFFFFE"/>
</svg>
