<svg width="40" height="40" viewBox="0 0 40 40" fill="none" xmlns="http://www.w3.org/2000/svg">
<g clip-path="url(#clip0_17117_980)">
<path d="M2.66675 9.97339V29.9867L20.0001 40.0001L37.3334 29.9867V9.97339L20.0001 -0.0266113L2.66675 9.97339Z" fill="#2F4051"/>
<path d="M2.66675 29.9867L20.0001 39.9867L37.3334 29.9867V9.97339L2.66675 29.9867Z" fill="#212D38"/>
<path d="M19.8666 25.0666C16.9866 21.9066 13.6799 19.4399 9.70659 17.7999C9.53325 17.7199 9.33325 17.8532 9.33325 18.0532V22.5999C9.33325 22.7866 9.47992 22.9466 9.66659 22.9732C10.8399 23.0932 11.9866 23.3199 13.0799 23.7732C13.2133 23.8266 13.2666 23.9866 13.2133 24.1066C12.6533 25.4399 12.1066 26.7199 11.5466 28.0399C11.4933 28.1599 11.5866 28.2799 11.7066 28.2799C12.7333 28.2799 13.6933 28.2666 14.6399 28.2932C14.9733 28.3066 15.1466 28.1999 15.2666 27.8799C15.5599 27.0799 15.9066 26.3066 16.2533 25.4532C16.2933 25.3732 16.3999 25.3332 16.4799 25.3866C17.5333 26.1066 18.5466 26.7866 19.5599 27.4799C19.8533 27.6799 20.2399 27.6799 20.5333 27.4799C21.5066 26.8132 22.4933 26.1466 23.5199 25.4532C23.6133 25.3866 23.7466 25.4266 23.7866 25.5332C24.1199 26.3466 24.4399 27.0799 24.7199 27.8399C24.8399 28.1732 24.9999 28.3199 25.3733 28.2932C26.1333 28.2532 26.9066 28.2799 27.6799 28.2799H28.3199C28.4799 28.2799 28.5999 28.1066 28.5333 27.9599C27.9599 26.6132 27.4266 25.3332 26.8399 23.9732C26.7866 23.8532 26.8533 23.7199 26.9866 23.6932C28.1866 23.4132 29.3333 23.1599 30.5066 22.8932C30.6666 22.8532 30.7866 22.7066 30.7866 22.5466V18.0132C30.7866 17.8399 30.6133 17.7199 30.4533 17.7866C26.4666 19.4266 23.1466 21.9066 20.2533 25.0799C20.1599 25.1866 19.9733 25.1866 19.8666 25.0666ZM22.0266 21.1466C22.0799 21.2666 22.2399 21.3066 22.3466 21.2266C23.1199 20.5999 23.8666 20.0132 24.5866 19.3999C24.6933 19.3066 24.7333 19.0132 24.6666 18.8799C23.7466 16.6799 22.7999 14.4799 21.8799 12.2799C21.7199 11.8799 21.4666 11.8532 20.9199 11.9332C20.3599 12.0132 19.7999 12.0132 19.2399 11.9332C18.6399 11.8399 18.3866 11.9199 18.1999 12.3599C17.3066 14.5066 16.3733 16.6532 15.4666 18.7999L15.4133 18.9066C15.3466 19.0799 15.3866 19.2666 15.5333 19.3866L17.7199 21.1866C17.8133 21.2666 17.9599 21.2266 17.9999 21.1199C18.6133 19.6399 19.1999 18.1866 19.8266 16.6666C19.8933 16.5199 20.1066 16.5199 20.1733 16.6666C20.8133 18.1999 21.4133 19.6666 22.0266 21.1466Z" fill="white"/>
</g>
<defs>
<clipPath id="clip0_17117_980">
<rect width="40" height="40" fill="white"/>
</clipPath>
</defs>
</svg>
