<?xml version="1.0" encoding="UTF-8"?>
<svg width="64" height="64" viewBox="0 0 64 64" fill="none" xmlns="http://www.w3.org/2000/svg">
  <path d="M32 4L52.5 16V48L32 60L11.5 48V16L32 4Z" fill="#2f4051" stroke="#465564" stroke-width="1"/>
  <g transform="translate(18, 18)">
    <rect x="2" y="4" width="6" height="20" rx="1" fill="white"/>
    <rect x="11" y="4" width="6" height="20" rx="1" fill="white"/>
    <rect x="20" y="4" width="6" height="20" rx="1" fill="white"/>
    <rect x="3" y="6" width="4" height="3" rx="0.5" fill="#2f4051"/>
    <rect x="3" y="10" width="4" height="3" rx="0.5" fill="#2f4051"/>
    <rect x="3" y="14" width="4" height="3" rx="0.5" fill="#2f4051"/>
    <rect x="12" y="6" width="4" height="3" rx="0.5" fill="#2f4051"/>
    <rect x="12" y="10" width="4" height="3" rx="0.5" fill="#2f4051"/>
    <rect x="21" y="6" width="4" height="3" rx="0.5" fill="#2f4051"/>
    <rect x="21" y="10" width="4" height="3" rx="0.5" fill="#2f4051"/>
    <rect x="21" y="14" width="4" height="3" rx="0.5" fill="#2f4051"/>
    <rect x="21" y="18" width="4" height="3" rx="0.5" fill="#2f4051"/>
    <circle cx="6" cy="1" r="1.5" fill="white"/>
    <circle cx="14" cy="1" r="1.5" fill="white"/>
    <circle cx="22" cy="1" r="1.5" fill="white"/>
    <line x1="6" y1="1" x2="14" y2="1" stroke="white" stroke-width="1"/>
    <line x1="14" y1="1" x2="22" y2="1" stroke="white" stroke-width="1"/>
  </g>
</svg> 